SplineFontDB: 3.0
FontName: PWGroovy
FullName: PWGroovy
FamilyName: PWGroovy
Weight: Medium
Copyright: PeaxWebdesign
Version: 001.000
ItalicAngle: 0
UnderlinePosition: -100
UnderlineWidth: 50
Ascent: 800
Descent: 200
sfntRevision: 0x00010000
LayerCount: 2
Layer: 0 1 "Back"  1
Layer: 1 1 "Fore"  0
XUID: [1021 810 1251964038 4236373]
FSType: 0
OS2Version: 1
OS2_WeightWidthSlopeOnly: 0
OS2_UseTypoMetrics: 1
CreationTime: 1280473793
ModificationTime: 1416795051
PfmFamily: 17
TTFWeight: 500
TTFWidth: 5
LineGap: 90
VLineGap: 0
Panose: 2 0 6 3 0 0 0 0 0 0
OS2TypoAscent: 800
OS2TypoAOffset: 0
OS2TypoDescent: -200
OS2TypoDOffset: 0
OS2TypoLinegap: 90
OS2WinAscent: 820
OS2WinAOffset: 0
OS2WinDescent: 235
OS2WinDOffset: 0
HheadAscent: 820
HheadAOffset: 0
HheadDescent: -235
HheadDOffset: 0
OS2SubXSize: 650
OS2SubYSize: 699
OS2SubXOff: 0
OS2SubYOff: 140
OS2SupXSize: 650
OS2SupYSize: 699
OS2SupXOff: 0
OS2SupYOff: 479
OS2StrikeYSize: 49
OS2StrikeYPos: 258
OS2Vendor: '2ttf'
OS2CodePages: 00000001.00000000
OS2UnicodeRanges: 80000003.00010000.00000000.00000000
MarkAttachClasses: 1
DEI: 91125
ShortTable: cvt  2
  33
  633
EndShort
ShortTable: maxp 16
  1
  0
  106
  551
  15
  0
  0
  2
  0
  1
  1
  0
  64
  0
  0
  0
EndShort
LangName: 1033 "" "" "" "PeaxWebdesign:PWGroovy" 
GaspTable: 1 65535 2 0
Encoding: UnicodeBmp
UnicodeInterp: none
NameList: Adobe Glyph List
DisplaySize: -24
AntiAlias: 1
FitToEm: 1
WinInfo: 0 50 17
BeginChars: 65539 151

StartChar: .notdef
Encoding: 65536 -1 0
Width: 364
Flags: W
LayerCount: 2
Fore
SplineSet
66 33 m 1,0,-1
 265 33 l 1,1,-1
 265 633 l 1,2,-1
 66 633 l 1,3,-1
 66 33 l 1,0,-1
33 0 m 1,4,-1
 33 666 l 1,5,-1
 298 666 l 1,6,-1
 298 0 l 1,7,-1
 33 0 l 1,4,-1
EndSplineSet
Validated: 1
EndChar

StartChar: exclam
Encoding: 33 33 4
Width: 286
GlyphClass: 2
Flags: W
LayerCount: 2
Fore
SplineSet
190 284 m 1,0,1
 193 278 193 278 193 271 c 2,2,-1
 193 264 l 1,3,-1
 193 254 l 1,4,5
 195 241 195 241 196 230 c 0,6,7
 200 194 200 194 191 172 c 0,8,9
 178 141 178 141 145 133 c 0,10,11
 127 129 127 129 108.5 138 c 128,-1,12
 90 147 90 147 80 161 c 0,13,14
 61 187 61 187 66 242 c 0,15,16
 67 257 67 257 71 283 c 0,17,18
 76 313 76 313 76 316 c 0,19,20
 80 363 80 363 68 476 c 1,21,-1
 67 484 l 1,22,-1
 66 491 l 2,23,24
 64 507 64 507 56 536 c 2,25,-1
 47 573 l 1,26,27
 34 633 34 633 46 678 c 1,28,29
 58 718 58 718 80 731 c 0,30,31
 102 743 102 743 127 726 c 0,32,33
 146 713 146 713 161 688 c 128,-1,34
 176 663 176 663 181 637 c 0,35,36
 187 603 187 603 187.5 562.5 c 128,-1,37
 188 522 188 522 186 470 c 128,-1,38
 184 418 184 418 184 397 c 0,39,40
 184 368 184 368 188 310 c 0,41,42
 189 293 189 293 190 284 c 1,0,1
94 87 m 1,43,44
 99 101 99 101 110 109 c 0,45,46
 125 121 125 121 151 117 c 0,47,48
 161 115 161 115 171 111 c 1,49,50
 184 109 184 109 195 103 c 0,51,52
 223 87 223 87 226 60 c 0,53,54
 227 57 227 57 227 54 c 0,55,56
 230 35 230 35 218 17 c 0,57,58
 194 -20 194 -20 158 -27 c 0,59,60
 125 -33 125 -33 103 -11 c 0,61,62
 84 7 84 7 82 36 c 0,63,64
 79 65 79 65 94 87 c 1,43,44
EndSplineSet
Validated: 33
EndChar

StartChar: quotedbl
Encoding: 34 34 5
Width: 328
GlyphClass: 2
Flags: W
LayerCount: 2
Fore
SplineSet
108 509 m 1,0,1
 110 505 110 505 108 501 c 0,2,3
 106 494 106 494 103 468 c 128,-1,4
 100 442 100 442 92 429 c 0,5,6
 86 420 86 420 77 413 c 0,7,8
 64 403 64 403 51 405 c 0,9,10
 21 410 21 410 9 457 c 1,11,12
 -1 491 -1 491 -1 546 c 1,13,14
 -2 592 -2 592 3.5 638 c 128,-1,15
 9 684 9 684 16 701 c 0,16,17
 24 722 24 722 43 726 c 0,18,19
 57 729 57 729 74 719 c 0,20,21
 104 702 104 702 115 674 c 0,22,23
 127 644 127 644 116 563 c 0,24,25
 114 541 114 541 108 509 c 1,0,1
178 435 m 1,26,27
 165 453 165 453 157 486 c 0,28,29
 146 531 146 531 146 587 c 0,30,31
 145 645 145 645 155 686 c 0,32,33
 160 709 160 709 167 722 c 0,34,35
 177 740 177 740 191 744 c 0,36,37
 212 750 212 750 228 741 c 0,38,39
 242 733 242 733 252 715 c 1,40,41
 266 686 266 686 269 632 c 0,42,43
 271 590 271 590 267 544.5 c 128,-1,44
 263 499 263 499 257 482 c 0,45,46
 240 430 240 430 224 415 c 0,47,48
 212 404 212 404 200 408 c 0,49,50
 190 411 190 411 183 423 c 0,51,52
 180 428 180 428 178 435 c 1,26,27
EndSplineSet
Validated: 33
EndChar

StartChar: numbersign
Encoding: 35 35 6
Width: 625
GlyphClass: 2
Flags: W
LayerCount: 2
Fore
SplineSet
294 291 m 1,0,1
 309 346 309 346 319 414 c 1,2,-1
 287 416 l 1,3,4
 261 414 261 414 219 408 c 1,5,-1
 214 408 l 1,6,-1
 180 279 l 1,7,8
 239 283 239 283 294 291 c 1,0,1
96 281 m 1,9,10
 116 363 116 363 123 387 c 1,11,-1
 119 386 l 1,12,13
 48 370 48 370 14 381 c 0,14,15
 -10 388 -10 388 -18 408 c 0,16,17
 -19 410 -19 410 -19 413 c 0,18,19
 -24 431 -24 431 -13 453 c 0,20,21
 -3 471 -3 471 15 486 c 128,-1,22
 33 501 33 501 52 504 c 0,23,24
 76 508 76 508 117 504 c 0,25,26
 122 503 122 503 130.5 502.5 c 128,-1,27
 139 502 139 502 142 501 c 1,28,29
 145 526 145 526 147 545 c 1,30,31
 162 638 162 638 187 685 c 0,32,33
 197 705 197 705 216 711.5 c 128,-1,34
 235 718 235 718 252 711 c 1,35,36
 270 705 270 705 282.5 690 c 128,-1,37
 295 675 295 675 298 656 c 0,38,39
 303 619 303 619 283 571 c 0,40,41
 259 515 259 515 256 500 c 1,42,-1
 341 504 l 1,43,-1
 354 584 l 2,44,45
 360 618 360 618 377 662 c 0,46,47
 387 688 387 688 398 704 c 0,48,49
 413 727 413 727 430 729 c 0,50,51
 461 732 461 732 475 706 c 1,52,53
 484 687 484 687 481 655 c 1,54,55
 479 615 479 615 462 568 c 1,56,-1
 444 513 l 1,57,-1
 447 513 l 1,58,59
 490 517 490 517 494 517 c 0,60,61
 526 519 526 519 544 511 c 0,62,63
 558 505 558 505 562 497 c 0,64,65
 565 493 565 493 566 478 c 1,66,-1
 566 466 l 2,67,68
 566 462 566 462 565 457 c 0,69,70
 562 442 562 442 552 431 c 0,71,72
 539 416 539 416 513 410 c 0,73,74
 497 406 497 406 431 406 c 0,75,76
 421 406 421 406 409 407 c 1,77,-1
 401 384 l 2,78,79
 397 372 397 372 376 317 c 2,80,-1
 370 302 l 1,81,-1
 376 303 l 2,82,83
 406 308 406 308 453 305 c 0,84,85
 479 304 479 304 496 298 c 1,86,87
 521 291 521 291 526 275 c 0,88,89
 533 255 533 255 521 229 c 0,90,91
 508 201 508 201 488 195 c 0,92,93
 458 185 458 185 356 193 c 1,94,-1
 345 193 l 1,95,-1
 339 150 l 1,96,-1
 333 105 l 2,97,98
 332 97 332 97 332 70 c 0,99,100
 332 39 332 39 331 23 c 0,101,102
 325 -44 325 -44 280 -53 c 0,103,104
 251 -58 251 -58 232 -46 c 0,105,106
 216 -35 216 -35 209 -11 c 0,107,108
 201 21 201 21 212 69 c 0,109,110
 217 90 217 90 226 112 c 128,-1,111
 235 134 235 134 247.5 160.5 c 128,-1,112
 260 187 260 187 265 199 c 1,113,114
 235 201 235 201 218 200 c 0,115,116
 195 199 195 199 163 192 c 1,117,118
 162 177 162 177 162 145 c 0,119,120
 161 80 161 80 152 47 c 0,121,122
 145 24 145 24 129.5 4 c 128,-1,123
 114 -16 114 -16 95 -26 c 0,124,125
 72 -37 72 -37 53 -28 c 0,126,127
 32 -19 32 -19 22 11 c 0,128,129
 9 50 9 50 34 114 c 0,130,131
 40 129 40 129 55 163 c 1,132,-1
 58 167 l 1,133,134
 19 162 19 162 -12 166 c 0,135,136
 -39 170 -39 170 -48 193 c 0,137,138
 -57 214 -57 214 -46 237 c 0,139,140
 -35 261 -35 261 -8 274 c 0,141,142
 20 288 20 288 60 284 c 0,143,144
 81 282 81 282 96 281 c 1,9,10
EndSplineSet
Validated: 33
EndChar

StartChar: dollar
Encoding: 36 36 7
Width: 557
GlyphClass: 2
Flags: W
LayerCount: 2
Fore
SplineSet
278 274 m 1,0,-1
 278 180 l 1,1,-1
 278 85 l 2,2,3
 278 80 278 80 279 69 c 1,4,-1
 284 69 l 1,5,6
 327 75 327 75 360 95.5 c 128,-1,7
 393 116 393 116 403 145 c 0,8,9
 404 150 404 150 405 156 c 1,10,11
 403 183 403 183 393 204 c 1,12,13
 384 217 384 217 366 230 c 0,14,15
 335 253 335 253 278 274 c 1,0,-1
290 622 m 1,16,17
 289 618 289 618 289 615 c 0,18,19
 282 518 282 518 279 398 c 1,20,-1
 286 396 l 2,21,22
 317 387 317 387 334.5 380.5 c 128,-1,23
 352 374 352 374 379 361.5 c 128,-1,24
 406 349 406 349 426.5 331 c 128,-1,25
 447 313 447 313 464 289 c 0,26,27
 492 249 492 249 497.5 208 c 128,-1,28
 503 167 503 167 488 121 c 1,29,30
 457 16 457 16 346 -11 c 0,31,32
 321 -18 321 -18 292 -19 c 1,33,34
 295 -37 295 -37 295 -51 c 1,35,36
 299 -100 299 -100 289 -125 c 0,37,38
 282 -143 282 -143 269 -150 c 0,39,40
 254 -158 254 -158 234 -153 c 0,41,42
 208 -146 208 -146 200 -111 c 0,43,44
 195 -86 195 -86 197 -46 c 0,45,46
 198 -31 198 -31 200 -11 c 1,47,48
 172 -4 172 -4 146 6 c 0,49,50
 71 35 71 35 33 85 c 1,51,52
 -6 134 -6 134 1 183 c 0,53,54
 5 211 5 211 25 225 c 0,55,56
 47 241 47 241 83 237 c 0,57,58
 108 234 108 234 121 218 c 0,59,60
 132 206 132 206 136 184 c 2,61,-1
 139 164 l 2,62,63
 141 151 141 151 141 149 c 0,64,65
 144 131 144 131 148 122 c 0,66,67
 167 88 167 88 211 74 c 1,68,69
 212 102 212 102 214 294 c 1,70,71
 166 308 166 308 139 321 c 0,72,73
 86 348 86 348 57 396 c 128,-1,74
 28 444 28 444 28 497 c 128,-1,75
 28 550 28 550 50 604 c 1,76,77
 71 648 71 648 112 677.5 c 128,-1,78
 153 707 153 707 204 719 c 1,79,80
 201 742 201 742 210 765.5 c 128,-1,81
 219 789 219 789 234 803 c 1,82,83
 251 821 251 821 270 820 c 0,84,85
 292 819 292 819 305 794 c 0,86,87
 312 779 312 779 311 752 c 0,88,89
 311 739 311 739 309 723 c 1,90,91
 404 709 404 709 450 639 c 0,92,93
 476 600 476 600 476 551 c 0,94,95
 476 522 476 522 463 506 c 0,96,97
 446 485 446 485 414 487 c 0,98,99
 373 490 373 490 353 520 c 0,100,101
 345 533 345 533 332 575 c 0,102,103
 323 605 323 605 312 614 c 0,104,105
 304 621 304 621 290 622 c 1,16,17
223 560 m 1,106,107
 223 577 223 577 222 593 c 0,108,109
 221 607 221 607 219 626 c 1,110,111
 163 617 163 617 146 584 c 0,112,113
 128 547 128 547 155 480 c 0,114,115
 171 442 171 442 218 420 c 1,116,117
 220 461 220 461 221 479 c 1,118,119
 221 516 221 516 222 544 c 0,120,121
 222 552 222 552 223 560 c 1,106,107
EndSplineSet
Validated: 33
EndChar

StartChar: percent
Encoding: 37 37 8
Width: 695
GlyphClass: 2
Flags: W
LayerCount: 2
Fore
SplineSet
103 656 m 1,0,1
 140 670 140 670 175.5 660 c 128,-1,2
 211 650 211 650 239 620 c 1,3,4
 263 596 263 596 275.5 564 c 128,-1,5
 288 532 288 532 285 493.5 c 128,-1,6
 282 455 282 455 260 420 c 0,7,8
 221 359 221 359 173 348 c 0,9,10
 93 331 93 331 43 375 c 0,11,12
 -1 414 -1 414 -6 482 c 0,13,14
 -10 540 -10 540 18.5 591.5 c 128,-1,15
 47 643 47 643 103 656 c 1,0,1
106 555 m 1,16,17
 90 517 90 517 94 493 c 128,-1,18
 98 469 98 469 114.5 457.5 c 128,-1,19
 131 446 131 446 148 453 c 0,20,21
 169 462 169 462 178 496 c 1,22,23
 186 522 186 522 172 542.5 c 128,-1,24
 158 563 158 563 137 566 c 0,25,26
 120 568 120 568 106 555 c 1,16,17
615 103 m 0,27,28
 586 46 586 46 536 28 c 0,29,30
 477 8 477 8 422 47 c 0,31,32
 390 70 390 70 373 108.5 c 128,-1,33
 356 147 356 147 362 192 c 1,34,35
 361 195 361 195 361 197 c 0,36,37
 364 286 364 286 415 323 c 0,38,39
 461 356 461 356 523 336 c 0,40,41
 566 322 566 322 598.5 285.5 c 128,-1,42
 631 249 631 249 636 201 c 0,43,44
 639 175 639 175 634 147 c 0,45,46
 629 123 629 123 620 110 c 0,47,48
 618 107 618 107 615 103 c 0,27,28
389 399 m 1,49,50
 352 346 352 346 322 297 c 2,51,-1
 292 248 l 2,52,53
 265 202 265 202 244 160 c 1,54,-1
 239 144 l 1,55,56
 221 90 221 90 207 59 c 0,57,58
 185 8 185 8 163 -14 c 0,59,60
 149 -29 149 -29 134 -33 c 0,61,62
 116 -38 116 -38 99 -27 c 0,63,64
 52 2 52 2 81 72 c 0,65,66
 97 109 97 109 134 156 c 0,67,68
 139 163 139 163 174 206.5 c 128,-1,69
 209 250 209 250 220 266 c 2,70,-1
 257 316 l 2,71,72
 282 350 282 350 298 377.5 c 128,-1,73
 314 405 314 405 327 434 c 1,74,75
 335 449 335 449 351 494 c 0,76,77
 366 534 366 534 378 556 c 0,78,79
 381 562 381 562 398 598 c 0,80,81
 412 627 412 627 423 644 c 0,82,83
 446 682 446 682 472 698 c 1,84,85
 473 702 473 702 476 705 c 0,86,87
 501 727 501 727 528 721 c 1,88,89
 554 714 554 714 563 691 c 0,90,91
 569 673 569 673 564 648 c 0,92,93
 556 613 556 613 533 576 c 0,94,95
 511 541 511 541 478 503 c 0,96,97
 472 495 472 495 468 491 c 2,98,-1
 389 399 l 1,49,50
468 226 m 0,99,100
 441 205 441 205 441 164 c 0,101,102
 441 126 441 126 459 118 c 0,103,104
 475 111 475 111 501 126 c 0,105,106
 526 141 526 141 540 165 c 0,107,108
 546 177 546 177 550 188 c 1,109,110
 552 202 552 202 547 213 c 1,111,112
 535 234 535 234 505 237 c 0,113,114
 486 239 486 239 473 237 c 1,115,116
 473 230 473 230 468 226 c 0,99,100
557 242 m 1,117,118
 557 242 557 242 556 242 c 2,119,-1
 558 240 l 2,120,121
 558 241 558 241 557 242 c 1,117,118
EndSplineSet
Validated: 33
EndChar

StartChar: ampersand
Encoding: 38 38 9
Width: 645
GlyphClass: 2
Flags: W
LayerCount: 2
Fore
SplineSet
276 278 m 1,0,-1
 243 314 l 1,1,-1
 217 299 l 2,2,3
 177 275 177 275 159 259 c 0,4,5
 133 236 133 236 127 211 c 0,6,7
 119 182 119 182 137 144 c 0,8,9
 147 122 147 122 166.5 101 c 128,-1,10
 186 80 186 80 205 73 c 0,11,12
 258 54 258 54 342 123 c 1,13,-1
 370 148 l 1,14,15
 316 218 316 218 276 278 c 1,0,-1
203 569 m 1,16,17
 207 554 207 554 216 535 c 0,18,19
 222 521 222 521 247 476 c 2,20,-1
 259 454 l 1,21,22
 262 455 262 455 266 456 c 0,23,24
 283 464 283 464 298 488 c 0,25,26
 314 515 314 515 316 543.5 c 128,-1,27
 318 572 318 572 302 596 c 1,28,29
 280 624 280 624 243 617 c 0,30,31
 206 609 206 609 203 573 c 1,32,-1
 203 569 l 1,16,17
171 432 m 1,33,34
 158 450 158 450 149 471 c 0,35,36
 147 474 147 474 146 477 c 0,37,38
 131 502 131 502 127 537 c 1,39,40
 106 614 106 614 151 671 c 0,41,42
 153 674 153 674 156 677 c 0,43,44
 166 688 166 688 180 698 c 0,45,46
 183 700 183 700 187 702 c 0,47,48
 208 713 208 713 235 714 c 1,49,50
 278 718 278 718 323 695 c 1,51,52
 352 679 352 679 375 655 c 128,-1,53
 398 631 398 631 408 604 c 0,54,55
 428 551 428 551 401 470 c 0,56,57
 392 441 392 441 346 401 c 0,58,59
 339 394 339 394 317 377 c 1,60,-1
 313 373 l 1,61,-1
 367 293 l 1,62,-1
 394 254 l 1,63,-1
 414 231 l 2,64,65
 418 225 418 225 427 216 c 1,66,67
 439 234 439 234 445 248 c 0,68,69
 450 261 450 261 456 293 c 0,70,71
 462 327 462 327 470 344 c 0,72,73
 484 371 484 371 524 363 c 0,74,75
 551 357 551 357 563 337 c 0,76,77
 573 320 573 320 571 295 c 0,78,79
 567 258 567 258 542 218 c 0,80,81
 524 189 524 189 491 152 c 1,82,-1
 506 138 l 1,83,84
 540 104 540 104 558 82 c 1,85,86
 570 69 570 69 576 59 c 0,87,88
 584 47 584 47 586 38 c 0,89,90
 587 29 587 29 582 16 c 0,91,92
 577 4 577 4 571 -2 c 0,93,94
 555 -19 555 -19 533 -20 c 0,95,96
 515 -20 515 -20 494 -7 c 0,97,98
 463 13 463 13 425 65 c 1,99,-1
 416 78 l 1,100,101
 323 -1 323 -1 257 -8 c 0,102,103
 183 -15 183 -15 121.5 14 c 128,-1,104
 60 43 60 43 27 96 c 0,105,106
 5 132 5 132 -0.5 172.5 c 128,-1,107
 -6 213 -6 213 8.5 258 c 128,-1,108
 23 303 23 303 57 343 c 0,109,110
 98 391 98 391 168 407 c 0,111,112
 170 407 170 407 176 408 c 2,113,-1
 183 409 l 1,114,-1
 184 409 l 1,115,116
 177 420 177 420 171 432 c 1,33,34
EndSplineSet
Validated: 33
EndChar

StartChar: quotesingle
Encoding: 39 39 10
Width: 194
GlyphClass: 2
Flags: W
LayerCount: 2
Fore
SplineSet
130 469 m 6,0,-1
 130 452 l 6,1,2
 130 445 130 445 125 442 c 5,3,4
 123 426 123 426 118 417 c 4,5,6
 110 404 110 404 96 404 c 4,7,8
 84 404 84 404 71 415 c 4,9,10
 67 418 67 418 64 424 c 4,11,12
 62 429 62 429 60 435 c 4,13,14
 56 447 56 447 51 466 c 4,15,16
 43 502 43 502 35 553 c 4,17,18
 28 602 28 602 24 641 c 5,19,20
 23 662 23 662 23 675 c 4,21,22
 22 691 22 691 25 698 c 4,23,24
 30 715 30 715 41 722 c 5,25,26
 50 729 50 729 68 729 c 4,27,28
 99 729 99 729 116 707 c 5,29,30
 130 691 130 691 134 661 c 5,31,32
 136 638 136 638 136 627 c 132,-1,33
 136 616 136 616 134.5 594 c 132,-1,34
 133 572 133 572 133 569 c 4,35,36
 133 559 133 559 132 529.5 c 132,-1,37
 131 500 131 500 130 483 c 5,38,39
 131 477 131 477 131 472 c 5,40,41
 130 470 130 470 130 469 c 6,0,-1
EndSplineSet
Validated: 1
EndChar

StartChar: parenleft
Encoding: 40 40 11
Width: 338
GlyphClass: 2
Flags: W
LayerCount: 2
Fore
SplineSet
221 738 m 0,0,1
 230 745 230 745 239 746 c 0,2,3
 257 749 257 749 269 733 c 0,4,5
 279 721 279 721 279 698 c 1,6,7
 280 683 280 683 277 666 c 0,8,9
 271 633 271 633 242 592 c 0,10,11
 202 537 202 537 198 530 c 0,12,13
 109 365 109 365 116 157 c 0,14,15
 118 102 118 102 140.5 37.5 c 128,-1,16
 163 -27 163 -27 196 -77 c 0,17,18
 197 -79 197 -79 202 -85 c 2,19,-1
 215 -101 l 1,20,21
 234 -126 234 -126 245 -144 c 0,22,23
 251 -154 251 -154 256 -163 c 0,24,25
 257 -164 257 -164 258 -166 c 0,26,27
 266 -173 266 -173 266 -184 c 0,28,29
 266 -191 266 -191 263 -196 c 1,30,31
 262 -205 262 -205 256 -210 c 1,32,33
 248 -219 248 -219 232 -219 c 0,34,35
 170 -219 170 -219 117 -123 c 0,36,37
 81 -56 81 -56 62 21 c 0,38,39
 -4 294 -4 294 134 607 c 0,40,41
 143 627 143 627 161 650 c 1,42,-1
 166 661 l 1,43,44
 191 709 191 709 211 730 c 0,45,46
 214 732 214 732 217 735 c 0,47,48
 219 736 219 736 221 738 c 0,0,1
EndSplineSet
Validated: 33
EndChar

StartChar: parenright
Encoding: 41 41 12
Width: 274
GlyphClass: 2
Flags: W
LayerCount: 2
Fore
SplineSet
89 662 m 1,0,1
 115 628 115 628 126 603 c 0,2,3
 165 513 165 513 188 420.5 c 128,-1,4
 211 328 211 328 216 227 c 0,5,6
 220 126 220 126 198 33 c 0,7,8
 182 -35 182 -35 141 -122 c 1,9,10
 115 -174 115 -174 91 -200 c 0,11,12
 58 -237 58 -237 27 -222 c 1,13,14
 7 -211 7 -211 5 -191 c 0,15,16
 3 -176 3 -176 11 -158 c 0,17,18
 16 -148 16 -148 29 -136 c 0,19,20
 40 -125 40 -125 43 -120 c 0,21,22
 84 -57 84 -57 112 16 c 0,23,24
 140 88 140 88 142 153 c 0,25,26
 149 348 149 348 90 474 c 0,27,28
 81 493 81 493 56 531 c 128,-1,29
 31 569 31 569 24 582 c 0,30,31
 -20 655 -20 655 -11 709 c 0,32,33
 -7 732 -7 732 4 741 c 0,34,35
 17 752 17 752 34 741 c 0,36,37
 53 729 53 729 78 683 c 2,38,-1
 89 662 l 1,0,1
EndSplineSet
Validated: 33
EndChar

StartChar: asterisk
Encoding: 42 42 13
Width: 394
GlyphClass: 2
Flags: W
LayerCount: 2
Fore
SplineSet
116 552 m 1,0,1
 113 555 113 555 105 556 c 128,-1,2
 97 557 97 557 74 557 c 0,3,4
 49 558 49 558 36 560 c 0,5,6
 14 564 14 564 2 576 c 1,7,8
 -21 603 -21 603 -6 625 c 0,9,10
 6 642 6 642 37 646 c 0,11,12
 87 652 87 652 129 625 c 1,13,14
 128 634 128 634 121.5 663 c 128,-1,15
 115 692 115 692 116 708 c 0,16,17
 119 735 119 735 145 745 c 0,18,19
 150 747 150 747 154 748 c 0,20,21
 159 750 159 750 164 750 c 0,22,23
 167 750 167 750 169 749 c 1,24,-1
 175 749 l 1,25,26
 188 745 188 745 196 733 c 0,27,28
 206 717 206 717 206 683 c 0,29,30
 206 677 206 677 203 631 c 1,31,-1
 203 613 l 1,32,33
 206 613 206 613 210 616 c 1,34,35
 215 618 215 618 224 624 c 2,36,-1
 241 636 l 1,37,38
 264 651 264 651 280 654 c 0,39,40
 299 657 299 657 314 646 c 0,41,42
 318 644 318 644 321 640 c 1,43,44
 323 639 323 639 324 637 c 0,45,46
 341 617 341 617 334 585 c 0,47,48
 326 551 326 551 299 543 c 0,49,50
 289 540 289 540 260 544 c 0,51,52
 246 546 246 546 241 545 c 1,53,-1
 243 541 l 2,54,55
 246 537 246 537 254 528 c 0,56,57
 264 518 264 518 268 512 c 0,58,59
 286 489 286 489 288 470 c 0,60,61
 290 442 290 442 262 420 c 0,62,63
 235 399 235 399 214 411 c 0,64,65
 199 419 199 419 188 445 c 0,66,67
 185 452 185 452 180 466 c 0,68,69
 176 479 176 479 174 483 c 0,70,71
 171 492 171 492 168 496 c 2,72,-1
 167 497 l 1,73,74
 165 495 165 495 162 489 c 0,75,76
 159 484 159 484 153 471 c 2,77,-1
 142 449 l 2,78,79
 127 420 127 420 111 410 c 0,80,81
 86 394 86 394 57 415 c 0,82,83
 27 437 27 437 36 467 c 0,84,85
 42 486 42 486 68 509 c 2,86,-1
 89 527 l 2,87,88
 101 537 101 537 106 542 c 0,89,90
 114 548 114 548 116 552 c 1,0,1
71 475 m 1,91,92
 71 475 71 475 72 475 c 1,93,-1
 72 476 l 1,94,-1
 71 475 l 1,91,92
EndSplineSet
Validated: 33
EndChar

StartChar: plus
Encoding: 43 43 14
Width: 583
GlyphClass: 2
Flags: W
LayerCount: 2
Fore
SplineSet
326 196 m 1,0,-1
 326 195 l 1,1,2
 325 191 325 191 326 184 c 0,3,4
 327 173 327 173 330 152 c 0,5,6
 339 98 339 98 339 94 c 0,7,8
 341 40 341 40 339 30 c 0,9,10
 336 9 336 9 327 -4 c 0,11,12
 315 -20 315 -20 293 -22 c 0,13,14
 258 -24 258 -24 238 -8 c 0,15,16
 220 7 220 7 219 47 c 0,17,18
 219 62 219 62 224 117 c 0,19,20
 228 161 228 161 226 180 c 0,21,22
 224 203 224 203 213.5 206.5 c 128,-1,23
 203 210 203 210 174 207 c 0,24,25
 164 205 164 205 143 201.5 c 128,-1,26
 122 198 122 198 114 196 c 0,27,28
 75 190 75 190 53 192 c 0,29,30
 19 196 19 196 9 220 c 0,31,32
 8 223 8 223 7 230 c 1,33,-1
 7 239 l 1,34,-1
 7 255 l 2,35,36
 7 301 7 301 45 313 c 0,37,38
 70 321 70 321 118 313 c 0,39,40
 120 313 120 313 155 307 c 0,41,42
 177 303 177 303 189 302 c 0,43,44
 216 300 216 300 221 308 c 0,45,46
 226 317 226 317 221 349 c 0,47,48
 219 360 219 360 214.5 383 c 128,-1,49
 210 406 210 406 209 417 c 0,50,51
 202 461 202 461 208 484 c 0,52,53
 218 520 218 520 256 523 c 0,54,55
 273 524 273 524 279 524 c 0,56,57
 296 524 296 524 306 520 c 128,-1,58
 316 516 316 516 319 501 c 0,59,60
 322 491 322 491 322 476 c 0,61,62
 323 453 323 453 322 409 c 0,63,64
 321 402 321 402 320 376 c 128,-1,65
 319 350 319 350 319 338 c 0,66,67
 318 313 318 313 319 301 c 1,68,69
 321 300 321 300 324 298 c 0,70,71
 344 291 344 291 389 302 c 0,72,73
 463 320 463 320 467 320 c 0,74,75
 488 322 488 322 501 316 c 0,76,77
 518 307 518 307 522 285 c 0,78,79
 532 229 532 229 500 206 c 0,80,81
 477 189 477 189 429 190 c 0,82,83
 414 191 414 191 391 193 c 0,84,85
 361 196 361 196 356 197 c 0,86,87
 340 198 340 198 332 197 c 0,88,89
 327 196 327 196 326 196 c 1,0,-1
EndSplineSet
Validated: 33
EndChar

StartChar: comma
Encoding: 44 44 15
Width: 243
GlyphClass: 2
Flags: W
LayerCount: 2
Fore
SplineSet
91 -14 m 1,0,1
 62 -18 62 -18 41 -7 c 1,2,3
 11 7 11 7 7 41 c 0,4,5
 3 73 3 73 23.5 101 c 128,-1,6
 44 129 44 129 83 136 c 0,7,8
 133 144 133 144 161 106 c 1,9,10
 186 74 186 74 184 23 c 0,11,12
 183 -26 183 -26 156 -68 c 128,-1,13
 129 -110 129 -110 80 -118 c 0,14,15
 79 -118 79 -118 73 -120 c 0,16,17
 66 -122 66 -122 62 -123 c 0,18,19
 40 -127 40 -127 32 -111 c 0,20,21
 25 -98 25 -98 37 -87 c 2,22,-1
 41 -83 l 1,23,-1
 43 -82 l 1,24,25
 49 -75 49 -75 60 -63.5 c 128,-1,26
 71 -52 71 -52 75.5 -46.5 c 128,-1,27
 80 -41 80 -41 85 -32 c 128,-1,28
 90 -23 90 -23 91 -14 c 1,0,1
EndSplineSet
Validated: 37
EndChar

StartChar: hyphen
Encoding: 45 45 16
Width: 348
GlyphClass: 2
Flags: W
LayerCount: 2
Fore
SplineSet
90 330 m 1,0,1
 126 332 126 332 159 333 c 0,2,3
 205 335 205 335 234 333 c 0,4,5
 251 332 251 332 261 329 c 0,6,7
 277 325 277 325 282 317 c 0,8,9
 292 301 292 301 287.5 272 c 128,-1,10
 283 243 283 243 268 231 c 0,11,12
 257 222 257 222 223 216 c 0,13,14
 197 211 197 211 158 207 c 0,15,16
 83 201 83 201 45 203 c 0,17,18
 25 204 25 204 12.5 220.5 c 128,-1,19
 0 237 0 237 -4 258 c 0,20,21
 -7 278 -7 278 -4 296 c 0,22,23
 0 317 0 317 13 327 c 1,24,-1
 19 329 l 2,25,26
 21 329 21 329 23 330 c 1,27,-1
 31 330 l 1,28,29
 40 331 40 331 56 330 c 1,30,-1
 90 330 l 1,0,1
EndSplineSet
Validated: 33
EndChar

StartChar: period
Encoding: 46 46 17
Width: 223
GlyphClass: 2
Flags: W
LayerCount: 2
Fore
SplineSet
32 103 m 0,0,1
 46 122 46 122 64 132 c 0,2,3
 88 144 88 144 113 136 c 1,4,5
 135 132 135 132 149 116 c 0,6,7
 168 94 168 94 164 61 c 0,8,9
 162 39 162 39 149.5 18 c 128,-1,10
 137 -3 137 -3 116 -13 c 1,11,12
 97 -25 97 -25 76 -23 c 0,13,14
 29 -19 29 -19 15 21 c 0,15,16
 5 50 5 50 21 85 c 1,17,-1
 27 95 l 2,18,19
 29 100 29 100 32 103 c 0,0,1
EndSplineSet
Validated: 33
EndChar

StartChar: slash
Encoding: 47 47 18
Width: 343
GlyphClass: 2
Flags: W
LayerCount: 2
Fore
SplineSet
168 634 m 0,0,1
 174 663 174 663 180 682 c 0,2,3
 190 719 190 719 201 730 c 0,4,5
 220 750 220 750 242 739 c 1,6,7
 255 734 255 734 269 716 c 0,8,9
 279 704 279 704 280 703 c 0,10,11
 282 698 282 698 284 683 c 0,12,13
 289 638 289 638 257 579 c 1,14,-1
 240 549 l 1,15,-1
 222 516 l 2,16,17
 215 502 215 502 210 489 c 2,18,-1
 188 426 l 2,19,20
 178 395 178 395 167 358 c 2,21,-1
 150 298 l 1,22,-1
 130 228 l 1,23,24
 118 182 118 182 114 165 c 1,25,26
 110 154 110 154 106 118 c 0,27,28
 101 77 101 77 97 58 c 0,29,30
 90 22 90 22 77 4 c 0,31,32
 58 -22 58 -22 28 -19 c 0,33,34
 2 -16 2 -16 -11 0 c 0,35,36
 -23 15 -23 15 -18 45 c 0,37,38
 -14 66 -14 66 -2 97 c 0,39,40
 6 116 6 116 21 147 c 1,41,42
 33 175 33 175 36 181 c 0,43,44
 94 343 94 343 166 627 c 0,45,46
 167 630 167 630 168 634 c 0,0,1
EndSplineSet
Validated: 33
EndChar

StartChar: zero
Encoding: 48 48 19
Width: 543
GlyphClass: 2
Flags: W
LayerCount: 2
Fore
SplineSet
213 710 m 1,0,1
 311 738 311 738 392 656 c 1,2,3
 459 590 459 590 479 419 c 0,4,5
 487 349 487 349 483.5 279.5 c 128,-1,6
 480 210 480 210 465 166 c 0,7,8
 446 108 446 108 400.5 59 c 128,-1,9
 355 10 355 10 299 -4 c 0,10,11
 270 -12 270 -12 236 -10 c 128,-1,12
 202 -8 202 -8 175 2 c 0,13,14
 85 34 85 34 38 114 c 0,15,16
 -8 193 -8 193 -12 295 c 0,17,18
 -16 390 -16 390 16 484 c 0,19,20
 47 577 47 577 104 638 c 1,21,-1
 115 649 l 2,22,23
 130 664 130 664 146 676 c 0,24,25
 181 702 181 702 213 710 c 1,0,1
283 25 m 2,26,-1
 279 24 l 2,27,28
 281 24 281 24 283 25 c 2,26,-1
209 537 m 0,29,30
 166 516 166 516 143 446 c 0,31,32
 120 377 120 377 126 298 c 0,33,34
 133 216 133 216 167 171 c 1,35,36
 204 124 204 124 263 137 c 0,37,38
 310 147 310 147 336 199.5 c 128,-1,39
 362 252 362 252 361 326 c 0,40,41
 361 399 361 399 335.5 457.5 c 128,-1,42
 310 516 310 516 269 533 c 0,43,44
 238 546 238 546 219 543 c 1,45,-1
 216 543 l 1,46,47
 213 539 213 539 209 537 c 0,29,30
EndSplineSet
Validated: 33
EndChar

StartChar: one
Encoding: 49 49 20
Width: 376
GlyphClass: 2
Flags: W
LayerCount: 2
Fore
SplineSet
289 698 m 1,0,1
 308 675 308 675 314 624 c 0,2,3
 320 580 320 580 316 510 c 0,4,5
 314 483 314 483 305 394 c 0,6,7
 298 326 298 326 297 312 c 0,8,9
 294 250 294 250 294 119 c 0,10,11
 294 114 294 114 295 96 c 128,-1,12
 296 78 296 78 295.5 60.5 c 128,-1,13
 295 43 295 43 294 29 c 0,14,15
 285 -41 285 -41 236 -50 c 0,16,17
 197 -57 197 -57 161 -41.5 c 128,-1,18
 125 -26 125 -26 115 14 c 0,19,20
 109 34 109 34 113 80 c 1,21,22
 115 115 115 115 123 171 c 0,23,24
 127 202 127 202 132 230 c 2,25,-1
 144 291 l 2,26,27
 149 320 149 320 150 330 c 0,28,29
 153 347 153 347 160 375 c 0,30,31
 169 408 169 408 171 418 c 0,32,33
 175 439 175 439 176 456 c 1,34,35
 143 432 143 432 113 421 c 0,36,37
 76 408 76 408 46 414 c 0,38,39
 10 422 10 422 -11 458 c 0,40,41
 -23 478 -23 478 -24.5 505.5 c 128,-1,42
 -26 533 -26 533 -17 556 c 1,43,44
 -6 579 -6 579 20 582 c 0,45,46
 26 583 26 583 60 582 c 0,47,48
 111 580 111 580 143 616 c 0,49,50
 148 621 148 621 162 645 c 1,51,52
 180 672 180 672 191 686 c 0,53,54
 211 710 211 710 230 717 c 0,55,56
 245 722 245 722 260 718 c 1,57,58
 282 719 282 719 289 698 c 1,0,1
EndSplineSet
Validated: 33
EndChar

StartChar: two
Encoding: 50 50 21
Width: 557
GlyphClass: 2
Flags: W
LayerCount: 2
Fore
SplineSet
152 483 m 1,0,1
 137 439 137 439 128 422 c 0,2,3
 103 373 103 373 61 363 c 0,4,5
 19 354 19 354 -3 370 c 0,6,7
 -53 409 -53 409 -25 485 c 0,8,9
 -6 538 -6 538 34 580 c 0,10,11
 69 616 69 616 121 644.5 c 128,-1,12
 173 673 173 673 228 685 c 0,13,14
 363 714 363 714 438 632 c 1,15,16
 515 546 515 546 494 461 c 0,17,18
 479 399 479 399 402 324 c 0,19,20
 386 308 386 308 336 264 c 0,21,22
 294 227 294 227 274 207 c 0,23,24
 222 154 222 154 215 114 c 1,25,26
 272 113 272 113 313 123 c 0,27,28
 319 125 319 125 342 132 c 1,29,30
 364 140 364 140 378 143 c 0,31,32
 428 155 428 155 455 141 c 0,33,34
 481 128 481 128 488.5 103 c 128,-1,35
 496 78 496 78 487 57 c 1,36,37
 480 35 480 35 464 16.5 c 128,-1,38
 448 -2 448 -2 429 -10 c 0,39,40
 372 -32 372 -32 279 -22 c 0,41,42
 262 -21 262 -21 232 -17 c 128,-1,43
 202 -13 202 -13 179.5 -10.5 c 128,-1,44
 157 -8 157 -8 137 -8 c 0,45,46
 135 -8 135 -8 107.5 -9 c 128,-1,47
 80 -10 80 -10 62 -10 c 0,48,49
 35 -9 35 -9 19 -6 c 0,50,51
 8 -4 8 -4 0 0 c 0,52,53
 -11 5 -11 5 -15 15 c 0,54,55
 -34 63 -34 63 7 123 c 0,56,57
 33 160 33 160 79 197 c 0,58,59
 107 220 107 220 164 257 c 1,60,61
 221 296 221 296 246 315 c 0,62,63
 267 331 267 331 282 347 c 1,64,65
 320 393 320 393 336 444 c 0,66,67
 358 513 358 513 345 556 c 1,68,69
 328 583 328 583 293 588 c 0,70,71
 268 592 268 592 248 590 c 1,72,-1
 245 589 l 1,73,74
 218 582 218 582 202 564 c 128,-1,75
 186 546 186 546 167 510 c 2,76,-1
 152 483 l 1,0,1
16 28 m 1,77,78
 14 30 14 30 13 33 c 1,79,80
 13 31 13 31 14 29 c 0,81,82
 15 28 15 28 16 28 c 1,77,78
EndSplineSet
Validated: 33
EndChar

StartChar: three
Encoding: 51 51 22
Width: 557
GlyphClass: 2
Flags: W
LayerCount: 2
Fore
SplineSet
202 317 m 1,0,1
 198 317 198 317 194 318 c 0,2,3
 179 322 179 322 170 333 c 0,4,5
 160 346 160 346 162 365 c 0,6,7
 165 385 165 385 188 416 c 0,8,9
 199 431 199 431 221 434 c 0,10,11
 224 435 224 435 232 436 c 1,12,-1
 236 436 l 1,13,14
 256 441 256 441 267 442 c 1,15,-1
 275 442 l 1,16,-1
 276 442 l 2,17,18
 279 442 279 442 311 456 c 1,19,20
 344 481 344 481 361 514 c 0,21,22
 381 552 381 552 370 581 c 0,23,24
 357 614 357 614 303 627 c 0,25,26
 244 642 244 642 215 621 c 0,27,28
 194 607 194 607 179 564 c 0,29,30
 177 559 177 559 172 545 c 2,31,-1
 166 524 l 2,32,33
 163 516 163 516 157.5 505 c 128,-1,34
 152 494 152 494 147 486 c 0,35,36
 119 443 119 443 66 443 c 0,37,38
 42 443 42 443 27 460 c 128,-1,39
 12 477 12 477 5 501 c 0,40,41
 -10 550 -10 550 7 582 c 0,42,43
 29 626 29 626 59 649 c 0,44,45
 100 682 100 682 152 701 c 1,46,47
 157 704 157 704 163 705 c 0,48,49
 219 723 219 723 275 721 c 0,50,51
 337 719 337 719 387 691 c 128,-1,52
 437 663 437 663 464 607 c 1,53,54
 494 548 494 548 486 494 c 0,55,56
 480 452 480 452 423 412 c 0,57,58
 415 407 415 407 388 389 c 1,59,-1
 386 388 l 1,60,-1
 400 382 l 1,61,62
 445 360 445 360 468 327 c 0,63,64
 507 273 507 273 496 181 c 0,65,66
 485 93 485 93 439 44 c 0,67,68
 435 40 435 40 430 36 c 1,69,70
 426 31 426 31 420 28 c 1,71,72
 363 -13 363 -13 264 -27 c 0,73,74
 136 -44 136 -44 78 3 c 0,75,76
 57 20 57 20 37.5 50 c 128,-1,77
 18 80 18 80 7 113 c 0,78,79
 -21 198 -21 198 21 245 c 0,80,81
 37 262 37 262 59.5 270.5 c 128,-1,82
 82 279 82 279 105 276 c 0,83,84
 129 273 129 273 147 256.5 c 128,-1,85
 165 240 165 240 169 212 c 0,86,87
 172 192 172 192 168 159 c 0,88,89
 163 122 163 122 163 112 c 0,90,91
 164 102 164 102 165 94 c 1,92,93
 169 86 169 86 173 79 c 1,94,95
 184 68 184 68 207 63 c 0,96,97
 251 53 251 53 291 74 c 0,98,99
 317 88 317 88 336 115.5 c 128,-1,100
 355 143 355 143 362 176 c 0,101,102
 377 249 377 249 331 292 c 0,103,104
 322 301 322 301 299 303 c 0,105,106
 290 304 290 304 274 304 c 0,107,108
 255 305 255 305 248 305 c 0,109,110
 218 307 218 307 202 317 c 1,0,1
EndSplineSet
Validated: 33
EndChar

StartChar: four
Encoding: 52 52 23
Width: 611
GlyphClass: 2
Flags: W
LayerCount: 2
Fore
SplineSet
305 248 m 1,0,1
 306 251 306 251 308 255 c 0,2,3
 311 266 311 266 313 283 c 0,4,5
 318 318 318 318 319 368 c 0,6,7
 320 417 320 417 317 454 c 0,8,9
 315 472 315 472 313 484 c 1,10,-1
 310 493 l 1,11,12
 308 495 308 495 301 496 c 1,13,-1
 300 496 l 1,14,15
 295 489 295 489 261 449 c 0,16,17
 225 406 225 406 210 386 c 0,18,19
 149 308 149 308 146 272 c 1,20,-1
 146 271 l 2,21,22
 146 270 146 270 150 267 c 128,-1,23
 154 264 154 264 161 261 c 0,24,25
 180 253 180 253 215 248 c 0,26,27
 248 243 248 243 275 244 c 0,28,29
 288 244 288 244 297 246 c 0,30,31
 302 247 302 247 305 248 c 1,0,1
19 129 m 0,32,33
 11 133 11 133 4 138 c 0,34,35
 -11 151 -11 151 -16 169 c 1,36,37
 -22 176 -22 176 -24 184 c 0,38,39
 -30 204 -30 204 -20 234 c 0,40,41
 -11 259 -11 259 9 294 c 0,42,43
 41 350 41 350 108 435 c 2,44,-1
 221 576 l 1,45,46
 284 653 284 653 300 676 c 0,47,48
 303 680 303 680 307 682 c 1,49,-1
 312 687 l 2,50,51
 355 729 355 729 401 704 c 0,52,53
 427 691 427 691 434 655 c 1,54,55
 440 630 440 630 435 591 c 0,56,57
 433 568 433 568 425 527 c 0,58,59
 417 488 417 488 416 478 c 0,60,61
 404 378 404 378 425 297 c 0,62,63
 426 294 426 294 437 293 c 0,64,65
 443 292 443 292 455 291 c 1,66,-1
 478 291 l 1,67,68
 510 289 510 289 526 278 c 0,69,70
 552 262 552 262 552 226 c 0,71,72
 552 193 552 193 533 172 c 0,73,74
 518 156 518 156 492 148 c 0,75,76
 483 145 483 145 456 140 c 1,77,-1
 455 140 l 1,78,-1
 458 135 l 1,79,80
 468 110 468 110 473 94 c 0,81,82
 493 28 493 28 465 -10 c 0,83,84
 441 -41 441 -41 395 -42 c 0,85,86
 325 -44 325 -44 298 -15 c 0,87,88
 275 9 275 9 281 54 c 0,89,90
 282 66 282 66 287 87 c 0,91,92
 291 108 291 108 293 116 c 1,93,94
 294 126 294 126 293 131 c 1,95,96
 224 118 224 118 168 113 c 0,97,98
 104 107 104 107 64 114 c 0,99,100
 37 118 37 118 19 129 c 0,32,33
EndSplineSet
Validated: 33
EndChar

StartChar: five
Encoding: 53 53 24
Width: 569
GlyphClass: 2
Flags: W
LayerCount: 2
Fore
SplineSet
151 412 m 1,0,-1
 153 412 l 1,1,-1
 152 413 l 1,2,-1
 151 413 l 1,3,-1
 151 412 l 1,0,-1
38 386 m 1,4,5
 43 410 43 410 52 438 c 1,6,7
 60 479 60 479 66 498 c 0,8,9
 67 504 67 504 73 536 c 0,10,11
 81 581 81 581 84 591 c 1,12,13
 90 626 90 626 96 646 c 0,14,15
 97 649 97 649 98 652 c 1,16,17
 98 664 98 664 107 673 c 1,18,19
 112 680 112 680 116 684 c 1,20,-1
 121 687 l 2,21,22
 122 687 122 687 122 688 c 1,23,-1
 124 688 l 1,24,-1
 125 688 l 1,25,-1
 127 688 l 1,26,27
 130 689 130 689 136 689 c 2,28,-1
 167 692 l 1,29,-1
 261 701 l 2,30,31
 331 708 331 708 359 710 c 0,32,33
 407 714 407 714 414 713 c 0,34,35
 442 710 442 710 459 694 c 0,36,37
 487 667 487 667 473 626 c 1,38,39
 459 589 459 589 424 579 c 0,40,41
 418 577 418 577 411 575.5 c 128,-1,42
 404 574 404 574 396 573.5 c 128,-1,43
 388 573 388 573 382.5 572.5 c 128,-1,44
 377 572 377 572 368 572 c 2,45,-1
 354 572 l 2,46,47
 349 572 349 572 338.5 573.5 c 128,-1,48
 328 575 328 575 325 575 c 128,-1,49
 322 575 322 575 310.5 576.5 c 128,-1,50
 299 578 299 578 297 578 c 0,51,52
 249 584 249 584 224 581 c 1,53,-1
 222 581 l 1,54,55
 205 574 205 574 199 567 c 0,56,57
 178 541 178 541 164 496 c 0,58,59
 156 473 156 473 157 458 c 0,60,61
 158 445 158 445 166 441 c 1,62,-1
 172 441 l 2,63,64
 180 441 180 441 195 442 c 0,65,66
 202 443 202 443 226 444.5 c 128,-1,67
 250 446 250 446 264 447 c 0,68,69
 372 452 372 452 414 434 c 1,70,71
 477 405 477 405 498 347 c 128,-1,72
 519 289 519 289 504 221 c 0,73,74
 491 159 491 159 453 102.5 c 128,-1,75
 415 46 415 46 367 19 c 0,76,77
 322 -6 322 -6 260 -7.5 c 128,-1,78
 198 -9 198 -9 146 11 c 1,79,-1
 144 11 l 2,80,81
 132 11 132 11 124 20 c 1,82,83
 116 23 116 23 108 27 c 0,84,85
 44 61 44 61 25 111 c 0,86,87
 3 169 3 169 52 229 c 0,88,89
 69 250 69 250 99 257 c 0,90,91
 136 265 136 265 156 239 c 0,92,93
 169 221 169 221 182 184 c 0,94,95
 197 143 197 143 203 132 c 0,96,97
 216 109 216 109 233 101 c 0,98,99
 255 91 255 91 292 100 c 0,100,101
 348 115 348 115 371 157 c 0,102,103
 387 185 387 185 393 211 c 1,104,105
 394 243 394 243 382 273 c 0,106,107
 368 311 368 311 338.5 333 c 128,-1,108
 309 355 309 355 268 353 c 0,109,110
 255 352 255 352 171 330 c 1,111,-1
 113 313 l 1,112,-1
 94 308 l 1,113,-1
 89 307 l 1,114,-1
 88 306 l 1,115,-1
 87 306 l 1,116,-1
 86 306 l 1,117,-1
 85 306 l 1,118,119
 84 305 84 305 83 305 c 2,120,-1
 80 305 l 2,121,122
 74 305 74 305 68 307 c 0,123,124
 39 318 39 318 32 344 c 0,125,126
 27 363 27 363 38 386 c 1,4,5
EndSplineSet
Validated: 33
EndChar

StartChar: six
Encoding: 54 54 25
Width: 547
GlyphClass: 2
Flags: W
LayerCount: 2
Fore
SplineSet
150 491 m 1,0,1
 136 451 136 451 132 408 c 1,2,-1
 135 411 l 1,3,4
 169 440 169 440 192 450 c 0,5,6
 232 467 232 467 275.5 470 c 128,-1,7
 319 473 319 473 362 459 c 128,-1,8
 405 445 405 445 436 413 c 1,9,10
 499 351 499 351 486 241 c 0,11,12
 485 237 485 237 483.5 220.5 c 128,-1,13
 482 204 482 204 481 194.5 c 128,-1,14
 480 185 480 185 476.5 171 c 128,-1,15
 473 157 473 157 467 147 c 0,16,17
 442 97 442 97 393.5 60 c 128,-1,18
 345 23 345 23 290 8 c 128,-1,19
 235 -7 235 -7 176 5 c 128,-1,20
 117 17 117 17 73 60 c 0,21,22
 29 102 29 102 5 161.5 c 128,-1,23
 -19 221 -19 221 -19.5 281.5 c 128,-1,24
 -20 342 -20 342 -6 406 c 1,25,26
 18 501 18 501 76 579 c 128,-1,27
 134 657 134 657 214 692 c 0,28,29
 247 706 247 706 294 708.5 c 128,-1,30
 341 711 341 711 382 699 c 1,31,32
 430 683 430 683 447 650 c 0,33,34
 468 610 468 610 442 556 c 1,35,36
 421 510 421 510 389 508 c 0,37,38
 366 506 366 506 336 533 c 0,39,40
 329 539 329 539 315 554 c 0,41,42
 301 568 301 568 293 575 c 0,43,44
 272 594 272 594 258 595 c 0,45,46
 199 598 199 598 162 522 c 1,47,-1
 156 508 l 1,48,49
 155 501 155 501 152 495 c 2,50,-1
 150 491 l 1,0,1
171 332 m 1,51,52
 143 312 143 312 131 280 c 128,-1,53
 119 248 119 248 124 214 c 0,54,55
 130 174 130 174 158 147 c 128,-1,56
 186 120 186 120 232 118 c 0,57,58
 264 117 264 117 284 129 c 0,59,60
 316 149 316 149 332 174 c 0,61,62
 349 199 349 199 355 236 c 0,63,64
 364 289 364 289 348 320 c 1,65,66
 331 350 331 350 300 359 c 1,67,68
 273 368 273 368 238.5 361 c 128,-1,69
 204 354 204 354 171 332 c 1,51,52
EndSplineSet
Validated: 33
EndChar

StartChar: seven
Encoding: 55 55 26
Width: 527
GlyphClass: 2
Flags: W
LayerCount: 2
Fore
SplineSet
125 198 m 1,0,-1
 191 313 l 2,1,2
 257 429 257 429 281 474 c 0,3,4
 300 511 300 511 309 535 c 0,5,6
 318 557 318 557 317 565 c 0,7,8
 317 566 317 566 316 568 c 1,9,10
 253 573 253 573 151 548 c 0,11,12
 147 548 147 548 138 545 c 0,13,14
 128 542 128 542 123 540 c 0,15,16
 100 535 100 535 86 539 c 0,17,18
 56 547 56 547 42.5 566.5 c 128,-1,19
 29 586 29 586 33 610 c 0,20,21
 37 631 37 631 52 649.5 c 128,-1,22
 67 668 67 668 88 678 c 0,23,24
 97 683 97 683 119 685 c 0,25,26
 136 687 136 687 163 687 c 0,27,28
 214 688 214 688 278 682 c 1,29,30
 344 677 344 677 391 668 c 0,31,32
 416 663 416 663 432 657 c 0,33,34
 453 650 453 650 460 641 c 0,35,36
 475 624 475 624 463 593 c 0,37,38
 455 574 455 574 436 547 c 0,39,40
 426 532 426 532 403 503 c 0,41,42
 385 481 385 481 382 475 c 0,43,44
 301 333 301 333 264 196 c 0,45,46
 262 187 262 187 254 154 c 128,-1,47
 246 121 246 121 241 104 c 128,-1,48
 236 87 236 87 226.5 61.5 c 128,-1,49
 217 36 217 36 206 17 c 0,50,51
 191 -9 191 -9 167.5 -16.5 c 128,-1,52
 144 -24 144 -24 122 -15 c 0,53,54
 102 -7 102 -7 86 10.5 c 128,-1,55
 70 28 70 28 64 50 c 0,56,57
 61 58 61 58 64 71 c 0,58,59
 66 80 66 80 72 94 c 0,60,61
 74 101 74 101 78 109 c 0,62,63
 93 149 93 149 125 198 c 1,0,-1
EndSplineSet
Validated: 33
EndChar

StartChar: eight
Encoding: 56 56 27
Width: 549
GlyphClass: 2
Flags: W
LayerCount: 2
Fore
SplineSet
368 407 m 1,0,1
 414 385 414 385 452 338 c 0,2,3
 503 277 503 277 487 182 c 0,4,5
 473 95 473 95 416 40 c 0,6,7
 393 17 393 17 328 -11 c 0,8,9
 285 -29 285 -29 239.5 -31 c 128,-1,10
 194 -33 194 -33 153 -18.5 c 128,-1,11
 112 -4 112 -4 78.5 22.5 c 128,-1,12
 45 49 45 49 24 89 c 128,-1,13
 3 129 3 129 -1 177 c 0,14,15
 -6 246 -6 246 4 275 c 0,16,17
 15 308 15 308 36.5 333 c 128,-1,18
 58 358 58 358 90 386 c 1,19,20
 54 411 54 411 36.5 445 c 128,-1,21
 19 479 19 479 20 513.5 c 128,-1,22
 21 548 21 548 37 582 c 0,23,24
 62 637 62 637 117.5 670.5 c 128,-1,25
 173 704 173 704 239 699 c 0,26,27
 319 692 319 692 375 637 c 0,28,29
 438 575 438 575 420 494 c 0,30,31
 415 476 415 476 402.5 452.5 c 128,-1,32
 390 429 390 429 377 414 c 0,33,34
 376 413 376 413 371 409 c 2,35,-1
 368 407 l 1,0,1
203 582 m 0,36,37
 176 570 176 570 158.5 555 c 128,-1,38
 141 540 141 540 135 525.5 c 128,-1,39
 129 511 129 511 129.5 498 c 128,-1,40
 130 485 130 485 136 474 c 0,41,42
 149 448 149 448 181.5 438.5 c 128,-1,43
 214 429 214 429 260 446 c 1,44,45
 303 464 303 464 314 497 c 0,46,47
 323 525 323 525 306 552 c 0,48,49
 293 573 293 573 269.5 584 c 128,-1,50
 246 595 246 595 218 591 c 1,51,-1
 209 587 l 1,52,53
 207 584 207 584 203 582 c 0,36,37
234 324 m 0,54,55
 169 306 169 306 143 257 c 128,-1,56
 117 208 117 208 130 156 c 0,57,58
 143 106 143 106 182 86 c 0,59,60
 225 65 225 65 282 97 c 0,61,62
 316 116 316 116 333 147.5 c 128,-1,63
 350 179 350 179 349 211.5 c 128,-1,64
 348 244 348 244 333 272 c 0,65,66
 310 316 310 316 267 325 c 0,67,68
 253 327 253 327 238 325 c 0,69,70
 236 324 236 324 234 324 c 0,54,55
EndSplineSet
Validated: 33
EndChar

StartChar: nine
Encoding: 57 57 28
Width: 545
GlyphClass: 2
Flags: W
LayerCount: 2
Fore
SplineSet
69 113 m 1,0,1
 66 116 66 116 66 117 c 1,2,3
 63 113 63 113 69 113 c 1,0,1
70 632 m 1,4,5
 119 682 119 682 193 691 c 1,6,7
 277 711 277 711 357.5 663 c 128,-1,8
 438 615 438 615 465 531 c 0,9,10
 489 457 489 457 485.5 371.5 c 128,-1,11
 482 286 482 286 451 208 c 0,12,13
 419 127 419 127 360 69.5 c 128,-1,14
 301 12 301 12 220 -7 c 0,15,16
 122 -29 122 -29 66 4 c 0,17,18
 41 19 41 19 24.5 50 c 128,-1,19
 8 81 8 81 6 114 c 0,20,21
 3 151 3 151 19 176 c 0,22,23
 39 206 39 206 79 209 c 0,24,25
 96 210 96 210 114 197 c 0,26,27
 126 189 126 189 143 171 c 0,28,29
 180 132 180 132 192 126 c 1,30,31
 234 109 234 109 266 121 c 128,-1,32
 298 133 298 133 321 168 c 0,33,34
 342 200 342 200 349 238.5 c 128,-1,35
 356 277 356 277 347 311 c 1,36,37
 293 275 293 275 237.5 263.5 c 128,-1,38
 182 252 182 252 133 267 c 0,39,40
 79 284 79 284 46 332 c 0,41,42
 12 380 12 380 6 455 c 0,43,44
 -1 539 -1 539 29 583 c 2,45,-1
 31 586 l 1,46,47
 46 612 46 612 70 632 c 1,4,5
199 582 m 0,48,49
 167 577 167 577 145.5 548 c 128,-1,50
 124 519 124 519 122 479 c 0,51,52
 120 438 120 438 138.5 406.5 c 128,-1,53
 157 375 157 375 195 364 c 1,54,55
 220 358 220 358 240 366 c 0,56,57
 292 388 292 388 310.5 433.5 c 128,-1,58
 329 479 329 479 313 523 c 0,59,60
 300 561 300 561 270 579 c 1,61,62
 239 590 239 590 206 585 c 1,63,64
 203 583 203 583 199 582 c 0,48,49
EndSplineSet
Validated: 33
EndChar

StartChar: colon
Encoding: 58 58 29
Width: 287
GlyphClass: 2
Flags: W
LayerCount: 2
Fore
SplineSet
103 396 m 1,0,-1
 97 400 l 1,1,2
 75 418 75 418 76 449 c 128,-1,3
 77 480 77 480 100 502 c 128,-1,4
 123 524 123 524 161 520 c 0,5,6
 178 518 178 518 189 514 c 0,7,8
 209 508 209 508 218 495 c 0,9,10
 232 473 232 473 227.5 452 c 128,-1,11
 223 431 223 431 209.5 415 c 128,-1,12
 196 399 196 399 178 390 c 0,13,14
 146 374 146 374 119 385 c 0,15,16
 110 389 110 389 103 396 c 1,0,-1
70 17 m 1,17,18
 60 20 60 20 60 30 c 0,19,20
 60 79 60 79 87 104.5 c 128,-1,21
 114 130 114 130 151 128 c 0,22,23
 186 126 186 126 209.5 100 c 128,-1,24
 233 74 233 74 223 35 c 0,25,26
 213 -1 213 -1 181.5 -17 c 128,-1,27
 150 -33 150 -33 118 -26 c 0,28,29
 83 -18 83 -18 71 12 c 0,30,31
 70 15 70 15 70 17 c 1,17,18
EndSplineSet
Validated: 33
EndChar

StartChar: semicolon
Encoding: 59 59 30
Width: 289
GlyphClass: 2
Flags: W
LayerCount: 2
Fore
SplineSet
64 389 m 1,0,1
 39 406 39 406 39 439 c 1,2,3
 38 471 38 471 60.5 496 c 128,-1,4
 83 521 83 521 122 520 c 0,5,6
 175 519 175 519 193 489 c 0,7,8
 212 458 212 458 192 420 c 0,9,10
 175 387 175 387 143 370 c 0,11,12
 105 351 105 351 79 371 c 0,13,14
 70 378 70 378 64 389 c 1,0,1
137 -31 m 1,15,16
 108 -35 108 -35 87 -24 c 1,17,18
 57 -10 57 -10 53 24 c 0,19,20
 49 56 49 56 69.5 84 c 128,-1,21
 90 112 90 112 129 119 c 0,22,23
 179 127 179 127 207 89 c 1,24,25
 232 57 232 57 230 6 c 0,26,27
 229 -43 229 -43 202 -85 c 128,-1,28
 175 -127 175 -127 126 -135 c 0,29,30
 125 -135 125 -135 119 -137 c 0,31,32
 112 -139 112 -139 108 -140 c 0,33,34
 86 -144 86 -144 78 -128 c 0,35,36
 71 -115 71 -115 83 -104 c 2,37,-1
 87 -100 l 1,38,-1
 89 -99 l 1,39,40
 95 -92 95 -92 106 -80.5 c 128,-1,41
 117 -69 117 -69 121.5 -63.5 c 128,-1,42
 126 -58 126 -58 131 -49 c 128,-1,43
 136 -40 136 -40 137 -31 c 1,15,16
EndSplineSet
Validated: 33
EndChar

StartChar: less
Encoding: 60 60 31
Width: 672
GlyphClass: 2
Flags: W
LayerCount: 2
Fore
SplineSet
234 158 m 1,0,-1
 268 143 l 2,1,2
 302 129 302 129 340 115 c 2,3,-1
 415 88 l 1,4,-1
 455 75 l 2,5,6
 491 63 491 63 519 45 c 0,7,8
 540 32 540 32 549 20 c 0,9,10
 556 11 556 11 556 2 c 0,11,12
 557 -9 557 -9 549 -19 c 0,13,14
 519 -52 519 -52 447 -36 c 0,15,16
 393 -24 393 -24 311 16 c 0,17,18
 255 44 255 44 175 92 c 1,19,20
 89 142 89 142 81 146 c 0,21,22
 34 171 34 171 10 189 c 0,23,24
 -39 226 -39 226 -39 261 c 0,25,26
 -39 295 -39 295 7 320 c 0,27,28
 18 325 18 325 71 345 c 0,29,30
 166 380 166 380 296 419 c 0,31,32
 324 428 324 428 375 452 c 0,33,34
 432 479 432 479 456 486 c 0,35,36
 458 487 458 487 460 487 c 0,37,38
 467 490 467 490 474 492 c 0,39,40
 517 508 517 508 547 507 c 1,41,42
 588 507 588 507 607 478 c 0,43,44
 621 457 621 457 607 432 c 1,45,46
 602 421 602 421 583 409 c 0,47,48
 568 400 568 400 543 389 c 0,49,50
 502 371 502 371 432 348 c 1,51,-1
 321 314 l 1,52,-1
 235 287 l 1,53,54
 171 263 171 263 167 262 c 0,55,56
 145 252 145 252 134 244 c 0,57,58
 124 237 124 237 125 234 c 0,59,60
 127 221 127 221 155 201 c 1,61,62
 186 182 186 182 234 158 c 1,0,-1
EndSplineSet
Validated: 33
EndChar

StartChar: equal
Encoding: 61 61 32
Width: 693
GlyphClass: 2
Flags: W
LayerCount: 2
Fore
SplineSet
358 402 m 1,0,1
 360 404 360 404 364 404 c 128,-1,2
 368 404 368 404 375 405.5 c 128,-1,3
 382 407 382 407 393.5 408.5 c 128,-1,4
 405 410 405 410 414 411 c 0,5,6
 460 418 460 418 492 419 c 0,7,8
 538 421 538 421 563 412 c 0,9,10
 580 406 580 406 588 394 c 0,11,12
 597 381 597 381 594 362 c 0,13,14
 591 347 591 347 574 333 c 0,15,16
 564 325 564 325 549 317 c 0,17,18
 526 306 526 306 460 299 c 0,19,20
 404 293 404 293 325 291 c 0,21,22
 169 287 169 287 88 295 c 0,23,24
 59 298 59 298 37.5 313.5 c 128,-1,25
 16 329 16 329 11 350 c 1,26,27
 4 374 4 374 22 392 c 0,28,29
 39 409 39 409 75 413 c 0,30,31
 105 416 105 416 152 410 c 0,32,33
 218 402 218 402 226 401 c 0,34,35
 263 399 263 399 324 401 c 0,36,37
 325 401 325 401 358 402 c 1,0,1
461 207 m 1,38,-1
 475 210 l 2,39,40
 517 218 517 218 545 220 c 0,41,42
 587 222 587 222 609 211 c 0,43,44
 641 195 641 195 633 155 c 0,45,46
 626 125 626 125 595 109 c 1,47,48
 544 85 544 85 443 84 c 0,49,50
 421 83 421 83 362 84 c 0,51,52
 311 85 311 85 291 84 c 0,53,54
 204 79 204 79 155 80 c 0,55,56
 109 81 109 81 78 85 c 0,57,58
 38 90 38 90 23 103 c 0,59,60
 13 112 13 112 12 124 c 1,61,-1
 12 141 l 1,62,63
 13 177 13 177 26 189 c 1,64,65
 33 197 33 197 51 201 c 0,66,67
 64 204 64 204 86 206 c 0,68,69
 121 208 121 208 178 207 c 0,70,71
 214 206 214 206 269 203.5 c 128,-1,72
 324 201 324 201 334 201 c 0,73,74
 400 201 400 201 461 207 c 1,38,-1
EndSplineSet
Validated: 33
EndChar

StartChar: greater
Encoding: 62 62 33
Width: 623
GlyphClass: 2
Flags: W
LayerCount: 2
Fore
SplineSet
411 246 m 0,0,1
 411 249 411 249 404 254 c 0,2,3
 395 262 395 262 374 272 c 1,4,-1
 312 297 l 2,5,6
 302 301 302 301 241 321 c 0,7,8
 173 343 173 343 137 356 c 0,9,10
 76 378 76 378 39 397 c 0,11,12
 -10 421 -10 421 -19 443 c 0,13,14
 -36 481 -36 481 -3 504 c 0,15,16
 39 533 39 533 112 500 c 1,17,-1
 137 487 l 1,18,19
 151 481 151 481 189 461 c 0,20,21
 233 439 233 439 259 429 c 1,22,-1
 324 408 l 2,23,24
 383 388 383 388 421 374 c 0,25,26
 477 353 477 353 510 336 c 0,27,28
 553 313 553 313 561 292 c 0,29,30
 575 256 575 256 534 215 c 0,31,32
 521 202 521 202 475 168 c 0,33,34
 378 98 378 98 266 38 c 1,35,36
 192 -3 192 -3 140 -19 c 1,37,38
 74 -41 74 -41 46 -22 c 0,39,40
 44 -21 44 -21 40 -17 c 2,41,-1
 33 -9 l 2,42,43
 28 -4 28 -4 26 -1 c 128,-1,44
 24 2 24 2 23 3 c 0,45,46
 20 8 20 8 20 12 c 0,47,48
 20 29 20 29 41 45 c 0,49,50
 56 56 56 56 85 70 c 0,51,52
 106 80 106 80 214 124 c 1,53,54
 302 158 302 158 346 184 c 0,55,56
 404 217 404 217 411 246 c 0,0,1
EndSplineSet
Validated: 33
EndChar

StartChar: question
Encoding: 63 63 34
Width: 533
GlyphClass: 2
Flags: W
LayerCount: 2
Fore
SplineSet
468 488 m 1,0,1
 460 463 460 463 442 436 c 1,2,-1
 389 371 l 2,3,4
 356 332 356 332 341 299 c 0,5,6
 336 290 336 290 335 267 c 0,7,8
 334 260 334 260 334 244.5 c 128,-1,9
 334 229 334 229 333 221 c 0,10,11
 329 155 329 155 289 142 c 0,12,13
 262 133 262 133 242 142 c 0,14,15
 224 151 224 151 215 172 c 0,16,17
 200 206 200 206 210 250 c 0,18,19
 215 271 215 271 228.5 294.5 c 128,-1,20
 242 318 242 318 252 331.5 c 128,-1,21
 262 345 262 345 286 373 c 2,22,-1
 316 407 l 2,23,24
 334 428 334 428 344 443 c 0,25,26
 354 459 354 459 362 479 c 128,-1,27
 370 499 370 499 369 516.5 c 128,-1,28
 368 534 368 534 361 556 c 1,29,30
 346 594 346 594 312 607.5 c 128,-1,31
 278 621 278 621 240 610 c 0,32,33
 181 594 181 594 158 541 c 1,34,-1
 158 523 l 1,35,-1
 158 503 l 2,36,37
 158 451 158 451 135 427 c 0,38,39
 124 415 124 415 99 417 c 0,40,41
 48 422 48 422 27 461 c 0,42,43
 10 493 10 493 15 542 c 0,44,45
 20 589 20 589 45.5 630 c 128,-1,46
 71 671 71 671 110 697.5 c 128,-1,47
 149 724 149 724 194.5 738 c 128,-1,48
 240 752 240 752 288 747.5 c 128,-1,49
 336 743 336 743 377 719 c 0,50,51
 402 704 402 704 423.5 675 c 128,-1,52
 445 646 445 646 457 616 c 0,53,54
 482 554 482 554 472 504 c 1,55,-1
 472 503 l 2,56,57
 472 495 472 495 468 488 c 1,0,1
223 77 m 0,58,59
 236 94 236 94 257.5 100.5 c 128,-1,60
 279 107 279 107 301 103 c 0,61,62
 329 98 329 98 345 80 c 0,63,64
 364 58 364 58 355 29 c 0,65,66
 345 -7 345 -7 298 -30 c 0,67,68
 258 -49 258 -49 231 -27 c 0,69,70
 209 -9 209 -9 208 26 c 0,71,72
 207 57 207 57 223 77 c 0,58,59
260 164 m 1,73,74
 263 163 263 163 266 163 c 1,75,76
 263 164 263 164 260 164 c 1,73,74
EndSplineSet
Validated: 33
EndChar

StartChar: at
Encoding: 64 64 35
Width: 940
GlyphClass: 2
Flags: W
LayerCount: 2
Fore
SplineSet
400 373 m 1,0,1
 392 341 392 341 390 311 c 0,2,3
 387 263 387 263 399 235 c 0,4,5
 401 231 401 231 402 228 c 1,6,7
 411 227 411 227 424 230 c 0,8,9
 445 235 445 235 466 250 c 1,10,-1
 469 253 l 1,11,12
 513 294 513 294 540 354 c 1,13,-1
 542 360 l 2,14,15
 547 376 547 376 553 392 c 1,16,17
 563 427 563 427 554 447 c 1,18,19
 541 480 541 480 476 466 c 1,20,-1
 471 466 l 1,21,22
 423 438 423 438 400 373 c 1,0,1
633 545 m 0,23,24
 648 562 648 562 666 568.5 c 128,-1,25
 684 575 684 575 704 567 c 1,26,27
 723 558 723 558 729 538 c 128,-1,28
 735 518 735 518 731 495 c 0,29,30
 727 475 727 475 708 450 c 0,31,32
 705 446 705 446 694 433 c 2,33,-1
 684 420 l 1,34,35
 612 312 612 312 619 210 c 1,36,37
 632 206 632 206 651 206 c 0,38,39
 710 206 710 206 764 272 c 1,40,41
 833 360 833 360 813.5 466.5 c 128,-1,42
 794 573 794 573 703 644 c 0,43,44
 645 689 645 689 545 689 c 0,45,46
 452 689 452 689 364.5 638 c 128,-1,47
 277 587 277 587 219 503 c 128,-1,48
 161 419 161 419 150 325 c 1,49,50
 132 185 132 185 187 107 c 128,-1,51
 242 29 242 29 344 6 c 0,52,53
 467 -21 467 -21 612 28 c 1,54,55
 679 59 679 59 754 106 c 0,56,57
 755 107 755 107 758 109 c 0,58,59
 762 112 762 112 765 114 c 0,60,61
 781 124 781 124 797 119 c 0,62,63
 819 111 819 111 825 93 c 0,64,65
 831 76 831 76 820 58 c 0,66,67
 809 39 809 39 775 15 c 0,68,69
 752 -2 752 -2 723 -18 c 128,-1,70
 694 -34 694 -34 683 -38 c 0,71,72
 535 -89 535 -89 375 -64 c 0,73,74
 352 -61 352 -61 331 -56 c 0,75,76
 270 -43 270 -43 221.5 -13 c 128,-1,77
 173 17 173 17 138.5 64.5 c 128,-1,78
 104 112 104 112 90 180.5 c 128,-1,79
 76 249 76 249 86 333 c 0,80,81
 96 414 96 414 138 490.5 c 128,-1,82
 180 567 180 567 241 625 c 128,-1,83
 302 683 302 683 382 718 c 128,-1,84
 462 753 462 753 545 753 c 0,85,86
 667 753 667 753 743 694 c 0,87,88
 813 639 813 639 850.5 560.5 c 128,-1,89
 888 482 888 482 880.5 393 c 128,-1,90
 873 304 873 304 814 232 c 0,91,92
 741 143 741 143 651 142 c 0,93,94
 566 141 566 141 537 206 c 1,95,-1
 533 217 l 1,96,97
 531 215 531 215 528 213 c 0,98,99
 519 207 519 207 498 191 c 0,100,101
 472 170 472 170 461 162 c 0,102,103
 410 125 410 125 376 132 c 0,104,105
 317 145 317 145 301 239 c 0,106,107
 289 311 289 311 303 369 c 0,108,109
 323 449 323 449 362 497 c 0,110,111
 415 562 415 562 492 549 c 1,112,-1
 510 545 l 2,113,114
 512 544 512 544 515 544 c 0,115,116
 572 535 572 535 605 497 c 1,117,118
 616 515 616 515 627 529 c 1,119,120
 627 538 627 538 633 545 c 0,23,24
EndSplineSet
Validated: 33
EndChar

StartChar: A
Encoding: 65 65 36
Width: 731
GlyphClass: 2
Flags: W
LayerCount: 2
Fore
SplineSet
359 252 m 1,0,-1
 359 254 l 1,1,2
 362 265 362 265 364 283 c 0,3,4
 367 320 367 320 366 372 c 128,-1,5
 365 424 365 424 360 462 c 0,6,7
 358 481 358 481 355 493 c 2,8,-1
 352 503 l 1,9,10
 344 510 344 510 339 509 c 0,11,12
 333 508 333 508 324 498 c 0,13,14
 304 473 304 473 285 411 c 0,15,16
 264 345 264 345 250 261 c 1,17,18
 293 269 293 269 332 263 c 0,19,20
 337 262 337 262 358 253 c 1,21,-1
 359 252 l 1,0,-1
502 114 m 1,22,-1
 501 113 l 1,23,-1
 503 113 l 1,24,-1
 503 114 l 1,25,-1
 502 114 l 1,22,-1
672 143 m 1,26,27
 673 132 673 132 672 121 c 0,28,29
 668 74 668 74 638 30 c 0,30,31
 634 25 634 25 631 20 c 0,32,33
 609 -14 609 -14 573 -32 c 128,-1,34
 537 -50 537 -50 494 -44 c 0,35,36
 478 -42 478 -42 464.5 -36.5 c 128,-1,37
 451 -31 451 -31 441.5 -25.5 c 128,-1,38
 432 -20 432 -20 422 -8 c 2,39,-1
 407 8 l 2,40,41
 402 14 402 14 394 30 c 128,-1,42
 386 46 386 46 384 50 c 2,43,-1
 376 72 l 2,44,45
 369 90 369 90 368 91 c 0,46,47
 351 136 351 136 333 150 c 0,48,49
 308 170 308 170 258 158 c 1,50,51
 236 81 236 81 181 35.5 c 128,-1,52
 126 -10 126 -10 64 -10 c 0,53,54
 -3 -10 -3 -10 -44 41 c 0,55,56
 -89 96 -89 96 -87 193 c 0,57,58
 -86 233 -86 233 -54 268 c 0,59,60
 -19 306 -19 306 18 291 c 0,61,62
 32 285 32 285 65 253 c 0,63,64
 83 235 83 235 90 236 c 1,65,66
 103 267 103 267 131.5 350.5 c 128,-1,67
 160 434 160 434 188 495.5 c 128,-1,68
 216 557 216 557 254 608 c 0,69,70
 289 656 289 656 302 671 c 0,71,72
 322 695 322 695 336 708 c 0,73,74
 347 718 347 718 357 722 c 1,75,76
 364 726 364 726 372 727 c 1,77,78
 376 729 376 729 380 730 c 0,79,80
 406 739 406 739 426 723 c 0,81,82
 439 713 439 713 446 689 c 0,83,84
 452 670 452 670 456 640 c 0,85,86
 462 594 462 594 464 513 c 0,87,88
 464 480 464 480 464.5 426 c 128,-1,89
 465 372 465 372 465.5 340.5 c 128,-1,90
 466 309 466 309 469 295 c 0,91,92
 481 221 481 221 494 189 c 0,93,94
 498 178 498 178 503 170 c 1,95,96
 522 148 522 148 533 147 c 0,97,98
 540 147 540 147 552 164 c 0,99,100
 557 171 557 171 565 186 c 0,101,102
 575 203 575 203 580 210 c 0,103,104
 604 244 604 244 633 235 c 0,105,106
 656 228 656 228 664 201 c 0,107,108
 667 191 667 191 668 178 c 1,109,110
 673 161 673 161 672 143 c 1,26,27
EndSplineSet
Validated: 33
EndChar

StartChar: B
Encoding: 66 66 37
Width: 596
GlyphClass: 2
Flags: W
LayerCount: 2
Fore
SplineSet
386 348 m 1,0,-1
 391 347 l 2,1,2
 393 347 393 347 407 346.5 c 128,-1,3
 421 346 421 346 430 346 c 0,4,5
 494 341 494 341 523 291 c 0,6,7
 557 231 557 231 515 138 c 1,8,9
 499 100 499 100 473.5 67.5 c 128,-1,10
 448 35 448 35 422 18 c 0,11,12
 375 -11 375 -11 326 -6.5 c 128,-1,13
 277 -2 277 -2 238 28 c 0,14,15
 212 49 212 49 198 76 c 128,-1,16
 184 103 184 103 185.5 137.5 c 128,-1,17
 187 172 187 172 208 206 c 0,18,19
 226 235 226 235 251 230 c 0,20,21
 268 227 268 227 284 206 c 1,22,23
 288 199 288 199 303 173 c 0,24,25
 312 157 312 157 315 155 c 0,26,27
 335 140 335 140 362.5 148 c 128,-1,28
 390 156 390 156 405 181 c 0,29,30
 422 211 422 211 407 244 c 0,31,32
 391 278 391 278 352 284 c 0,33,34
 346 285 346 285 340 286 c 1,35,-1
 326 286 l 1,36,37
 319 287 319 287 315 287 c 0,38,39
 290 290 290 290 276 297 c 1,40,41
 261 306 261 306 258 327 c 0,42,43
 255 355 255 355 283 384 c 0,44,45
 291 392 291 392 307 405 c 1,46,47
 324 421 324 421 331 427 c 0,48,49
 344 440 344 440 352.5 451 c 128,-1,50
 361 462 361 462 367 475.5 c 128,-1,51
 373 489 373 489 372.5 505.5 c 128,-1,52
 372 522 372 522 365 541 c 0,53,54
 359 558 359 558 342.5 574.5 c 128,-1,55
 326 591 326 591 307 598 c 1,56,57
 275 612 275 612 242 605 c 1,58,59
 208 599 208 599 198 573 c 0,60,61
 192 560 192 560 189.5 543 c 128,-1,62
 187 526 187 526 187 515 c 128,-1,63
 187 504 187 504 187.5 480 c 128,-1,64
 188 456 188 456 188 447 c 0,65,66
 188 441 188 441 188.5 378 c 128,-1,67
 189 315 189 315 188.5 288 c 128,-1,68
 188 261 188 261 182.5 214 c 128,-1,69
 177 167 177 167 167 135 c 0,70,71
 145 69 145 69 111 32 c 0,72,73
 58 -25 58 -25 -8 4 c 0,74,75
 -24 11 -24 11 -31 20 c 0,76,77
 -40 30 -40 30 -43 47 c 0,78,79
 -49 82 -49 82 -13 153 c 2,80,-1
 14 205 l 1,81,82
 30 233 30 233 34 245 c 1,83,84
 41 261 41 261 46 278.5 c 128,-1,85
 51 296 51 296 56 320 c 128,-1,86
 61 344 61 344 65 357 c 0,87,88
 90 453 90 453 83 609 c 0,89,90
 83 617 83 617 88 622 c 1,91,92
 99 692 99 692 154 726 c 0,93,94
 202 756 202 756 273 751 c 0,95,96
 337 747 337 747 398 717 c 0,97,98
 460 687 460 687 493 643 c 1,99,100
 516 610 516 610 520.5 571.5 c 128,-1,101
 525 533 525 533 512.5 497 c 128,-1,102
 500 461 500 461 479.5 430 c 128,-1,103
 459 399 459 399 433 375 c 0,104,105
 427 369 427 369 401 356 c 0,106,107
 391 351 391 351 386 348 c 1,0,-1
EndSplineSet
Validated: 33
EndChar

StartChar: C
Encoding: 67 67 38
Width: 638
GlyphClass: 2
Flags: W
LayerCount: 2
Fore
SplineSet
308 78 m 1,0,1
 340 90 340 90 365 120 c 1,2,3
 367 128 367 128 369 142 c 0,4,5
 377 187 377 187 387 207 c 0,6,7
 403 240 403 240 433 254.5 c 128,-1,8
 463 269 463 269 493 260 c 1,9,10
 525 252 525 252 542.5 223 c 128,-1,11
 560 194 560 194 555 153 c 0,12,13
 547 86 547 86 490 20 c 1,14,15
 402 -78 402 -78 288.5 -74.5 c 128,-1,16
 175 -71 175 -71 90 26 c 1,17,18
 31 95 31 95 4 165 c 0,19,20
 -16 217 -16 217 -23.5 282 c 128,-1,21
 -31 347 -31 347 -20.5 415 c 128,-1,22
 -10 483 -10 483 20 531 c 0,23,24
 54 585 54 585 121 632 c 128,-1,25
 188 679 188 679 264 703 c 0,26,27
 318 720 318 720 368 723 c 128,-1,28
 418 726 418 726 468 710 c 1,29,30
 517 693 517 693 552 656 c 0,31,32
 577 630 577 630 579 586 c 0,33,34
 581 541 581 541 564 506 c 1,35,36
 548 465 548 465 519 436 c 128,-1,37
 490 407 490 407 454 404 c 0,38,39
 404 400 404 400 381 440 c 0,40,41
 373 455 373 455 361 512 c 0,42,43
 352 555 352 555 339 571 c 0,44,45
 321 592 321 592 279 589 c 0,46,47
 221 584 221 584 180 525 c 0,48,49
 153 485 153 485 140 414 c 0,50,51
 128 344 128 344 137 271 c 0,52,53
 146 193 146 193 178 142 c 0,54,55
 211 90 211 90 264 79 c 0,56,57
 283 75 283 75 308 78 c 1,0,1
EndSplineSet
Validated: 33
EndChar

StartChar: D
Encoding: 68 68 39
Width: 665
GlyphClass: 2
Flags: W
LayerCount: 2
Fore
SplineSet
151 408 m 0,0,1
 153 395 153 395 156 378 c 0,2,3
 175 262 175 262 178 229 c 1,4,5
 183 194 183 194 180 157 c 128,-1,6
 177 120 177 120 168 89.5 c 128,-1,7
 159 59 159 59 134.5 35 c 128,-1,8
 110 11 110 11 73 2 c 0,9,10
 14 -14 14 -14 -20 -4 c 0,11,12
 -73 10 -73 10 -102 71 c 0,13,14
 -129 130 -129 130 -109 182 c 0,15,16
 -96 214 -96 214 -65 220 c 0,17,18
 -46 223 -46 223 -15 216 c 0,19,20
 19 208 19 208 24 207 c 1,21,22
 34 207 34 207 36 209 c 1,23,24
 39 216 39 216 41 235 c 0,25,26
 42 242 42 242 43 254 c 128,-1,27
 44 266 44 266 44 270 c 0,28,29
 46 310 46 310 45 334 c 128,-1,30
 44 358 44 358 40 410 c 0,31,32
 36 461 36 461 35 495 c 0,33,34
 29 657 29 657 94 713 c 0,35,36
 113 729 113 729 149 732 c 0,37,38
 159 733 159 733 175 733 c 0,39,40
 192 734 192 734 197 734 c 0,41,42
 263 738 263 738 289 733 c 0,43,44
 351 720 351 720 409 688 c 0,45,46
 462 658 462 658 504.5 600 c 128,-1,47
 547 542 547 542 574 470 c 0,48,49
 600 399 600 399 605.5 329 c 128,-1,50
 611 259 611 259 592 198 c 1,51,52
 561 104 561 104 470 40 c 0,53,54
 468 39 468 39 457.5 31 c 128,-1,55
 447 23 447 23 443 20 c 2,56,-1
 430 12 l 2,57,58
 420 6 420 6 414 3 c 2,59,-1
 398 -4 l 2,60,61
 389 -8 389 -8 380 -10.5 c 128,-1,62
 371 -13 371 -13 361 -14 c 0,63,64
 293 -23 293 -23 251 0 c 0,65,66
 230 12 230 12 213 35 c 128,-1,67
 196 58 196 58 187 85 c 0,68,69
 166 153 166 153 208 192 c 0,70,71
 223 207 223 207 257 212 c 0,72,73
 290 217 290 217 312 206 c 0,74,75
 328 199 328 199 343 180 c 0,76,77
 345 178 345 178 348 173.5 c 128,-1,78
 351 169 351 169 352 168 c 128,-1,79
 353 167 353 167 355.5 164 c 128,-1,80
 358 161 358 161 359 160.5 c 128,-1,81
 360 160 360 160 362 158 c 128,-1,82
 364 156 364 156 365 156.5 c 128,-1,83
 366 157 366 157 369 156 c 128,-1,84
 372 155 372 155 374 156 c 0,85,86
 400 158 400 158 440 210 c 0,87,88
 486 270 486 270 497.5 334.5 c 128,-1,89
 509 399 509 399 481 470 c 0,90,91
 468 501 468 501 443.5 530 c 128,-1,92
 419 559 419 559 391 575 c 0,93,94
 341 605 341 605 269 608 c 0,95,96
 191 612 191 612 170 571 c 0,97,98
 153 538 153 538 150 493.5 c 128,-1,99
 147 449 147 449 151 408 c 0,0,1
EndSplineSet
Validated: 33
EndChar

StartChar: E
Encoding: 69 69 40
Width: 641
GlyphClass: 2
Flags: W
LayerCount: 2
Fore
SplineSet
8 467 m 0,0,1
 13 533 13 533 22 571 c 0,2,3
 44 664 44 664 110 699 c 0,4,5
 137 714 137 714 219 730 c 1,6,7
 308 749 308 749 387 752 c 0,8,9
 487 757 487 757 536 734 c 0,10,11
 568 719 568 719 579 692 c 1,12,13
 589 663 589 663 572 626 c 0,14,15
 550 576 550 576 479 568 c 0,16,17
 471 567 471 567 463 567 c 1,18,19
 424 556 424 556 358 564 c 0,20,21
 284 573 284 573 267 572 c 0,22,23
 225 569 225 569 203 542 c 0,24,25
 182 517 182 517 189 446 c 0,26,27
 193 407 193 407 214 397 c 0,28,29
 234 388 234 388 272 396 c 0,30,31
 296 402 296 402 351 422 c 0,32,33
 403 440 403 440 424 443 c 0,34,35
 459 447 459 447 490 434 c 0,36,37
 536 415 536 415 530 372 c 0,38,39
 525 339 525 339 489 301 c 0,40,41
 422 230 422 230 296 243 c 0,42,43
 292 243 292 243 218 255 c 0,44,45
 202 258 202 258 194 258 c 2,46,-1
 193 258 l 1,47,48
 193 256 193 256 194 254 c 0,49,50
 194 253 194 253 195.5 248 c 128,-1,51
 197 243 197 243 198 238 c 128,-1,52
 199 233 199 233 200 229 c 0,53,54
 203 202 203 202 206 184 c 1,55,56
 212 169 212 169 214 155 c 1,57,58
 232 106 232 106 275 94 c 0,59,60
 296 89 296 89 314.5 96.5 c 128,-1,61
 333 104 333 104 362 124 c 0,62,63
 375 132 375 132 381 136 c 128,-1,64
 387 140 387 140 400.5 146.5 c 128,-1,65
 414 153 414 153 424 155 c 128,-1,66
 434 157 434 157 447.5 157 c 128,-1,67
 461 157 461 157 474 152 c 0,68,69
 524 133 524 133 532 93 c 0,70,71
 539 58 539 58 512 20 c 0,72,73
 489 -14 489 -14 448.5 -37.5 c 128,-1,74
 408 -61 408 -61 366 -63 c 0,75,76
 237 -68 237 -68 157.5 -35.5 c 128,-1,77
 78 -3 78 -3 39 66 c 0,78,79
 6 125 6 125 -1 218 c 128,-1,80
 -8 311 -8 311 4 409 c 1,81,82
 5 439 5 439 8 467 c 0,0,1
EndSplineSet
Validated: 33
EndChar

StartChar: F
Encoding: 70 70 41
Width: 591
GlyphClass: 2
Flags: W
LayerCount: 2
Fore
SplineSet
425 665 m 1,0,-1
 424 666 l 1,1,-1
 424 665 l 1,2,-1
 425 665 l 1,0,-1
183 309 m 0,3,4
 164 296 164 296 167 243 c 0,5,6
 168 221 168 221 174 185 c 0,7,8
 175 176 175 176 178.5 154.5 c 128,-1,9
 182 133 182 133 184 122 c 0,10,11
 196 43 196 43 185 7 c 0,12,13
 176 -21 176 -21 153 -33 c 0,14,15
 130 -46 130 -46 94 -41 c 0,16,17
 37 -33 37 -33 25 29 c 1,18,-1
 23 46 l 2,19,20
 22 54 22 54 21.5 61 c 128,-1,21
 21 68 21 68 22 78.5 c 128,-1,22
 23 89 23 89 23 94 c 128,-1,23
 23 99 23 99 25 111 c 128,-1,24
 27 123 27 123 27.5 126.5 c 128,-1,25
 28 130 28 130 31 143 c 128,-1,26
 34 156 34 156 34 157.5 c 128,-1,27
 34 159 34 159 38 174 c 2,28,-1
 41 188 l 1,29,30
 45 218 45 218 54 255 c 1,31,32
 76 379 76 379 82 531 c 0,33,34
 82 541 82 541 80 567 c 1,35,36
 76 599 76 599 76 613 c 0,37,38
 75 652 75 652 88 675 c 1,39,40
 92 696 92 696 113 701 c 1,41,42
 133 713 133 713 191 722 c 0,43,44
 244 730 244 730 311 733 c 0,45,46
 378 737 378 737 429 733 c 0,47,48
 456 731 456 731 474 727 c 0,49,50
 497 722 497 722 507 714 c 0,51,52
 528 695 528 695 532 663 c 0,53,54
 535 636 535 636 520 617 c 0,55,56
 511 605 511 605 487 592 c 1,57,58
 454 572 454 572 402 576 c 0,59,60
 385 577 385 577 360 582 c 0,61,62
 356 582 356 582 341.5 585 c 128,-1,63
 327 588 327 588 319 589 c 0,64,65
 275 596 275 596 252 590 c 0,66,67
 225 582 225 582 212 550 c 0,68,69
 195 509 195 509 197 487 c 0,70,71
 199 471 199 471 212 464 c 0,72,73
 235 451 235 451 315 457 c 0,74,75
 317 457 317 457 332.5 458 c 128,-1,76
 348 459 348 459 352.5 459.5 c 128,-1,77
 357 460 357 460 370 460.5 c 128,-1,78
 383 461 383 461 390 461 c 128,-1,79
 397 461 397 461 407 460.5 c 128,-1,80
 417 460 417 460 425 458.5 c 128,-1,81
 433 457 433 457 440 455 c 0,82,83
 472 445 472 445 482 418.5 c 128,-1,84
 492 392 492 392 477 349 c 0,85,86
 466 319 466 319 415 292 c 0,87,88
 394 281 394 281 371.5 277.5 c 128,-1,89
 349 274 349 274 323.5 280 c 128,-1,90
 298 286 298 286 287 289.5 c 128,-1,91
 276 293 276 293 249 304 c 0,92,93
 210 319 210 319 195 319 c 2,94,-1
 190 319 l 1,95,96
 188 313 188 313 183 309 c 0,3,4
EndSplineSet
Validated: 33
EndChar

StartChar: G
Encoding: 71 71 42
Width: 741
GlyphClass: 2
Flags: W
LayerCount: 2
Fore
SplineSet
334 85 m 1,0,1
 367 86 367 86 408 95 c 1,2,3
 450 111 450 111 480 137 c 0,4,5
 517 170 517 170 530 210 c 0,6,7
 536 230 536 230 532 244 c 128,-1,8
 528 258 528 258 509 267 c 1,9,10
 454 260 454 260 412 270 c 0,11,12
 358 283 358 283 343 316 c 0,13,14
 334 336 334 336 341 354 c 128,-1,15
 348 372 348 372 367 385 c 0,16,17
 406 412 406 412 484 418 c 0,18,19
 557 423 557 423 607 376.5 c 128,-1,20
 657 330 657 330 675 258 c 0,21,22
 692 189 692 189 674 119 c 128,-1,23
 656 49 656 49 603 10 c 0,24,25
 574 -12 574 -12 548 2 c 1,26,27
 530 13 530 13 519 41 c 1,28,29
 506 31 506 31 498 27 c 0,30,31
 433 -7 433 -7 323 -10 c 0,32,33
 259 -12 259 -12 203 7 c 128,-1,34
 147 26 147 26 105.5 60 c 128,-1,35
 64 94 64 94 34.5 141 c 128,-1,36
 5 188 5 188 -9 241.5 c 128,-1,37
 -23 295 -23 295 -21.5 354 c 128,-1,38
 -20 413 -20 413 -2 470 c 0,39,40
 36 590 36 590 133 673 c 128,-1,41
 230 756 230 756 353 765 c 0,42,43
 411 769 411 769 454.5 761.5 c 128,-1,44
 498 754 498 754 537 722 c 1,45,46
 570 693 570 693 588 646 c 128,-1,47
 606 599 606 599 602 554 c 0,48,49
 597 503 597 503 565 476 c 0,50,51
 529 445 529 445 468 454 c 0,52,53
 430 460 430 460 415 490 c 0,54,55
 406 509 406 509 406 545 c 0,56,57
 405 583 405 583 403 592 c 0,58,59
 400 610 400 610 388 616 c 0,60,61
 357 632 357 632 306 616 c 0,62,63
 203 583 203 583 154 454 c 0,64,65
 124 373 124 373 124 281 c 1,66,67
 126 270 126 270 127 258 c 1,68,69
 138 218 138 218 160 182 c 0,70,71
 188 137 188 137 234 112.5 c 128,-1,72
 280 88 280 88 334 85 c 1,0,1
EndSplineSet
Validated: 33
EndChar

StartChar: H
Encoding: 72 72 43
Width: 643
GlyphClass: 2
Flags: W
LayerCount: 2
Fore
SplineSet
389 109 m 1,0,1
 388 132 388 132 391 171 c 0,2,3
 397 244 397 244 391 266 c 0,4,5
 382 299 382 299 358 312 c 0,6,7
 335 325 335 325 302 319 c 1,8,9
 273 315 273 315 245.5 299 c 128,-1,10
 218 283 218 283 200 262 c 1,11,12
 198 254 198 254 197 245 c 0,13,14
 193 225 193 225 187 185 c 1,15,16
 182 142 182 142 178 123 c 0,17,18
 177 116 177 116 176 111 c 0,19,20
 173 81 173 81 163 58 c 0,21,22
 136 -8 136 -8 54 -24 c 0,23,24
 -18 -38 -18 -38 -66 14 c 0,25,26
 -80 29 -80 29 -88 56 c 128,-1,27
 -96 83 -96 83 -96 109 c 0,28,29
 -95 140 -95 140 -82 159 c 0,30,31
 -65 184 -65 184 -34 185 c 0,32,33
 -22 185 -22 185 2 174 c 0,34,35
 16 167 16 167 22 169 c 0,36,37
 25 169 25 169 28 173 c 2,38,-1
 31 176 l 2,39,40
 33 179 33 179 35 183 c 0,41,42
 43 196 43 196 45 210 c 0,43,44
 52 247 52 247 41 336 c 0,45,46
 23 485 23 485 22 497 c 0,47,48
 15 592 15 592 36 645 c 0,49,50
 63 716 63 716 140 729 c 0,51,52
 184 736 184 736 209 705 c 0,53,54
 235 673 235 673 224 614 c 0,55,56
 220 595 220 595 211 565 c 0,57,58
 197 520 197 520 197 518 c 0,59,60
 183 467 183 467 192 444 c 0,61,62
 203 415 203 415 257 410 c 0,63,64
 321 404 321 404 342 409 c 0,65,66
 388 422 388 422 401 467 c 0,67,68
 409 497 409 497 405 568 c 0,69,70
 401 646 401 646 407 673 c 0,71,72
 420 726 420 726 473 736 c 1,73,74
 490 741 490 741 509 737 c 0,75,76
 516 736 516 736 523 733 c 0,77,78
 542 726 542 726 557 712 c 0,79,80
 589 683 589 683 584 619 c 0,81,82
 583 602 583 602 577 572 c 0,83,84
 572 542 572 542 571 532 c 0,85,86
 569 504 569 504 563.5 461 c 128,-1,87
 558 418 558 418 555 391.5 c 128,-1,88
 552 365 552 365 549.5 322.5 c 128,-1,89
 547 280 547 280 551 253 c 1,90,91
 553 228 553 228 563 171 c 0,92,93
 573 115 573 115 576 86 c 0,94,95
 580 42 580 42 562 13 c 0,96,97
 542 -20 542 -20 499 -28 c 0,98,99
 464 -34 464 -34 440 -24 c 0,100,101
 418 -15 418 -15 406 10 c 0,102,103
 401 21 401 21 397 35 c 1,104,105
 385 65 385 65 389 109 c 1,0,1
484 641 m 1,106,-1
 483 642 l 1,107,-1
 483 641 l 1,108,-1
 484 641 l 1,106,-1
EndSplineSet
Validated: 33
EndChar

StartChar: I
Encoding: 73 73 44
Width: 282
GlyphClass: 2
Flags: W
LayerCount: 2
Fore
SplineSet
32 575 m 1,0,1
 29 580 29 580 30 585 c 0,2,3
 40 661 40 661 58 692 c 0,4,5
 88 745 88 745 158 742 c 0,6,7
 168 741 168 741 173 733 c 1,8,9
 176 732 176 732 178 731 c 0,10,11
 203 721 203 721 217 683 c 0,12,13
 232 642 232 642 211 550 c 0,14,15
 207 536 207 536 199.5 506 c 128,-1,16
 192 476 192 476 188 458 c 128,-1,17
 184 440 184 440 183 426 c 0,18,19
 179 378 179 378 184 329 c 128,-1,20
 189 280 189 280 200 217 c 1,21,22
 212 155 212 155 216 117 c 0,23,24
 221 72 221 72 205 36 c 0,25,26
 182 -16 182 -16 130 -10 c 0,27,28
 93 -5 93 -5 73 4 c 0,29,30
 36 20 36 20 28 54 c 0,31,32
 17 103 17 103 27 184 c 0,33,34
 28 196 28 196 31.5 219.5 c 128,-1,35
 35 243 35 243 35 247 c 0,36,37
 40 283 40 283 41 306 c 0,38,39
 42 340 42 340 35 466 c 1,40,41
 30 536 30 536 32 575 c 1,0,1
125 74 m 2,42,43
 125 73 125 73 126 73 c 2,44,-1
 125 74 l 2,42,43
EndSplineSet
Validated: 33
EndChar

StartChar: J
Encoding: 74 74 45
Width: 484
GlyphClass: 2
Flags: W
LayerCount: 2
Fore
SplineSet
145 108 m 1,0,1
 174 85 174 85 216 98 c 0,2,3
 240 106 240 106 260 122.5 c 128,-1,4
 280 139 280 139 291 160 c 0,5,6
 300 178 300 178 306 201 c 1,7,8
 316 274 316 274 309 347 c 0,9,10
 309 353 309 353 308 360 c 2,11,-1
 306 373 l 1,12,13
 301 413 301 413 290 449 c 2,14,-1
 285 464 l 2,15,16
 285 465 285 465 284 466 c 0,17,18
 282 471 282 471 280 479 c 0,19,20
 253 565 253 565 252 610 c 0,21,22
 251 662 251 662 266 700 c 0,23,24
 275 724 275 724 289 736 c 1,25,26
 302 756 302 756 324 751 c 0,27,28
 330 750 330 750 335 747 c 1,29,30
 344 746 344 746 354 741 c 0,31,32
 406 717 406 717 418 639 c 0,33,34
 422 613 422 613 422 524 c 0,35,36
 422 508 422 508 424.5 443 c 128,-1,37
 427 378 427 378 425.5 322 c 128,-1,38
 424 266 424 266 417 217 c 0,39,40
 387 9 387 9 240 -16 c 0,41,42
 175 -27 175 -27 107.5 -5.5 c 128,-1,43
 40 16 40 16 1 66 c 0,44,45
 -17 89 -17 89 -27.5 121 c 128,-1,46
 -38 153 -38 153 -36 183 c 1,47,48
 -35 219 -35 219 -16 243 c 0,49,50
 6 270 6 270 46 275 c 0,51,52
 102 282 102 282 123 245 c 0,53,54
 136 222 136 222 137 185 c 0,55,56
 137 179 137 179 136 157 c 0,57,58
 136 141 136 141 137 132 c 0,59,60
 139 116 139 116 145 108 c 1,0,1
EndSplineSet
Validated: 33
EndChar

StartChar: K
Encoding: 75 75 46
Width: 615
GlyphClass: 2
Flags: W
LayerCount: 2
Fore
SplineSet
164 425 m 1,0,1
 197 422 197 422 224 444.5 c 128,-1,2
 251 467 251 467 280 518 c 0,3,4
 289 533 289 533 298 551 c 2,5,-1
 318 591 l 1,6,-1
 335 625 l 2,7,8
 369 693 369 693 399 723 c 0,9,10
 405 729 405 729 413 735 c 1,11,12
 426 751 426 751 443 757 c 1,13,14
 458 764 458 764 475 763 c 0,15,16
 480 763 480 763 485 764 c 0,17,18
 520 765 520 765 539 740 c 0,19,20
 544 732 544 732 548 724 c 1,21,22
 554 715 554 715 555 703 c 1,23,24
 559 682 559 682 547 655 c 0,25,26
 542 644 542 644 534 631 c 0,27,28
 531 627 531 627 528 622 c 0,29,30
 510 595 510 595 476 557 c 2,31,-1
 389 463 l 1,32,-1
 380 454 l 1,33,34
 358 418 358 418 346 384 c 1,35,36
 350 367 350 367 366 345 c 0,37,38
 378 328 378 328 427 275 c 0,39,40
 457 244 457 244 474.5 221 c 128,-1,41
 492 198 492 198 509 160 c 128,-1,42
 526 122 526 122 525 85 c 0,43,44
 525 68 525 68 523.5 58 c 128,-1,45
 522 48 522 48 515.5 33.5 c 128,-1,46
 509 19 509 19 497 8 c 0,47,48
 482 -7 482 -7 471 -9 c 0,49,50
 468 -10 468 -10 446 -10 c 0,51,52
 386 -10 386 -10 348 44 c 1,53,54
 324 80 324 80 304 154 c 0,55,56
 300 167 300 167 294 190 c 2,57,-1
 284 230 l 2,58,59
 280 246 280 246 275 261 c 0,60,61
 260 304 260 304 243 310 c 0,62,63
 239 311 239 311 232 306 c 2,64,-1
 223 300 l 1,65,66
 219 296 219 296 208 284 c 0,67,68
 188 264 188 264 181 255 c 0,69,70
 168 238 168 238 166 226 c 0,71,72
 164 212 164 212 172 177 c 0,73,74
 174 169 174 169 180.5 145 c 128,-1,75
 187 121 187 121 190 108 c 0,76,77
 199 65 199 65 195 39 c 0,78,79
 188 -1 188 -1 153 -15 c 0,80,81
 113 -30 113 -30 76 -11 c 0,82,83
 34 11 34 11 31 74 c 0,84,85
 29 97 29 97 38 160 c 0,86,87
 43 198 43 198 43 245 c 128,-1,88
 43 292 43 292 41 321 c 128,-1,89
 39 350 39 350 32 411 c 2,90,-1
 24 491 l 2,91,92
 23 500 23 500 19 532 c 128,-1,93
 15 564 15 564 14 582.5 c 128,-1,94
 13 601 13 601 14.5 628.5 c 128,-1,95
 16 656 16 656 23 677 c 0,96,97
 43 736 43 736 94 740 c 0,98,99
 136 743 136 743 158 716 c 0,100,101
 175 695 175 695 177 657 c 0,102,103
 178 639 178 639 175.5 616.5 c 128,-1,104
 173 594 173 594 169.5 571 c 128,-1,105
 166 548 166 548 166 541 c 0,106,107
 161 490 161 490 164 425 c 1,0,1
132 689 m 1,108,-1
 133 688 l 2,109,110
 133 689 133 689 132 690 c 1,111,-1
 132 689 l 1,108,-1
EndSplineSet
Validated: 33
EndChar

StartChar: L
Encoding: 76 76 47
Width: 478
GlyphClass: 2
Flags: W
LayerCount: 2
Fore
SplineSet
104 -13 m 1,0,1
 91 -12 91 -12 81 -10 c 0,2,3
 64 -6 64 -6 46 5.5 c 128,-1,4
 28 17 28 17 19 32 c 0,5,6
 13 43 13 43 12 71 c 0,7,8
 12 91 12 91 13 124 c 0,9,10
 13 140 13 140 15 173 c 128,-1,11
 17 206 17 206 17 215 c 0,12,13
 17 272 17 272 15 384.5 c 128,-1,14
 13 497 13 497 13 554 c 0,15,16
 13 559 13 559 11.5 586.5 c 128,-1,17
 10 614 10 614 11.5 634 c 128,-1,18
 13 654 13 654 18 670 c 0,19,20
 26 698 26 698 49 716 c 128,-1,21
 72 734 72 734 100 739 c 1,22,23
 129 743 129 743 156 733 c 128,-1,24
 183 723 183 723 199 698 c 0,25,26
 209 682 209 682 210 651 c 0,27,28
 211 629 211 629 207 596 c 0,29,30
 205 580 205 580 201.5 562 c 128,-1,31
 198 544 198 544 195 527 c 2,32,-1
 191 504 l 1,33,34
 160 317 160 317 178 121 c 1,35,-1
 179 121 l 1,36,37
 191 128 191 128 228 156 c 0,38,39
 264 183 264 183 281 189 c 0,40,41
 305 196 305 196 331 192 c 128,-1,42
 357 188 357 188 377 177 c 0,43,44
 408 160 408 160 415 135 c 1,45,46
 425 105 425 105 414 66 c 0,47,48
 402 21 402 21 373 6 c 0,49,50
 335 -14 335 -14 228 -17 c 0,51,52
 168 -19 168 -19 120 -15 c 1,53,54
 111 -16 111 -16 104 -13 c 1,0,1
EndSplineSet
Validated: 33
EndChar

StartChar: M
Encoding: 77 77 48
Width: 749
GlyphClass: 2
Flags: W
LayerCount: 2
Fore
SplineSet
164 228 m 1,0,1
 187 148 187 148 180 90 c 0,2,3
 174 42 174 42 154 23 c 0,4,5
 147 16 147 16 139 13 c 1,6,7
 117 -9 117 -9 75 -4 c 0,8,9
 51 -2 51 -2 29 9.5 c 128,-1,10
 7 21 7 21 -1 40 c 0,11,12
 -11 61 -11 61 -8 115 c 0,13,14
 -5 155 -5 155 6 219 c 0,15,16
 12 254 12 254 24 316 c 0,17,18
 37 378 37 378 39 395 c 0,19,20
 42 420 42 420 44 444 c 0,21,22
 47 469 47 469 49 499.5 c 128,-1,23
 51 530 51 530 53 548 c 0,24,25
 54 556 54 556 54 583 c 0,26,27
 54 612 54 612 56 629 c 0,28,29
 61 691 61 691 90 713 c 0,30,31
 113 731 113 731 140 720 c 1,32,33
 159 711 159 711 179 685 c 0,34,35
 205 651 205 651 245 565 c 0,36,37
 303 440 303 440 305 435 c 0,38,39
 320 406 320 406 331 392 c 0,40,41
 341 379 341 379 345 378 c 1,42,-1
 351 381 l 2,43,44
 353 383 353 383 361 400 c 0,45,46
 366 411 366 411 383 450 c 0,47,48
 422 542 422 542 443 586 c 0,49,50
 483 670 483 670 515 708 c 0,51,52
 536 734 536 734 555 743 c 1,53,54
 582 754 582 754 605 736 c 1,55,56
 637 708 637 708 654 628 c 0,57,58
 667 568 667 568 673 469 c 0,59,60
 676 415 676 415 676 362 c 0,61,62
 677 305 677 305 677 253 c 2,63,-1
 677 186 l 2,64,65
 677 183 677 183 686 118 c 0,66,67
 690 92 690 92 690 77 c 1,68,69
 692 53 692 53 686 42 c 1,70,71
 673 11 673 11 627 -4 c 0,72,73
 564 -25 564 -25 533 22 c 0,74,75
 510 57 510 57 514 116 c 0,76,77
 515 133 515 133 524 214 c 0,78,79
 534 296 534 296 538 345 c 0,80,81
 545 419 545 419 546 462 c 1,82,83
 544 486 544 486 542 506 c 1,84,85
 536 499 536 499 529 486 c 0,86,87
 524 478 524 478 483 392 c 1,88,89
 451 322 451 322 424 288 c 0,90,91
 383 234 383 234 336 232 c 0,92,93
 297 230 297 230 261 275 c 0,94,95
 236 306 236 306 207 368 c 2,96,-1
 159 470 l 1,97,-1
 155 479 l 1,98,99
 148 440 148 440 148 393.5 c 128,-1,100
 148 347 148 347 151.5 318 c 128,-1,101
 155 289 155 289 164 228 c 1,0,1
EndSplineSet
Validated: 33
EndChar

StartChar: N
Encoding: 78 78 49
Width: 643
GlyphClass: 2
Flags: W
LayerCount: 2
Fore
SplineSet
189 388 m 1,0,1
 173 314 173 314 173 181 c 1,2,3
 181 138 181 138 182 124 c 1,4,5
 194 44 194 44 172 12 c 0,6,7
 155 -12 155 -12 127 -19.5 c 128,-1,8
 99 -27 99 -27 71 -20 c 0,9,10
 43 -14 43 -14 21 5 c 128,-1,11
 -1 24 -1 24 -6 52 c 0,12,13
 -14 100 -14 100 -3 172 c 0,14,15
 -1 182 -1 182 6.5 223 c 128,-1,16
 14 264 14 264 16 285 c 0,17,18
 28 392 28 392 28 494 c 0,19,20
 28 496 28 496 25 544 c 1,21,22
 21 588 21 588 23 618 c 0,23,24
 25 662 25 662 39 686 c 0,25,26
 59 722 59 722 99 714 c 0,27,28
 116 710 116 710 135 690 c 0,29,30
 151 673 151 673 169 645 c 0,31,32
 200 597 200 597 241 516 c 1,33,-1
 308 377 l 2,34,35
 347 296 347 296 354 284 c 2,36,-1
 401 208 l 2,37,38
 418 182 418 182 430 167 c 1,39,-1
 431 172 l 1,40,41
 432 185 432 185 433 203 c 0,42,43
 434 235 434 235 432 279 c 0,44,45
 429 373 429 373 413 460 c 0,46,47
 411 472 411 472 402 507 c 0,48,49
 391 552 391 552 387 571 c 0,50,51
 368 657 368 657 383 692 c 0,52,53
 398 726 398 726 440 734 c 0,54,55
 462 739 462 739 502 736 c 0,56,57
 555 732 555 732 574 676 c 0,58,59
 588 635 588 635 583 567 c 1,60,61
 581 520 581 520 569 452 c 0,62,63
 555 374 555 374 555 373 c 0,64,65
 551 343 551 343 549 309.5 c 128,-1,66
 547 276 547 276 545.5 234 c 128,-1,67
 544 192 544 192 543 170 c 1,68,-1
 543 136 l 1,69,70
 544 108 544 108 544 92 c 0,71,72
 541 31 541 31 511 9 c 1,73,74
 490 -5 490 -5 468 -2 c 0,75,76
 454 -1 454 -1 441 8 c 1,77,78
 415 15 415 15 388 52 c 0,79,80
 369 77 369 77 342 127 c 2,81,-1
 298 210 l 2,82,83
 263 276 263 276 244 309 c 0,84,85
 217 354 217 354 197 378 c 2,86,-1
 189 388 l 1,0,1
EndSplineSet
Validated: 33
EndChar

StartChar: O
Encoding: 79 79 50
Width: 746
GlyphClass: 2
Flags: W
LayerCount: 2
Fore
SplineSet
46 200 m 1,0,1
 43 199 43 199 39 198 c 0,2,3
 32 197 32 197 26 201.5 c 128,-1,4
 20 206 20 206 19 214 c 0,5,6
 -4 384 -4 384 45 503 c 0,7,8
 77 579 77 579 127 628.5 c 128,-1,9
 177 678 177 678 234.5 697 c 128,-1,10
 292 716 292 716 352.5 712.5 c 128,-1,11
 413 709 413 709 470 683 c 0,12,13
 547 649 547 649 602 584.5 c 128,-1,14
 657 520 657 520 679 432 c 256,15,16
 701 344 701 344 670 239 c 0,17,18
 642 145 642 145 584 82 c 0,19,20
 525 17 525 17 454 -9 c 0,21,22
 385 -35 385 -35 309 -28 c 0,23,24
 217 -20 217 -20 145 40 c 128,-1,25
 73 100 73 100 46 200 c 1,0,1
477 201 m 1,26,27
 509 270 509 270 497 347 c 0,28,29
 491 387 491 387 464 424 c 0,30,31
 438 461 438 461 401 484 c 0,32,33
 359 509 359 509 319 507 c 1,34,35
 271 492 271 492 232 449 c 128,-1,36
 193 406 193 406 174 350 c 1,37,38
 150 288 150 288 164 225 c 128,-1,39
 178 162 178 162 230 128 c 0,40,41
 287 91 287 91 354 103 c 0,42,43
 372 106 372 106 389 113 c 1,44,45
 422 134 422 134 450 166 c 0,46,47
 465 183 465 183 477 201 c 1,26,27
EndSplineSet
Validated: 33
EndChar

StartChar: P
Encoding: 80 80 51
Width: 583
GlyphClass: 2
Flags: W
LayerCount: 2
Fore
SplineSet
200 284 m 1,0,1
 197 278 197 278 194.5 271 c 128,-1,2
 192 264 192 264 190 255 c 128,-1,3
 188 246 188 246 187 240.5 c 128,-1,4
 186 235 186 235 185.5 222.5 c 128,-1,5
 185 210 185 210 185 205.5 c 128,-1,6
 185 201 185 201 184.5 185.5 c 128,-1,7
 184 170 184 170 184 166 c 0,8,9
 183 121 183 121 175.5 87.5 c 128,-1,10
 168 54 168 54 146 25 c 0,11,12
 121 -8 121 -8 85 -17 c 128,-1,13
 49 -26 49 -26 18 -11 c 1,14,15
 -15 2 -15 2 -37 31.5 c 128,-1,16
 -59 61 -59 61 -62 98 c 0,17,18
 -65 146 -65 146 -43 163 c 0,19,20
 -28 174 -28 174 5 172 c 1,21,22
 35 169 35 169 43 171 c 0,23,24
 56 175 56 175 59 196 c 0,25,26
 71 266 71 266 67 326 c 0,27,28
 66 343 66 343 54 432 c 0,29,30
 44 506 44 506 46 548 c 0,31,32
 51 690 51 690 166 723 c 0,33,34
 273 754 273 754 358 726 c 1,35,36
 447 698 447 698 497 612 c 0,37,38
 524 567 524 567 524 514 c 128,-1,39
 524 461 524 461 503 415 c 128,-1,40
 482 369 482 369 446 332 c 0,41,42
 413 298 413 298 373.5 278.5 c 128,-1,43
 334 259 334 259 287.5 259 c 128,-1,44
 241 259 241 259 200 284 c 1,0,1
193 450 m 1,45,46
 220 428 220 428 250 422.5 c 128,-1,47
 280 417 280 417 304.5 425 c 128,-1,48
 329 433 329 433 348 450 c 0,49,50
 378 477 378 477 382 512.5 c 128,-1,51
 386 548 386 548 357 581 c 0,52,53
 333 607 333 607 305.5 614.5 c 128,-1,54
 278 622 278 622 255.5 614 c 128,-1,55
 233 606 233 606 215 587 c 0,56,57
 191 561 191 561 184 525 c 128,-1,58
 177 489 177 489 193 450 c 1,45,46
EndSplineSet
Validated: 33
EndChar

StartChar: Q
Encoding: 81 81 52
Width: 799
GlyphClass: 2
Flags: W
LayerCount: 2
Fore
SplineSet
552 22 m 1,0,-1
 549 22 l 1,1,2
 543 21 543 21 535 17 c 2,3,-1
 519 8 l 2,4,5
 508 2 508 2 506 1 c 0,6,7
 476 -13 476 -13 437.5 -16.5 c 128,-1,8
 399 -20 399 -20 374.5 -17.5 c 128,-1,9
 350 -15 350 -15 309 -9 c 0,10,11
 210 6 210 6 139 64 c 128,-1,12
 68 122 68 122 34 204.5 c 128,-1,13
 0 287 0 287 0 384 c 0,14,15
 0 506 0 506 56 577 c 0,16,17
 131 672 131 672 273 704 c 1,18,19
 318 713 318 713 365.5 714 c 128,-1,20
 413 715 413 715 463 704 c 1,21,22
 512 692 512 692 551 667 c 0,23,24
 613 626 613 626 653 553 c 0,25,26
 693 479 693 479 704 394 c 0,27,28
 713 320 713 320 698.5 250 c 128,-1,29
 684 180 684 180 643 128 c 1,30,31
 673 127 673 127 695.5 111 c 128,-1,32
 718 95 718 95 730 70 c 1,33,34
 746 40 746 40 738.5 2.5 c 128,-1,35
 731 -35 731 -35 700 -52 c 0,36,37
 653 -77 653 -77 601 -29 c 0,38,39
 592 -20 592 -20 570 5 c 0,40,41
 557 19 557 19 552 22 c 1,0,-1
470 123 m 1,42,-1
 466 127 l 2,43,44
 445 147 445 147 435 160 c 0,45,46
 416 184 416 184 412 206 c 0,47,48
 407 238 407 238 433 261 c 0,49,50
 472 297 472 297 536 251 c 0,51,52
 547 243 547 243 558 233 c 1,53,54
 558 236 558 236 559 239 c 0,55,56
 576 287 576 287 578 336.5 c 128,-1,57
 580 386 580 386 566.5 431 c 128,-1,58
 553 476 553 476 527 512.5 c 128,-1,59
 501 549 501 549 459.5 572.5 c 128,-1,60
 418 596 418 596 366 602 c 0,61,62
 279 612 279 612 239 568 c 0,63,64
 201 525 201 525 184 456.5 c 128,-1,65
 167 388 167 388 175 318 c 128,-1,66
 183 248 183 248 213 197 c 0,67,68
 240 152 240 152 307 121 c 0,69,70
 314 118 314 118 341 115 c 0,71,72
 372 111 372 111 403 112 c 0,73,74
 438 113 438 113 458 119 c 0,75,76
 466 121 466 121 470 123 c 1,42,-1
EndSplineSet
Validated: 33
EndChar

StartChar: R
Encoding: 82 82 53
Width: 661
GlyphClass: 2
Flags: W
LayerCount: 2
Fore
SplineSet
193 450 m 1,0,1
 220 428 220 428 250 422.5 c 128,-1,2
 280 417 280 417 304.5 425 c 128,-1,3
 329 433 329 433 348 450 c 0,4,5
 378 477 378 477 382 512.5 c 128,-1,6
 386 548 386 548 357 581 c 0,7,8
 333 607 333 607 305.5 614.5 c 128,-1,9
 278 622 278 622 255.5 614 c 128,-1,10
 233 606 233 606 215 587 c 0,11,12
 191 561 191 561 184 525 c 128,-1,13
 177 489 177 489 193 450 c 1,0,1
217 267 m 1,14,15
 206 268 206 268 190 255 c 1,16,17
 186 235 186 235 184 166 c 0,18,19
 183 119 183 119 176 88 c 0,20,21
 168 54 168 54 146 25 c 0,22,23
 121 -8 121 -8 85 -17 c 128,-1,24
 49 -26 49 -26 18 -11 c 1,25,26
 -15 2 -15 2 -37 31.5 c 128,-1,27
 -59 61 -59 61 -62 98 c 0,28,29
 -65 146 -65 146 -43 163 c 0,30,31
 -28 174 -28 174 5 172 c 1,32,33
 35 169 35 169 43 171 c 0,34,35
 56 175 56 175 59 196 c 0,36,37
 71 266 71 266 67 326 c 0,38,39
 66 343 66 343 54 432 c 0,40,41
 44 506 44 506 46 548 c 0,42,43
 51 690 51 690 166 723 c 0,44,45
 273 754 273 754 358 726 c 1,46,47
 447 698 447 698 497 612 c 0,48,49
 524 567 524 567 524 514 c 128,-1,50
 524 461 524 461 503 415 c 128,-1,51
 482 369 482 369 446 332 c 0,52,53
 403 288 403 288 350 270 c 1,54,55
 367 223 367 223 400 193.5 c 128,-1,56
 433 164 433 164 478 161 c 1,57,-1
 490 161 l 1,58,-1
 510 161 l 2,59,60
 542 161 542 161 558 152 c 0,61,62
 602 126 602 126 602 82 c 1,63,64
 603 40 603 40 565 15 c 1,65,66
 532 -10 532 -10 478.5 -3.5 c 128,-1,67
 425 3 425 3 370 44 c 0,68,69
 347 62 347 62 318 109 c 1,70,-1
 292 154 l 2,71,72
 276 183 276 183 270 192 c 0,73,74
 243 239 243 239 224 260 c 1,75,-1
 217 267 l 1,14,15
EndSplineSet
Validated: 33
EndChar

StartChar: S
Encoding: 83 83 54
Width: 656
GlyphClass: 2
Flags: W
LayerCount: 2
Fore
SplineSet
447 243 m 1,0,1
 435 258 435 258 415 271 c 0,2,3
 372 300 372 300 274 323 c 0,4,5
 263 325 263 325 236 331 c 2,6,-1
 193 340 l 2,7,8
 178 344 178 344 157.5 350 c 128,-1,9
 137 356 137 356 123 361 c 0,10,11
 43 392 43 392 43 453 c 0,12,13
 43 512 43 512 63 565 c 128,-1,14
 83 618 83 618 118 656 c 128,-1,15
 153 694 153 694 200 719.5 c 128,-1,16
 247 745 247 745 301.5 748.5 c 128,-1,17
 356 752 356 752 415 735 c 0,18,19
 468 719 468 719 509 686 c 128,-1,20
 550 653 550 653 566 603 c 0,21,22
 573 579 573 579 567.5 552.5 c 128,-1,23
 562 526 562 526 547 505 c 0,24,25
 530 482 530 482 506.5 473.5 c 128,-1,26
 483 465 483 465 450 477 c 1,27,28
 418 492 418 492 389 544 c 1,29,-1
 387 546 l 1,30,31
 332 582 332 582 308 590 c 0,32,33
 268 603 268 603 236 578 c 0,34,35
 203 552 203 552 198 523 c 0,36,37
 193 499 193 499 199 475 c 0,38,39
 205 449 205 449 219 440 c 0,40,41
 232 431 232 431 247 426 c 1,42,43
 256 425 256 425 273 422 c 128,-1,44
 290 419 290 419 298 418 c 0,45,46
 307 417 307 417 315 415 c 1,47,48
 324 415 324 415 347 414.5 c 128,-1,49
 370 414 370 414 387.5 412.5 c 128,-1,50
 405 411 405 411 419 409 c 0,51,52
 526 390 526 390 572 317 c 0,53,54
 621 239 621 239 577 139 c 0,55,56
 551 79 551 79 495 40 c 0,57,58
 439 0 439 0 374.5 -14.5 c 128,-1,59
 310 -29 310 -29 243 -24 c 0,60,61
 137 -16 137 -16 71 33 c 0,62,63
 -6 90 -6 90 5 176 c 0,64,65
 8 200 8 200 27.5 227 c 128,-1,66
 47 254 47 254 73 272 c 1,67,68
 90 285 90 285 109 292 c 128,-1,69
 128 299 128 299 149.5 296 c 128,-1,70
 171 293 171 293 187 275 c 0,71,72
 205 255 205 255 202 223 c 2,73,-1
 199 199 l 1,74,75
 196 184 196 184 195 177 c 0,76,77
 192 154 192 154 200 138 c 0,78,79
 210 117 210 117 244 100 c 0,80,81
 259 92 259 92 297 93 c 128,-1,82
 335 94 335 94 376 104 c 0,83,84
 419 115 419 115 445 132 c 0,85,86
 469 148 469 148 470 164 c 0,87,88
 471 176 471 176 469 187 c 1,89,90
 466 196 466 196 461 208 c 2,91,-1
 452 228 l 2,92,93
 449 237 449 237 447 243 c 1,0,1
EndSplineSet
Validated: 33
EndChar

StartChar: T
Encoding: 84 84 55
Width: 630
GlyphClass: 2
Flags: W
LayerCount: 2
Fore
SplineSet
50 728 m 0,0,1
 61 727 61 727 79 725 c 1,2,3
 116 718 116 718 121 718 c 0,4,5
 179 716 179 716 280 722 c 0,6,7
 398 729 398 729 443 729 c 0,8,9
 492 729 492 729 516 722 c 0,10,11
 571 708 571 708 571 661 c 0,12,13
 571 605 571 605 527 587 c 0,14,15
 500 575 500 575 445 580 c 1,16,17
 376 585 376 585 367 584 c 0,18,19
 337 583 337 583 330 569 c 0,20,21
 316 539 316 539 315.5 490 c 128,-1,22
 315 441 315 441 321 402 c 0,23,24
 325 372 325 372 341 293 c 0,25,26
 362 186 362 186 366 140 c 0,27,28
 373 58 373 58 346 15 c 0,29,30
 324 -21 324 -21 260 -35 c 0,31,32
 224 -42 224 -42 200 -28 c 0,33,34
 179 -15 179 -15 169 12 c 0,35,36
 156 45 156 45 161 109 c 0,37,38
 164 152 164 152 179 233 c 0,39,40
 198 337 198 337 203 367 c 0,41,42
 224 512 224 512 197 587 c 1,43,44
 181 585 181 585 159 577 c 0,45,46
 109 559 109 559 96 556 c 0,47,48
 43 545 43 545 11 566 c 0,49,50
 -18 585 -18 585 -24 623 c 1,51,52
 -28 655 -28 655 -15 685 c 0,53,54
 0 718 0 718 27 725 c 0,55,56
 32 727 32 727 38 727 c 0,57,58
 44 728 44 728 50 728 c 0,0,1
EndSplineSet
Validated: 33
EndChar

StartChar: U
Encoding: 85 85 56
Width: 699
GlyphClass: 2
Flags: W
LayerCount: 2
Fore
SplineSet
204 546 m 1,0,1
 204 539 204 539 201 533 c 1,2,-1
 191 494 l 2,3,4
 184 468 184 468 180 451.5 c 128,-1,5
 176 435 176 435 175 420 c 0,6,7
 173 395 173 395 172 373 c 0,8,9
 171 332 171 332 175 297 c 0,10,11
 188 167 188 167 269 109 c 0,12,13
 321 72 321 72 370 86 c 0,14,15
 442 108 442 108 473 231 c 0,16,17
 497 326 497 326 489 435 c 0,18,19
 488 450 488 450 473 527 c 0,20,21
 461 588 461 588 467 628 c 0,22,23
 470 648 470 648 484.5 667 c 128,-1,24
 499 686 499 686 518 697 c 1,25,26
 536 710 536 710 561.5 707 c 128,-1,27
 587 704 587 704 604 682 c 0,28,29
 643 631 643 631 641 543 c 0,30,31
 640 522 640 522 637.5 499.5 c 128,-1,32
 635 477 635 477 630 446 c 128,-1,33
 625 415 625 415 624 408 c 0,34,35
 622 395 622 395 618.5 366 c 128,-1,36
 615 337 615 337 612.5 319 c 128,-1,37
 610 301 610 301 604.5 276 c 128,-1,38
 599 251 599 251 593 231 c 0,39,40
 573 166 573 166 537 105.5 c 128,-1,41
 501 45 501 45 454 5 c 0,42,43
 334 -97 334 -97 197 -19 c 1,44,45
 110 32 110 32 78 205 c 0,46,47
 72 239 72 239 68 276 c 0,48,49
 63 315 63 315 61.5 341.5 c 128,-1,50
 60 368 60 368 58 407.5 c 128,-1,51
 56 447 56 447 55 459 c 0,52,53
 54 470 54 470 51.5 495.5 c 128,-1,54
 49 521 49 521 48 537.5 c 128,-1,55
 47 554 47 554 47.5 577.5 c 128,-1,56
 48 601 48 601 52 619 c 0,57,58
 56 636 56 636 72 658.5 c 128,-1,59
 88 681 88 681 107 697 c 0,60,61
 131 716 131 716 154 717 c 1,62,63
 184 717 184 717 200 685 c 0,64,65
 202 682 202 682 203 678 c 1,66,67
 208 673 208 673 208 665 c 1,68,69
 221 620 221 620 204 546 c 1,0,1
EndSplineSet
Validated: 33
EndChar

StartChar: V
Encoding: 86 86 57
Width: 654
GlyphClass: 2
Flags: W
LayerCount: 2
Fore
SplineSet
409 429 m 1,0,-1
 411 446 l 2,1,2
 413 464 413 464 415 501 c 0,3,4
 417 540 417 540 420 561 c 0,5,6
 429 637 429 637 462 677 c 0,7,8
 471 689 471 689 487 698 c 0,9,10
 491 701 491 701 494 703 c 0,11,12
 497 704 497 704 500 706 c 2,13,-1
 506 709 l 2,14,15
 515 714 515 714 524 708 c 1,16,17
 538 707 538 707 554 699 c 0,18,19
 594 678 594 678 595 622 c 0,20,21
 596 582 596 582 575 522 c 0,22,23
 567 499 567 499 555 471 c 128,-1,24
 543 443 543 443 534 425 c 2,25,-1
 514 385 l 2,26,27
 502 363 502 363 500 358 c 0,28,29
 493 344 493 344 405 151 c 0,30,31
 404 147 404 147 392 115 c 0,32,33
 380 84 380 84 370 64 c 0,34,35
 355 33 355 33 342 18 c 0,36,37
 319 -8 319 -8 295 -1 c 0,38,39
 259 9 259 9 233 69 c 0,40,41
 225 86 225 86 216 113 c 0,42,43
 205 146 205 146 204 148 c 0,44,45
 183 205 183 205 110 337 c 0,46,47
 39 466 39 466 14 529 c 0,48,49
 -5 578 -5 578 -6 615 c 0,50,51
 -7 645 -7 645 3 664 c 0,52,53
 17 690 17 690 48 695 c 0,54,55
 105 704 105 704 139 648 c 1,56,57
 159 617 159 617 171 559 c 0,58,59
 203 402 203 402 222 344 c 1,60,61
 263 256 263 256 294 181 c 1,62,-1
 296 177 l 1,63,64
 349 202 349 202 382 312 c 0,65,66
 393 350 393 350 408 426 c 1,67,-1
 409 429 l 1,0,-1
EndSplineSet
Validated: 33
EndChar

StartChar: W
Encoding: 87 87 58
Width: 840
GlyphClass: 2
Flags: W
LayerCount: 2
Fore
SplineSet
162 35 m 1,0,1
 157 44 157 44 153 54 c 0,2,3
 146 72 146 72 137 101 c 0,4,5
 127 134 127 134 125 138 c 0,6,7
 84 244 84 244 44 421 c 0,8,9
 40 441 40 441 29 474 c 0,10,11
 14 517 14 517 11 529 c 0,12,13
 -9 599 -9 599 4 651 c 0,14,15
 12 684 12 684 33 699 c 0,16,17
 53 713 53 713 80 708 c 0,18,19
 102 704 102 704 122.5 689 c 128,-1,20
 143 674 143 674 157 653 c 0,21,22
 179 620 179 620 191 531 c 0,23,24
 192 522 192 522 198 461 c 0,25,26
 202 420 202 420 207 393 c 0,27,28
 212 364 212 364 235 275 c 0,29,30
 244 241 244 241 249 217 c 1,31,-1
 255 234 l 2,32,33
 257 239 257 239 290 347 c 0,34,35
 313 423 313 423 328 462 c 0,36,37
 338 490 338 490 346 504 c 0,38,39
 351 513 351 513 355 518 c 0,40,41
 362 527 362 527 370 530 c 0,42,43
 392 538 392 538 412 520 c 0,44,45
 426 507 426 507 440 482 c 1,46,47
 458 446 458 446 484 368 c 1,48,49
 520 254 520 254 521 253 c 0,50,51
 528 232 528 232 534 221 c 1,52,53
 538 230 538 230 541.5 244 c 128,-1,54
 545 258 545 258 549 279 c 2,55,-1
 553 300 l 1,56,-1
 572 373 l 2,57,58
 585 424 585 424 593.5 462 c 128,-1,59
 602 500 602 500 608 536 c 0,60,61
 609 539 609 539 612 602 c 0,62,63
 615 648 615 648 630 675 c 0,64,65
 657 722 657 722 695 718 c 0,66,67
 716 716 716 716 739 703 c 0,68,69
 765 688 765 688 775 669 c 0,70,71
 782 655 782 655 781 627 c 0,72,73
 781 614 781 614 778 596 c 1,74,-1
 776 566 l 2,75,76
 775 557 775 557 770 550 c 1,77,78
 759 498 759 498 738 424 c 0,79,80
 713 338 713 338 657 169 c 0,81,82
 656 166 656 166 647 133 c 0,83,84
 638 102 638 102 631 82 c 0,85,86
 619 51 619 51 607 34 c 0,87,88
 588 7 588 7 564 9 c 0,89,90
 542 11 542 11 522 33 c 0,91,92
 507 50 507 50 492 81 c 1,93,94
 469 125 469 125 441 213 c 0,95,96
 435 230 435 230 426 258 c 2,97,-1
 411 306 l 2,98,99
 404 327 404 327 398 343 c 0,100,101
 389 370 389 370 382 383 c 1,102,103
 378 376 378 376 374 367 c 0,104,105
 363 341 363 341 357 324 c 0,106,107
 354 315 354 315 342 256 c 0,108,109
 326 179 326 179 319 150 c 0,110,111
 305 86 305 86 293 49 c 0,112,113
 285 26 285 26 278 12 c 0,114,115
 268 -7 268 -7 257 -14 c 0,116,117
 244 -21 244 -21 222 -18 c 0,118,119
 210 -16 210 -16 200 -10 c 1,120,-1
 190 -6 l 2,121,122
 164 5 164 5 162 35 c 1,0,1
536 74 m 0,123,-1
EndSplineSet
Validated: 33
EndChar

StartChar: X
Encoding: 88 88 59
Width: 618
GlyphClass: 2
Flags: W
LayerCount: 2
Fore
SplineSet
317 481 m 2,0,-1
 318 483 l 1,1,2
 323 496 323 496 332 525 c 0,3,4
 357 606 357 606 369 635 c 0,5,6
 396 702 396 702 427 727 c 0,7,8
 448 744 448 744 472 742 c 1,9,10
 485 742 485 742 497 735 c 1,11,12
 515 733 515 733 534 720 c 0,13,14
 556 705 556 705 558 682 c 0,15,16
 560 663 560 663 548 639 c 0,17,18
 533 610 533 610 483 552 c 0,19,20
 422 482 422 482 407 461 c 0,21,22
 372 414 372 414 372 387 c 0,23,24
 372 365 372 365 405 308 c 0,25,26
 421 280 421 280 478 195 c 0,27,28
 528 120 528 120 544 86 c 0,29,30
 557 60 557 60 559 41 c 0,31,32
 562 14 562 14 546 0 c 0,33,34
 525 -19 525 -19 479 -22 c 0,35,36
 417 -26 417 -26 375 31 c 0,37,38
 347 68 347 68 323 145 c 0,39,40
 321 150 321 150 305 204 c 1,41,-1
 295 235 l 1,42,43
 282 255 282 255 264 280 c 1,44,45
 258 270 258 270 249 251 c 0,46,47
 239 231 239 231 205 153 c 0,48,49
 175 83 175 83 158 52 c 1,50,51
 146 28 146 28 137 14 c 0,52,53
 124 -5 124 -5 113 -10 c 0,54,55
 98 -16 98 -16 73 -14 c 0,56,57
 51 -13 51 -13 35 -7 c 0,58,59
 8 4 8 4 -2 26 c 0,60,61
 -11 45 -11 45 -5 71 c 0,62,63
 4 108 4 108 46 162 c 0,64,65
 68 191 68 191 120 245 c 0,66,67
 161 288 161 288 165 296 c 0,68,69
 186 331 186 331 186 359 c 0,70,71
 186 381 186 381 151 432 c 1,72,-1
 112 484 l 1,73,-1
 75 533 l 2,74,75
 28 596 28 596 18 634 c 0,76,77
 10 662 10 662 18 684 c 0,78,79
 27 708 27 708 54 721 c 1,80,81
 74 733 74 733 107.5 731 c 128,-1,82
 141 729 141 729 160 711 c 0,83,84
 165 706 165 706 173 692 c 0,85,86
 179 681 179 681 187 663 c 2,87,-1
 223 580 l 1,88,-1
 267 473 l 1,89,90
 280 463 280 463 291 461 c 0,91,92
 299 459 299 459 305 462 c 1,93,-1
 308 465 l 1,94,95
 312 473 312 473 317 481 c 2,0,-1
EndSplineSet
Validated: 33
EndChar

StartChar: Y
Encoding: 89 89 60
Width: 591
GlyphClass: 2
Flags: W
LayerCount: 2
Fore
SplineSet
187 581 m 2,0,-1
 188 578 l 2,1,2
 198 551 198 551 205 537 c 2,3,-1
 232 484 l 1,4,-1
 269 411 l 1,5,-1
 273 413 l 1,6,7
 282 419 282 419 293 436 c 0,8,9
 313 466 313 466 338 533 c 0,10,11
 344 549 344 549 377 644 c 1,12,-1
 392 685 l 2,13,14
 396 694 396 694 399 699 c 0,15,16
 404 708 404 708 408 712 c 0,17,18
 425 726 425 726 458 727 c 0,19,20
 489 728 489 728 507 715 c 0,21,22
 530 699 530 699 533 665 c 0,23,24
 535 639 535 639 525 615 c 0,25,26
 519 603 519 603 509.5 589.5 c 128,-1,27
 500 576 500 576 486.5 560.5 c 128,-1,28
 473 545 473 545 470 542 c 2,29,-1
 420 478 l 2,30,31
 405 458 405 458 380 418.5 c 128,-1,32
 355 379 355 379 344 350 c 0,33,34
 337 331 337 331 345 269 c 0,35,36
 346 256 346 256 352.5 212.5 c 128,-1,37
 359 169 359 169 362 146 c 0,38,39
 370 71 370 71 357 34 c 0,40,41
 348 7 348 7 329 -6 c 0,42,43
 308 -20 308 -20 276 -17 c 0,44,45
 229 -12 229 -12 210 34 c 0,46,47
 197 66 197 66 197 123 c 1,48,49
 198 135 198 135 204 219 c 0,50,51
 208 271 208 271 205 290 c 0,52,53
 199 330 199 330 176 366 c 0,54,55
 153 401 153 401 113 444 c 0,56,57
 109 449 109 449 92 468 c 2,58,-1
 68 493 l 2,59,60
 61 500 61 500 47 517 c 128,-1,61
 33 534 33 534 25 545 c 128,-1,62
 17 556 17 556 8 571.5 c 128,-1,63
 -1 587 -1 587 -8 602 c 1,64,65
 -19 631 -19 631 -15 659 c 128,-1,66
 -11 687 -11 687 7 707 c 0,67,68
 26 728 26 728 53 730.5 c 128,-1,69
 80 733 80 733 111 713 c 1,70,71
 142 690 142 690 165 638 c 0,72,73
 169 631 169 631 185 590 c 0,74,75
 186 586 186 586 187 581 c 2,0,-1
EndSplineSet
Validated: 33
EndChar

StartChar: Z
Encoding: 90 90 61
Width: 652
GlyphClass: 2
Flags: W
LayerCount: 2
Fore
SplineSet
17 55 m 1,0,1
 13 81 13 81 33 112 c 0,2,3
 43 129 43 129 69 155 c 1,4,5
 94 182 94 182 99 189 c 0,6,7
 103 194 103 194 144 249.5 c 128,-1,8
 185 305 185 305 207 332 c 0,9,10
 208 332 208 332 232 360 c 1,11,-1
 276 416 l 2,12,13
 297 444 297 444 314 471 c 0,14,15
 344 519 344 519 350 548 c 0,16,17
 354 567 354 567 345 571.5 c 128,-1,18
 336 576 336 576 302 572 c 0,19,20
 294 571 294 571 269 567 c 0,21,22
 247 564 247 564 236 563 c 0,23,24
 230 563 230 563 225 564 c 1,25,26
 154 556 154 556 119 559 c 0,27,28
 37 567 37 567 33 628 c 0,29,30
 31 651 31 651 41 667 c 0,31,32
 50 682 50 682 71 693 c 0,33,34
 79 697 79 697 101 700 c 0,35,36
 119 703 119 703 148 705 c 0,37,38
 199 708 199 708 278 711 c 0,39,40
 447 716 447 716 495 712 c 0,41,42
 512 710 512 710 521 707 c 0,43,44
 534 702 534 702 545 689 c 0,45,46
 586 644 586 644 541 575 c 0,47,48
 532 561 532 561 518 546 c 1,49,-1
 491 514 l 1,50,51
 477 499 477 499 474 495 c 0,52,53
 398 407 398 407 311 292 c 1,54,55
 254 219 254 219 222 170 c 0,56,57
 204 142 204 142 195 126 c 0,58,59
 193 121 193 121 191 117 c 1,60,61
 201 118 201 118 217 122 c 0,62,63
 231 126 231 126 252 134 c 2,64,-1
 266 139 l 2,65,66
 273 142 273 142 276 142 c 0,67,68
 279 143 279 143 299 148 c 2,69,-1
 333 158 l 2,70,71
 347 162 347 162 369 167 c 128,-1,72
 391 172 391 172 412.5 175 c 128,-1,73
 434 178 434 178 454 180 c 0,74,75
 515 184 515 184 550 166 c 0,76,77
 597 141 597 141 593 82 c 0,78,79
 590 36 590 36 554 9 c 0,80,81
 542 1 542 1 515 -5 c 0,82,83
 492 -10 492 -10 457 -15 c 1,84,85
 393 -22 393 -22 304 -26 c 0,86,87
 223 -29 223 -29 150 -26 c 0,88,89
 94 -24 94 -24 68 -19 c 1,90,91
 62 -19 62 -19 56 -16 c 0,92,93
 54 -15 54 -15 53 -15 c 0,94,95
 21 -3 21 -3 20 29 c 1,96,97
 18 34 18 34 17 40 c 0,98,99
 16 47 16 47 17 55 c 1,0,1
EndSplineSet
Validated: 33
EndChar

StartChar: bracketleft
Encoding: 91 91 62
Width: 336
GlyphClass: 2
Flags: W
LayerCount: 2
Fore
SplineSet
86 -84 m 1,0,-1
 87 -85 l 1,1,-1
 86 -84 l 1,0,-1
137 627 m 1,2,3
 134 582 134 582 128 516 c 1,4,-1
 116 404 l 2,5,6
 112 359 112 359 107 292.5 c 128,-1,7
 102 226 102 226 102 181.5 c 128,-1,8
 102 137 102 137 105 70 c 0,9,10
 106 55 106 55 105 -1 c 0,11,12
 104 -44 104 -44 109 -68 c 0,13,14
 112 -85 112 -85 126 -89 c 0,15,16
 137 -92 137 -92 166 -88 c 0,17,18
 200 -84 200 -84 213 -86 c 0,19,20
 227 -88 227 -88 235 -96 c 0,21,22
 245 -105 245 -105 247 -121 c 0,23,24
 252 -159 252 -159 215 -179 c 0,25,26
 189 -194 189 -194 143 -197 c 0,27,28
 105 -200 105 -200 67 -195 c 0,29,30
 50 -193 50 -193 38 -189 c 0,31,32
 24 -185 24 -185 17.5 -179.5 c 128,-1,33
 11 -174 11 -174 9 -161 c 0,34,35
 8 -153 8 -153 8 -140 c 0,36,37
 8 -119 8 -119 12 -83 c 0,38,39
 13 -66 13 -66 18 -25 c 0,40,41
 22 5 22 5 22 11 c 0,42,43
 24 82 24 82 32.5 259 c 128,-1,44
 41 436 41 436 41 533 c 0,45,46
 41 541 41 541 37 569 c 0,47,48
 33 606 33 606 31 622 c 0,49,50
 28 655 28 655 30 675 c 0,51,52
 33 705 33 705 47 715 c 0,53,54
 58 722 58 722 84 722 c 0,55,56
 89 722 89 722 102 721 c 1,57,-1
 114 721 l 2,58,59
 116 721 116 721 138.5 723.5 c 128,-1,60
 161 726 161 726 176 726.5 c 128,-1,61
 191 727 191 727 216 726 c 1,62,63
 253 723 253 723 268 707 c 0,64,65
 288 685 288 685 267 648 c 1,66,67
 258 630 258 630 233 627 c 0,68,69
 220 625 220 625 191 627 c 0,70,71
 161 629 161 629 150 629 c 1,72,73
 143 628 143 628 137 627 c 1,2,3
EndSplineSet
Validated: 33
EndChar

StartChar: backslash
Encoding: 92 92 63
Width: 371
GlyphClass: 2
Flags: W
LayerCount: 2
Fore
SplineSet
-40 681 m 0,0,1
 -39 697 -39 697 -37 707 c 0,2,3
 -34 723 -34 723 -24 729 c 0,4,5
 -7 739 -7 739 15 724 c 0,6,7
 29 715 29 715 46 695 c 0,8,9
 77 658 77 658 85 633 c 0,10,11
 95 605 95 605 108 550 c 0,12,13
 122 495 122 495 130 469 c 0,14,15
 190 292 190 292 259 169 c 0,16,17
 295 104 295 104 303 84 c 0,18,19
 316 50 316 50 312 30 c 0,20,21
 309 15 309 15 299 6 c 1,22,23
 288 -2 288 -2 270 -3 c 128,-1,24
 252 -4 252 -4 234 15 c 0,25,26
 219 30 219 30 204 58 c 0,27,28
 180 103 180 103 150 187 c 0,29,30
 135 230 135 230 104 328 c 0,31,32
 79 408 79 408 72 422 c 1,33,-1
 58 456 l 2,34,35
 50 477 50 477 44 488 c 0,36,37
 43 491 43 491 36 503 c 2,38,-1
 21 528 l 2,39,40
 -2 568 -2 568 -16 596 c 0,41,42
 -24 614 -24 614 -30 629 c 1,43,44
 -38 632 -38 632 -38 641 c 0,45,46
 -38 642 -38 642 -39 656 c 1,47,-1
 -39 660 l 2,48,49
 -39 662 -39 662 -40 663 c 0,50,51
 -41 673 -41 673 -40 681 c 0,0,1
EndSplineSet
Validated: 33
EndChar

StartChar: bracketright
Encoding: 93 93 64
Width: 291
GlyphClass: 2
Flags: W
LayerCount: 2
Fore
SplineSet
229 -95 m 1,0,1
 232 -128 232 -128 232 -147 c 0,2,3
 232 -160 232 -160 231 -169 c 0,4,5
 229 -181 229 -181 222 -187 c 0,6,7
 216 -193 216 -193 201 -197 c 0,8,9
 188 -200 188 -200 170 -202 c 0,10,11
 132 -207 132 -207 93 -204 c 0,12,13
 46 -200 46 -200 19 -184 c 1,14,15
 -18 -164 -18 -164 -13 -127 c 0,16,17
 -11 -111 -11 -111 -1 -102 c 0,18,19
 8 -94 8 -94 22 -92 c 1,20,21
 35 -89 35 -89 71 -95 c 0,22,23
 100 -99 100 -99 112 -96 c 0,24,25
 126 -92 126 -92 129 -75 c 0,26,27
 134 -50 134 -50 134 -8 c 0,28,29
 133 49 133 49 134 63 c 0,30,31
 137 130 137 130 137 174.5 c 128,-1,32
 137 219 137 219 132.5 286 c 128,-1,33
 128 353 128 353 124 398 c 2,34,-1
 112 509 l 1,35,36
 106 576 106 576 103 621 c 1,37,38
 89 625 89 625 53 621 c 1,39,40
 36 617 36 617 12 620 c 128,-1,41
 -12 623 -12 623 -27 639 c 0,42,43
 -30 641 -30 641 -31 645 c 2,44,-1
 -33 651 l 2,45,46
 -34 655 -34 655 -35 662 c 2,47,-1
 -37 672 l 1,48,-1
 -37 681 l 1,49,50
 -35 695 -35 695 -21 704 c 0,51,52
 -11 710 -11 710 6 715 c 1,53,54
 34 721 34 721 78 722 c 0,55,56
 115 722 115 722 150 718 c 0,57,58
 166 716 166 716 177 714 c 0,59,60
 190 711 190 711 195 708 c 0,61,62
 210 698 210 698 213 668 c 0,63,64
 214 648 214 648 212 615 c 0,65,66
 211 603 211 603 205 562 c 0,67,68
 201 533 201 533 201 526 c 0,69,70
 198 434 198 434 208 266 c 0,71,72
 219 80 219 80 219 4 c 0,73,74
 219 -3 219 -3 222 -32 c 0,75,76
 227 -72 227 -72 228 -84 c 0,77,78
 229 -87 229 -87 229 -90 c 2,79,-1
 229 -95 l 1,0,1
148 655 m 1,80,-1
 149 656 l 1,81,-1
 148 656 l 1,82,-1
 148 655 l 1,80,-1
EndSplineSet
Validated: 33
EndChar

StartChar: asciicircum
Encoding: 94 94 65
Width: 517
GlyphClass: 2
Flags: W
LayerCount: 2
Fore
SplineSet
231 552 m 5,0,-1
 229 548 l 5,1,-1
 226 543 l 6,2,3
 225 540 225 540 224 538 c 5,4,-1
 224 536 l 5,5,6
 221 529 221 529 213 508 c 6,7,-1
 192 457 l 5,8,-1
 171 402 l 6,9,10
 151 352 151 352 137 323 c 4,11,12
 128 306 128 306 122 296 c 4,13,14
 113 282 113 282 106 278 c 4,15,16
 90 271 90 271 67 276 c 4,17,18
 42 282 42 282 34 298 c 4,19,20
 27 311 27 311 31 334 c 4,21,22
 34 353 34 353 44 380 c 4,23,24
 60 425 60 425 96 497 c 5,25,-1
 158 614 l 5,26,-1
 184 663 l 5,27,28
 193 683 193 683 199 695 c 4,29,30
 205 705 205 705 209 711 c 4,31,32
 217 721 217 721 227 720 c 4,33,34
 239 719 239 719 251 706 c 4,35,36
 259 697 259 697 268 683 c 4,37,38
 273 674 273 674 281 658 c 4,39,40
 288 645 288 645 290 642 c 4,41,42
 325 586 325 586 371 500 c 4,43,44
 378 489 378 489 417 438 c 4,45,46
 451 395 451 395 458 366 c 4,47,48
 459 359 459 359 458 347 c 4,49,50
 457 336 457 336 454 330 c 4,51,52
 440 299 440 299 410 297 c 4,53,54
 374 295 374 295 342 328 c 4,55,56
 319 353 319 353 296 401 c 4,57,58
 284 427 284 427 263 483 c 4,59,60
 245 529 245 529 237 542 c 4,61,62
 232 551 232 551 231 552 c 5,0,-1
229 554 m 5,63,-1
 228 553 l 5,64,-1
 229 554 l 5,63,-1
EndSplineSet
Validated: 33
EndChar

StartChar: underscore
Encoding: 95 95 66
Width: 611
GlyphClass: 2
Flags: W
LayerCount: 2
Fore
SplineSet
120 -76 m 1,0,-1
 392 -76 l 1,1,2
 455 -67 455 -67 478 -66 c 1,3,4
 509 -66 509 -66 526 -72 c 0,5,6
 554 -82 554 -82 552 -108 c 0,7,8
 550 -133 550 -133 538 -145 c 0,9,10
 529 -153 529 -153 507 -157 c 0,11,12
 489 -161 489 -161 460 -163 c 0,13,14
 414 -166 414 -166 334 -166 c 0,15,16
 299 -166 299 -166 203 -164 c 1,17,-1
 173 -164 l 1,18,19
 99 -169 99 -169 56 -171 c 1,20,-1
 13 -171 l 1,21,22
 4 -170 4 -170 -3 -169 c 0,23,24
 -13 -167 -13 -167 -18 -163 c 0,25,26
 -33 -150 -33 -150 -31 -127 c 0,27,28
 -27 -86 -27 -86 30 -76 c 0,29,30
 58 -71 58 -71 97 -74 c 2,31,-1
 120 -76 l 1,0,-1
EndSplineSet
Validated: 33
EndChar

StartChar: grave
Encoding: 96 96 67
Width: 251
GlyphClass: 2
Flags: W
LayerCount: 2
Fore
SplineSet
173 580 m 5,0,1
 168 577 168 577 162 576 c 4,2,3
 150 574 150 574 135 579 c 4,4,5
 110 588 110 588 77 614 c 4,6,7
 48 638 48 638 27 664 c 4,8,9
 16 677 16 677 10 688 c 4,10,11
 3 701 3 701 4 711 c 4,12,13
 6 728 6 728 22 734 c 4,14,15
 32 738 32 738 47 737 c 4,16,17
 64 736 64 736 88 728 c 4,18,19
 125 717 125 717 152 677.5 c 132,-1,20
 179 638 179 638 191 595 c 4,21,22
 195 582 195 582 183 579 c 4,23,24
 177 577 177 577 173 580 c 5,0,1
EndSplineSet
Validated: 1
EndChar

StartChar: a
Encoding: 97 97 68
Width: 585
GlyphClass: 2
Flags: W
LayerCount: 2
Fore
SplineSet
292 239 m 0,0,1
 291 240 291 240 290 240 c 0,2,3
 278 235 278 235 258 228 c 2,4,-1
 215 211 l 2,5,6
 196 203 196 203 183 196 c 1,7,-1
 149 165 l 1,8,9
 129 134 129 134 152 111 c 0,10,11
 162 100 162 100 178.5 97 c 128,-1,12
 195 94 195 94 214 101 c 1,13,14
 230 108 230 108 253.5 133 c 128,-1,15
 277 158 277 158 291 185 c 1,16,-1
 291 186 l 1,17,18
 299 213 299 213 292 239 c 0,0,1
58 257 m 0,19,20
 85 271 85 271 141 285 c 0,21,22
 206 302 206 302 225 308 c 0,23,24
 267 323 267 323 289.5 343 c 128,-1,25
 312 363 312 363 316 394 c 0,26,27
 319 410 319 410 317 421 c 1,28,-1
 313 427 l 2,29,30
 301 444 301 444 280.5 452.5 c 128,-1,31
 260 461 260 461 239 457 c 0,32,33
 226 455 226 455 215 447.5 c 128,-1,34
 204 440 204 440 198 432 c 2,35,-1
 180 410 l 2,36,37
 168 394 168 394 159.5 385.5 c 128,-1,38
 151 377 151 377 134.5 367 c 128,-1,39
 118 357 118 357 98 355 c 0,40,41
 60 351 60 351 37 377 c 128,-1,42
 14 403 14 403 22 441 c 0,43,44
 33 490 33 490 78 523 c 128,-1,45
 123 556 123 556 183 567 c 1,46,47
 237 580 237 580 296 567.5 c 128,-1,48
 355 555 355 555 387 519 c 0,49,50
 414 490 414 490 424 453 c 128,-1,51
 434 416 434 416 431.5 386.5 c 128,-1,52
 429 357 429 357 419 318 c 0,53,54
 416 305 416 305 408.5 279 c 128,-1,55
 401 253 401 253 397.5 238 c 128,-1,56
 394 223 394 223 390.5 203 c 128,-1,57
 387 183 387 183 387.5 166 c 128,-1,58
 388 149 388 149 392 133 c 0,59,60
 393 129 393 129 396 124 c 1,61,-1
 400 121 l 1,62,63
 402 121 402 121 404 122 c 2,64,-1
 408 124 l 2,65,66
 413 127 413 127 426 140 c 0,67,68
 455 167 455 167 479 165 c 0,69,70
 500 164 500 164 513 146 c 1,71,72
 528 136 528 136 526 117 c 1,73,-1
 525 114 l 1,74,75
 529 91 529 91 523 72 c 0,76,77
 511 30 511 30 469 5 c 128,-1,78
 427 -20 427 -20 384 -5 c 0,79,80
 374 -2 374 -2 364 9 c 2,81,-1
 352 24 l 2,82,83
 348 30 348 30 345 32 c 1,84,85
 340 28 340 28 329 17 c 1,86,87
 316 2 316 2 302 -3 c 0,88,89
 270 -15 270 -15 234.5 -22.5 c 128,-1,90
 199 -30 199 -30 158 -30.5 c 128,-1,91
 117 -31 117 -31 87 -19 c 0,92,93
 52 -6 52 -6 23 28 c 128,-1,94
 -6 62 -6 62 -12 99 c 0,95,96
 -24 179 -24 179 13 221 c 0,97,98
 27 236 27 236 47 247 c 1,99,100
 51 253 51 253 58 257 c 0,19,20
EndSplineSet
Validated: 33
EndChar

StartChar: b
Encoding: 98 98 69
Width: 534
GlyphClass: 2
Flags: W
LayerCount: 2
Fore
SplineSet
131 468 m 1,0,1
 163 498 163 498 207 512 c 128,-1,2
 251 526 251 526 295 521 c 128,-1,3
 339 516 339 516 368 490.5 c 128,-1,4
 397 465 397 465 427 421 c 0,5,6
 464 365 464 365 473.5 293 c 128,-1,7
 483 221 483 221 461.5 151.5 c 128,-1,8
 440 82 440 82 392 33 c 0,9,10
 363 4 363 4 322.5 -10 c 128,-1,11
 282 -24 282 -24 242 -20 c 0,12,13
 177 -13 177 -13 141 36 c 1,14,15
 130 -6 130 -6 98 -29 c 0,16,17
 74 -46 74 -46 50 -42 c 0,18,19
 23 -37 23 -37 6 -7 c 0,20,21
 -12 25 -12 25 -9 80 c 0,22,23
 -9 95 -9 95 -6 123 c 128,-1,24
 -3 151 -3 151 -2 162 c 0,25,26
 5 304 5 304 -2 395 c 0,27,28
 -3 413 -3 413 -16 497 c 0,29,30
 -26 561 -26 561 -23 603 c 128,-1,31
 -20 645 -20 645 7 684 c 0,32,33
 39 729 39 729 81 732 c 0,34,35
 129 735 129 735 148 694 c 0,36,37
 162 665 162 665 158 611 c 0,38,39
 155 575 155 575 143 521 c 0,40,41
 141 510 141 510 137 492.5 c 128,-1,42
 133 475 133 475 131 468 c 1,0,1
156 157 m 1,43,44
 178 138 178 138 216 130 c 0,45,46
 272 119 272 119 299 140 c 0,47,48
 343 174 343 174 346.5 243 c 128,-1,49
 350 312 350 312 311 352 c 0,50,51
 302 361 302 361 283 366.5 c 128,-1,52
 264 372 264 372 247 372 c 0,53,54
 209 372 209 372 182 347 c 128,-1,55
 155 322 155 322 143 282 c 0,56,57
 141 275 141 275 139 269 c 1,58,-1
 139 264 l 2,59,60
 139 257 139 257 137.5 240 c 128,-1,61
 136 223 136 223 136 215 c 0,62,63
 140 181 140 181 156 157 c 1,43,44
EndSplineSet
Validated: 33
EndChar

StartChar: c
Encoding: 99 99 70
Width: 548
GlyphClass: 2
Flags: W
LayerCount: 2
Fore
SplineSet
101 208 m 1,0,1
 111 162 111 162 146.5 130.5 c 128,-1,2
 182 99 182 99 228 91 c 1,3,4
 243 93 243 93 259 98 c 0,5,6
 306 112 306 112 326 134 c 0,7,8
 335 144 335 144 343 162 c 2,9,-1
 350 178 l 2,10,11
 355 189 355 189 359 195 c 0,12,13
 370 215 370 215 385 224 c 0,14,15
 405 235 405 235 433 231 c 0,16,17
 460 227 460 227 473 207 c 0,18,19
 512 146 512 146 461 76 c 0,20,21
 422 22 422 22 360 -4 c 0,22,23
 283 -36 283 -36 182.5 -9 c 128,-1,24
 82 18 82 18 31 85 c 0,25,26
 -8 136 -8 136 -18 196 c 128,-1,27
 -28 256 -28 256 -13 310.5 c 128,-1,28
 2 365 2 365 37 413 c 0,29,30
 90 486 90 486 174.5 522 c 128,-1,31
 259 558 259 558 349 537 c 1,32,33
 423 518 423 518 455 465 c 1,34,35
 468 440 468 440 467 414 c 128,-1,36
 466 388 466 388 452 367 c 0,37,38
 437 345 437 345 414 336 c 128,-1,39
 391 327 391 327 360 336 c 1,40,41
 347 341 347 341 335.5 352.5 c 128,-1,42
 324 364 324 364 320 372 c 2,43,-1
 307 395 l 1,44,45
 293 424 293 424 283 430 c 1,46,47
 252 431 252 431 215 418 c 0,48,49
 153 395 153 395 120 327 c 1,50,51
 97 268 97 268 102 214 c 0,52,53
 102 211 102 211 101 208 c 1,0,1
EndSplineSet
Validated: 33
EndChar

StartChar: d
Encoding: 100 100 71
Width: 542
GlyphClass: 2
Flags: W
LayerCount: 2
Fore
SplineSet
392 738 m 1,0,1
 427 730 427 730 453.5 692 c 128,-1,2
 480 654 480 654 483 611 c 128,-1,3
 486 568 486 568 477 505 c 0,4,5
 464 411 464 411 463 403 c 0,6,7
 459 344 459 344 463 169 c 0,8,9
 463 157 463 157 466 132 c 0,10,11
 469 102 469 102 470 88 c 0,12,13
 473 32 473 32 455 1 c 0,14,15
 439 -28 439 -28 413 -33 c 0,16,17
 389 -38 389 -38 365 -22 c 0,18,19
 331 0 331 0 320 44 c 1,20,21
 285 -4 285 -4 220 -12 c 0,22,23
 181 -16 181 -16 140.5 -2 c 128,-1,24
 100 12 100 12 71 41 c 0,25,26
 23 90 23 90 1.5 159.5 c 128,-1,27
 -20 229 -20 229 -10.5 300.5 c 128,-1,28
 -1 372 -1 372 36 429 c 0,29,30
 56 458 56 458 70 475 c 128,-1,31
 84 492 84 492 110.5 509 c 128,-1,32
 137 526 137 526 169 529 c 0,33,34
 212 534 212 534 255 519.5 c 128,-1,35
 298 505 298 505 330 475 c 1,36,37
 329 482 329 482 324.5 500 c 128,-1,38
 320 518 320 518 318 529 c 0,39,40
 306 583 306 583 304 619 c 0,41,42
 300 673 300 673 313 702 c 0,43,44
 328 734 328 734 361 739 c 0,45,46
 362 739 362 739 363 740 c 0,47,48
 377 744 377 744 392 738 c 1,0,1
120 210 m 1,49,50
 125 184 125 184 138 165 c 1,51,52
 160 146 160 146 198 138 c 0,53,54
 254 127 254 127 281 148 c 0,55,56
 300 163 300 163 313 188 c 1,57,-1
 324 221 l 1,58,59
 333 257 333 257 325 296.5 c 128,-1,60
 317 336 317 336 293 360 c 0,61,62
 284 369 284 369 265 374.5 c 128,-1,63
 246 380 246 380 229 380 c 0,64,65
 191 380 191 380 164 355 c 128,-1,66
 137 330 137 330 125 290 c 0,67,68
 123 285 123 285 122 279 c 0,69,70
 120 254 120 254 120 210 c 1,49,50
EndSplineSet
Validated: 33
EndChar

StartChar: e
Encoding: 101 101 72
Width: 558
GlyphClass: 2
Flags: W
LayerCount: 2
Fore
SplineSet
147 215 m 4,0,1
 144 215 144 215 142 214 c 4,2,3
 122 212 122 212 118 209 c 5,4,5
 117 207 117 207 116 200 c 4,6,7
 115 195 115 195 116 184 c 4,8,9
 118 136 118 136 144 110 c 132,-1,10
 170 84 170 84 220 78 c 4,11,12
 305 67 305 67 346 137 c 4,13,14
 348 139 348 139 352 147 c 6,15,-1
 358 159 l 5,16,17
 369 177 369 177 378 184 c 5,18,19
 408 202 408 202 436.5 197.5 c 132,-1,20
 465 193 465 193 484 168 c 132,-1,21
 503 143 503 143 499 113 c 4,22,23
 496 92 496 92 489 76 c 132,-1,24
 482 60 482 60 468 45.5 c 132,-1,25
 454 31 454 31 445 24 c 132,-1,26
 436 17 436 17 416 3 c 4,27,28
 359 -38 359 -38 280.5 -39 c 132,-1,29
 202 -40 202 -40 131.5 -5.5 c 132,-1,30
 61 29 61 29 22 88 c 5,31,32
 -16 148 -16 148 -19 229 c 132,-1,33
 -22 310 -22 310 10 384 c 4,34,35
 43 459 43 459 101 500 c 4,36,37
 164 545 164 545 288 536 c 4,38,39
 393 528 393 528 436 482 c 4,40,41
 474 442 474 442 472 374 c 4,42,43
 470 316 470 316 429 278 c 5,44,45
 389 239 389 239 326 221 c 4,46,47
 232 193 232 193 147 215 c 4,0,1
154 312 m 5,48,49
 280 297 280 297 335 335 c 4,50,51
 356 349 356 349 357 364 c 4,52,53
 357 376 357 376 345 390 c 4,54,55
 332 405 332 405 310.5 415.5 c 132,-1,56
 289 426 289 426 270 428 c 4,57,58
 220 434 220 434 175.5 414 c 132,-1,59
 131 394 131 394 116 366 c 4,60,61
 104 343 104 343 121 328 c 4,62,63
 132 318 132 318 154 312 c 5,48,49
EndSplineSet
Validated: 33
EndChar

StartChar: f
Encoding: 102 102 73
Width: 392
GlyphClass: 2
Flags: W
LayerCount: 2
Fore
SplineSet
197 408 m 1,0,1
 190 407 190 407 185 406 c 0,2,3
 172 403 172 403 166 393 c 0,4,5
 156 375 156 375 160 317 c 0,6,7
 161 298 161 298 165 257.5 c 128,-1,8
 169 217 169 217 170 197 c 0,9,10
 176 121 176 121 166 77 c 0,11,12
 152 14 152 14 105 -3 c 0,13,14
 79 -13 79 -13 51 -1 c 0,15,16
 19 12 19 12 13 41 c 0,17,18
 6 77 6 77 28 139 c 0,19,20
 32 151 32 151 39 170 c 2,21,-1
 51 202 l 2,22,23
 56 216 56 216 58 227 c 0,24,25
 61 240 61 240 63 252 c 128,-1,26
 65 264 65 264 65.5 279 c 128,-1,27
 66 294 66 294 66.5 303 c 128,-1,28
 67 312 67 312 66 331 c 128,-1,29
 65 350 65 350 65 355.5 c 128,-1,30
 65 361 65 361 63 383.5 c 128,-1,31
 61 406 61 406 61 409 c 1,32,33
 54 410 54 410 26 404 c 0,34,35
 -22 393 -22 393 -49 418 c 0,36,37
 -51 419 -51 419 -52 421 c 1,38,39
 -59 426 -59 426 -62 434 c 0,40,41
 -74 460 -74 460 -59 491 c 0,42,43
 -51 509 -51 509 -36 522.5 c 128,-1,44
 -21 536 -21 536 -4 539 c 0,45,46
 5 540 5 540 18 537 c 1,47,-1
 39 530 l 2,48,49
 46 527 46 527 50 526 c 1,50,-1
 50 540 l 1,51,-1
 50 556 l 2,52,53
 50 559 50 559 50.5 570 c 128,-1,54
 51 581 51 581 51.5 586 c 128,-1,55
 52 591 52 591 53.5 601 c 128,-1,56
 55 611 55 611 57 617.5 c 128,-1,57
 59 624 59 624 62 632 c 128,-1,58
 65 640 65 640 69 647 c 0,59,60
 101 705 101 705 152 733 c 0,61,62
 217 769 217 769 272 725 c 0,63,64
 298 703 298 703 304 661 c 0,65,66
 307 640 307 640 299 621.5 c 128,-1,67
 291 603 291 603 269 596 c 0,68,69
 252 590 252 590 226 593 c 0,70,71
 195 597 195 597 191 597 c 0,72,73
 179 596 179 596 174 590 c 0,74,75
 166 580 166 580 165 552 c 0,76,77
 164 534 164 534 168 526 c 1,78,79
 170 526 170 526 182 529 c 2,80,-1
 202 534 l 2,81,82
 245 544 245 544 276 534 c 0,83,84
 302 526 302 526 318 507 c 128,-1,85
 334 488 334 488 333 464 c 1,86,87
 333 439 333 439 315 422 c 128,-1,88
 297 405 297 405 269 399 c 0,89,90
 248 395 248 395 213 404 c 0,91,92
 206 406 206 406 197 408 c 1,0,1
EndSplineSet
Validated: 33
EndChar

StartChar: g
Encoding: 103 103 74
Width: 527
GlyphClass: 2
Flags: W
LayerCount: 2
Fore
SplineSet
167 -235 m 1,0,1
 143 -235 143 -235 123 -228 c 0,2,3
 119 -226 119 -226 116 -225 c 0,4,5
 113 -223 113 -223 109 -222 c 1,6,-1
 108 -221 l 1,7,8
 105 -220 105 -220 102 -218 c 0,9,10
 53 -190 53 -190 27 -140 c 0,11,12
 9 -104 9 -104 16 -74 c 0,13,14
 25 -39 25 -39 68 -23 c 0,15,16
 100 -11 100 -11 124 -26 c 0,17,18
 140 -36 140 -36 155 -63 c 0,19,20
 158 -68 158 -68 165 -83 c 0,21,22
 171 -95 171 -95 175 -102 c 0,23,24
 186 -119 186 -119 196 -123 c 0,25,26
 242 -142 242 -142 291 -88 c 1,27,28
 311 -64 311 -64 325.5 -34.5 c 128,-1,29
 340 -5 340 -5 344 18 c 0,30,31
 347 36 347 36 347 59 c 1,32,33
 346 66 346 66 346 71 c 1,34,35
 305 36 305 36 268 29 c 0,36,37
 185 14 185 14 107 64 c 0,38,39
 29 115 29 115 7 195 c 0,40,41
 -14 270 -14 270 18 364 c 0,42,43
 51 459 51 459 115 503 c 0,44,45
 159 534 159 534 240 534 c 0,46,47
 303 534 303 534 340 509 c 1,48,49
 347 563 347 563 386 569 c 0,50,51
 407 572 407 572 426.5 557 c 128,-1,52
 446 542 446 542 459 514 c 0,53,54
 473 483 473 483 465 399 c 0,55,56
 465 392 465 392 458 335 c 0,57,58
 454 300 454 300 454 286 c 0,59,60
 454 276 454 276 453.5 201.5 c 128,-1,61
 453 127 453 127 449.5 74.5 c 128,-1,62
 446 22 446 22 436 -25 c 1,63,64
 438 -33 438 -33 435 -41 c 0,65,66
 432 -50 432 -50 428 -58 c 1,67,68
 407 -131 407 -131 367 -174 c 0,69,70
 311 -233 311 -233 218 -233 c 2,71,-1
 217 -233 l 1,72,-1
 216 -233 l 1,73,74
 191 -237 191 -237 167 -235 c 1,0,1
219 404 m 0,75,76
 178 401 178 401 150.5 370.5 c 128,-1,77
 123 340 123 340 116.5 297.5 c 128,-1,78
 110 255 110 255 128.5 220.5 c 128,-1,79
 147 186 147 186 189 176 c 1,80,81
 228 165 228 165 255 175 c 0,82,83
 270 181 270 181 278.5 189 c 128,-1,84
 287 197 287 197 300 214 c 0,85,86
 324 247 324 247 329 281 c 128,-1,87
 334 315 334 315 324 340.5 c 128,-1,88
 314 366 314 366 293 386 c 1,89,-1
 275 400 l 1,90,91
 257 404 257 404 229 409 c 1,92,93
 225 404 225 404 219 404 c 0,75,76
EndSplineSet
Validated: 33
EndChar

StartChar: h
Encoding: 104 104 75
Width: 534
GlyphClass: 2
Flags: W
LayerCount: 2
Fore
SplineSet
149 488 m 1,0,-1
 151 489 l 1,1,-1
 181 511 l 1,2,3
 220 538 220 538 250 546 c 0,4,5
 317 565 317 565 363 536 c 0,6,7
 401 512 401 512 422 455 c 0,8,9
 445 392 445 392 449 250 c 0,10,11
 450 231 450 231 458 195 c 2,12,-1
 473 132 l 1,13,14
 486 49 486 49 437 12 c 0,15,16
 408 -10 408 -10 370 -2 c 0,17,18
 312 11 312 11 303 75 c 0,19,20
 298 111 298 111 311 196 c 128,-1,21
 324 281 324 281 321 314 c 0,22,23
 316 365 316 365 278 380 c 0,24,25
 260 388 260 388 231.5 387 c 128,-1,26
 203 386 203 386 186 377 c 0,27,28
 149 356 149 356 143 292 c 0,29,30
 140 254 140 254 149 159 c 1,31,32
 159 71 159 71 150 38 c 0,33,34
 143 10 143 10 123 -2 c 0,35,36
 101 -14 101 -14 67 -7 c 1,37,38
 34 1 34 1 17 22 c 0,39,40
 2 40 2 40 -1 68 c 1,41,42
 -2 89 -2 89 -1 101 c 128,-1,43
 0 113 0 113 2.5 134 c 128,-1,44
 5 155 5 155 5 162 c 0,45,46
 10 232 10 232 5 356 c 0,47,48
 -1 513 -1 513 -1 552 c 0,49,50
 -1 559 -1 559 -2.5 590.5 c 128,-1,51
 -4 622 -4 622 -2.5 644.5 c 128,-1,52
 -1 667 -1 667 3 686 c 1,53,54
 11 713 11 713 30.5 726.5 c 128,-1,55
 50 740 50 740 75 739 c 0,56,57
 98 738 98 738 119 726.5 c 128,-1,58
 140 715 140 715 153 696 c 0,59,60
 166 676 166 676 167 639 c 0,61,62
 168 616 168 616 163 586 c 0,63,64
 153 526 153 526 149 488 c 1,0,-1
EndSplineSet
Validated: 33
EndChar

StartChar: i
Encoding: 105 105 76
Width: 234
GlyphClass: 2
Flags: W
LayerCount: 2
Fore
SplineSet
147 124 m 0,0,1
 148 120 148 120 151 112.5 c 128,-1,2
 154 105 154 105 155 102 c 0,3,4
 167 68 167 68 165 45 c 0,5,6
 162 16 162 16 137.5 0.5 c 128,-1,7
 113 -15 113 -15 85 -6 c 0,8,9
 62 1 62 1 46.5 21 c 128,-1,10
 31 41 31 41 28 64 c 0,11,12
 24 99 24 99 33 157 c 0,13,14
 44 222 44 222 44 244 c 0,15,16
 44 251 44 251 35 319 c 128,-1,17
 26 387 26 387 26 428 c 0,18,19
 26 488 26 488 46 514 c 1,20,21
 47 517 47 517 50 520 c 0,22,23
 65 540 65 540 94 542 c 0,24,25
 108 543 108 543 123 540 c 0,26,27
 144 536 144 536 153 525 c 0,28,29
 162 515 162 515 161 492 c 0,30,31
 161 477 161 477 157 455 c 0,32,33
 154 440 154 440 149 417 c 128,-1,34
 144 394 144 394 144 393 c 0,35,36
 124 293 124 293 140 159 c 1,37,38
 145 138 145 138 147 124 c 0,0,1
127 730 m 4,39,40
 174 706 174 706 175 665 c 4,41,42
 176 658 176 658 174 651 c 5,43,44
 173 643 173 643 170 636 c 4,45,46
 159 603 159 603 129 581 c 5,47,48
 94 557 94 557 66 571 c 4,49,50
 52 579 52 579 44 595 c 5,51,52
 36 602 36 602 32 613 c 5,53,54
 19 641 19 641 37 678 c 132,-1,55
 55 715 55 715 86 726 c 4,56,57
 94 729 94 729 101 730 c 5,58,59
 114 736 114 736 127 730 c 4,39,40
EndSplineSet
Validated: 33
EndChar

StartChar: j
Encoding: 106 106 77
Width: 194
GlyphClass: 2
Flags: W
LayerCount: 2
Fore
SplineSet
11 650 m 0,0,1
 11 651 11 651 12 652 c 0,2,3
 16 686 16 686 37 700 c 0,4,5
 63 718 63 718 97 695 c 0,6,7
 112 685 112 685 117 671 c 0,8,9
 120 662 120 662 120 644 c 0,10,11
 120 605 120 605 98 586 c 0,12,13
 78 570 78 570 51 576 c 0,14,15
 25 582 25 582 12 602 c 1,16,17
 -1 624 -1 624 11 650 c 0,0,1
6 -207 m 1,18,-1
 3 -207 l 1,19,20
 5 -208 5 -208 7 -208 c 1,21,-1
 6 -207 l 1,18,-1
119 494 m 1,22,23
 123 487 123 487 125 479 c 1,24,25
 131 467 131 467 133 451 c 1,26,27
 136 437 136 437 136 420.5 c 128,-1,28
 136 404 136 404 135 385.5 c 128,-1,29
 134 367 134 367 134 361 c 0,30,31
 134 336 134 336 132 308 c 128,-1,32
 130 280 130 280 127 243 c 128,-1,33
 124 206 124 206 123 189 c 0,34,35
 122 175 122 175 124 107 c 0,36,37
 126 27 126 27 126 -4 c 0,38,39
 127 -70 127 -70 121 -112 c 0,40,41
 114 -165 114 -165 95 -187 c 0,42,43
 72 -215 72 -215 33 -222 c 128,-1,44
 -6 -229 -6 -229 -37 -215 c 1,45,46
 -71 -203 -71 -203 -87 -177 c 1,47,48
 -92 -172 -92 -172 -96 -166 c 0,49,50
 -113 -144 -113 -144 -109 -120 c 0,51,52
 -104 -94 -104 -94 -76 -80 c 0,53,54
 -44 -65 -44 -65 -4 -90 c 0,55,56
 21 -105 21 -105 27 -104 c 1,57,58
 30 -87 30 -87 33 -58 c 0,59,60
 35 -46 35 -46 36 -33 c 0,61,62
 37 19 37 19 26 152 c 0,63,64
 18 250 18 250 17 302 c 1,65,66
 13 352 13 352 12 396 c 0,67,68
 12 400 12 400 11.5 409 c 128,-1,69
 11 418 11 418 10 422 c 0,70,71
 9 436 9 436 9 448 c 0,72,73
 9 508 9 508 57 522 c 0,74,75
 70 526 70 526 84 524 c 0,76,77
 103 521 103 521 113 507 c 0,78,79
 117 502 117 502 119 494 c 1,22,23
EndSplineSet
Validated: 33
EndChar

StartChar: k
Encoding: 107 107 78
Width: 483
GlyphClass: 2
Flags: W
LayerCount: 2
Fore
SplineSet
108 284 m 1,0,-1
 109 284 l 1,1,-1
 108 285 l 1,2,-1
 108 284 l 1,0,-1
314 -4 m 1,3,4
 275 3 275 3 256 43 c 0,5,6
 253 48 253 48 252 55 c 1,7,-1
 252 56 l 1,8,9
 246 69 246 69 236 98 c 2,10,-1
 213 165 l 1,11,12
 198 201 198 201 185 215 c 0,13,14
 174 227 174 227 163 222 c 0,15,16
 159 220 159 220 156 217 c 0,17,18
 152 211 152 211 145 207 c 1,19,20
 130 191 130 191 126 176 c 0,21,22
 123 162 123 162 133 136 c 0,23,24
 149 98 149 98 149 82 c 0,25,26
 150 32 150 32 121 8 c 0,27,28
 87 -20 87 -20 41 6 c 0,29,30
 2 27 2 27 1 83 c 0,31,32
 1 95 1 95 2.5 109.5 c 128,-1,33
 4 124 4 124 6.5 140.5 c 128,-1,34
 9 157 9 157 10 163 c 0,35,36
 28 316 28 316 16 456 c 0,37,38
 15 465 15 465 10 513 c 128,-1,39
 5 561 5 561 4.5 574 c 128,-1,40
 4 587 4 587 5 634 c 1,41,42
 7 654 7 654 11 669 c 0,43,44
 18 694 18 694 30 705 c 0,45,46
 41 715 41 715 62 717 c 0,47,48
 78 719 78 719 92 717 c 0,49,50
 131 711 131 711 149 683 c 0,51,52
 164 660 164 660 164 623 c 1,53,54
 165 604 165 604 162 583.5 c 128,-1,55
 159 563 159 563 153 536 c 128,-1,56
 147 509 147 509 147 505 c 0,57,58
 132 424 132 424 135 320 c 1,59,60
 140 323 140 323 145 327 c 0,61,62
 162 339 162 339 186 365 c 0,63,64
 230 413 230 413 246 443 c 0,65,66
 252 454 252 454 266 499 c 1,67,68
 280 539 280 539 295 558 c 0,69,70
 315 583 315 583 355 579 c 0,71,72
 393 576 393 576 412 552 c 0,73,74
 435 524 435 524 415 481 c 0,75,76
 403 455 403 455 367 412 c 0,77,78
 318 353 318 353 313 346 c 0,79,80
 290 314 290 314 291 298 c 0,81,82
 292 279 292 279 317 239 c 0,83,84
 326 225 326 225 345.5 197 c 128,-1,85
 365 169 365 169 370 161 c 0,86,87
 404 112 404 112 413 82 c 1,88,89
 429 35 429 35 400 10 c 0,90,91
 390 1 390 1 375 -2 c 1,92,93
 372 -4 372 -4 368 -5 c 0,94,95
 361 -8 361 -8 347 -7 c 128,-1,96
 333 -6 333 -6 325 -6 c 0,97,98
 319 -6 319 -6 314 -4 c 1,3,4
EndSplineSet
Validated: 33
EndChar

StartChar: l
Encoding: 108 108 79
Width: 324
GlyphClass: 2
Flags: W
LayerCount: 2
Fore
SplineSet
117 118 m 1,0,1
 164 132 164 132 192 136 c 0,2,3
 211 139 211 139 224 136 c 0,4,5
 249 132 249 132 255 112 c 1,6,7
 263 103 263 103 265 92 c 0,8,9
 268 77 268 77 259 60 c 0,10,11
 245 32 245 32 207 7 c 0,12,13
 183 -9 183 -9 156 -18 c 1,14,15
 130 -28 130 -28 99 -26 c 128,-1,16
 68 -24 68 -24 45 -5 c 1,17,18
 26 12 26 12 18 33 c 0,19,20
 14 43 14 43 12 70 c 0,21,22
 10 93 10 93 9 129 c 1,23,24
 9 190 9 190 11 288 c 0,25,26
 15 432 15 432 23 564 c 0,27,28
 26 610 26 610 39 649 c 1,29,30
 60 707 60 707 99 719 c 0,31,32
 130 729 130 729 153 707 c 0,33,34
 170 692 170 692 181 660 c 0,35,36
 198 608 198 608 194 561 c 0,37,38
 193 545 193 545 184 507 c 2,39,-1
 161 410 l 2,40,41
 147 351 147 351 139 313 c 0,42,43
 119 223 119 223 115 173 c 0,44,45
 113 143 113 143 115 126 c 1,46,-1
 117 118 l 1,0,1
EndSplineSet
Validated: 33
EndChar

StartChar: m
Encoding: 109 109 80
Width: 797
GlyphClass: 2
Flags: W
LayerCount: 2
Fore
SplineSet
396 445 m 1,0,-1
 396 446 l 1,1,2
 405 464 405 464 406 465 c 0,3,4
 441 518 441 518 490.5 544.5 c 128,-1,5
 540 571 540 571 599 559 c 0,6,7
 672 543 672 543 708 481 c 0,8,9
 721 459 721 459 729 391 c 0,10,11
 737 329 737 329 738 252 c 0,12,13
 740 172 740 172 735 112 c 0,14,15
 729 43 729 43 714 22 c 1,16,17
 695 -8 695 -8 645 -7 c 0,18,19
 623 -7 623 -7 604.5 2.5 c 128,-1,20
 586 12 586 12 581 32 c 1,21,22
 572 61 572 61 580 140 c 1,23,24
 589 244 589 244 589 272 c 0,25,26
 590 342 590 342 569 372 c 0,27,28
 546 406 546 406 487 395 c 0,29,30
 443 387 443 387 434 336 c 0,31,32
 427 299 427 299 437 209 c 0,33,34
 448 110 448 110 444 74 c 0,35,36
 436 0 436 0 380 -15 c 0,37,38
 356 -21 356 -21 325 -7 c 0,39,40
 294 6 294 6 283 28 c 0,41,42
 276 41 276 41 276 66 c 0,43,44
 276 84 276 84 280 113 c 0,45,46
 281 123 281 123 286 164 c 2,47,-1
 295 229 l 1,48,49
 301 298 301 298 292 335 c 1,50,51
 280 378 280 378 246 385 c 0,52,53
 186 399 186 399 155 331 c 0,54,55
 128 274 128 274 131 201 c 0,56,57
 131 194 131 194 140 136 c 0,58,59
 149 79 149 79 148 49 c 0,60,61
 146 -3 146 -3 121 -22 c 0,62,63
 90 -47 90 -47 30 -17 c 0,64,65
 1 -3 1 -3 -7 19 c 0,66,67
 -17 47 -17 47 -8 130 c 0,68,69
 -7 146 -7 146 -4 170 c 2,70,-1
 1 212 l 2,71,72
 3 229 3 229 3 240 c 0,73,74
 4 267 4 267 1 338 c 0,75,76
 -2 405 -2 405 1 439 c 0,77,78
 2 445 2 445 6 463 c 128,-1,79
 10 481 10 481 12 486 c 0,80,81
 25 516 25 516 51 524 c 0,82,83
 74 532 74 532 98 519 c 0,84,85
 126 504 126 504 136 473 c 1,86,87
 139 476 139 476 141 480 c 0,88,89
 143 483 143 483 153 500 c 0,90,91
 160 513 160 513 166 520 c 0,92,93
 184 545 184 545 211 553 c 0,94,95
 242 562 242 562 291 551 c 0,96,97
 335 541 335 541 373 481 c 1,98,-1
 383 464 l 2,99,100
 390 452 390 452 394 447 c 2,101,-1
 396 445 l 1,0,-1
EndSplineSet
Validated: 33
EndChar

StartChar: n
Encoding: 110 110 81
Width: 516
GlyphClass: 2
Flags: W
LayerCount: 2
Fore
SplineSet
138 83 m 1,0,1
 141 65 141 65 140 48 c 0,2,3
 138 9 138 9 107 -15 c 0,4,5
 69 -44 69 -44 34 -15 c 0,6,7
 8 6 8 6 8 56 c 0,8,9
 8 71 8 71 11 92 c 2,10,-1
 14 122 l 2,11,12
 15 134 15 134 20 184 c 0,13,14
 24 227 24 227 25 243 c 0,15,16
 25 255 25 255 23.5 276 c 128,-1,17
 22 297 22 297 19 329.5 c 128,-1,18
 16 362 16 362 15 384 c 0,19,20
 11 434 11 434 13 464 c 0,21,22
 15 506 15 506 28 523 c 1,23,24
 40 536 40 536 51 539 c 0,25,26
 56 541 56 541 73 540 c 0,27,28
 119 539 119 539 133 496 c 0,29,30
 134 490 134 490 136 484 c 1,31,32
 213 543 213 543 272 547 c 0,33,34
 336 552 336 552 377 496 c 1,35,36
 434 421 434 421 450 216 c 0,37,38
 457 125 457 125 457 105 c 0,39,40
 457 67 457 67 450 42 c 0,41,42
 441 8 441 8 420 -5 c 0,43,44
 384 -27 384 -27 340 0 c 0,45,46
 322 11 322 11 310 28 c 128,-1,47
 298 45 298 45 297 65 c 0,48,49
 297 82 297 82 305 159 c 0,50,51
 314 246 314 246 314 285 c 0,52,53
 315 354 315 354 298 387 c 0,54,55
 281 422 281 422 242 417 c 0,56,57
 213 413 213 413 191 402 c 1,58,59
 185 397 185 397 178 390 c 0,60,61
 147 357 147 357 138.5 311 c 128,-1,62
 130 265 130 265 133 201 c 0,63,64
 139 103 139 103 139 99 c 0,65,66
 139 91 139 91 138 83 c 1,0,1
EndSplineSet
Validated: 33
EndChar

StartChar: o
Encoding: 111 111 82
Width: 535
GlyphClass: 2
Flags: W
LayerCount: 2
Fore
SplineSet
196 536 m 1,0,-1
 205 539 l 2,1,2
 300 571 300 571 373 517 c 0,3,4
 437 469 437 469 463 374 c 0,5,6
 475 330 475 330 475.5 282.5 c 128,-1,7
 476 235 476 235 465.5 189.5 c 128,-1,8
 455 144 455 144 429 103 c 128,-1,9
 403 62 403 62 365 35 c 0,10,11
 299 -12 299 -12 248 -18 c 0,12,13
 204 -23 204 -23 162 -5.5 c 128,-1,14
 120 12 120 12 87 44 c 1,15,16
 14 118 14 118 -1 194 c 1,17,18
 -12 256 -12 256 5 322 c 0,19,20
 22 389 22 389 62 442 c 0,21,22
 118 517 118 517 196 536 c 1,0,-1
115 196 m 1,23,24
 138 158 138 158 184.5 140.5 c 128,-1,25
 231 123 231 123 269 138 c 0,26,27
 290 146 290 146 338 186 c 1,28,29
 350 209 350 209 354 237 c 0,30,31
 366 304 366 304 335 353 c 0,32,33
 301 407 301 407 231 407 c 0,34,35
 179 407 179 407 142 370 c 1,36,37
 119 343 119 343 108 305 c 1,38,39
 99 251 99 251 115 197 c 1,40,-1
 115 196 l 1,23,24
EndSplineSet
Validated: 33
EndChar

StartChar: p
Encoding: 112 112 83
Width: 542
GlyphClass: 2
Flags: W
LayerCount: 2
Fore
SplineSet
139 38 m 1,0,1
 162 -61 162 -61 164 -107 c 0,2,3
 167 -163 167 -163 149 -191 c 0,4,5
 125 -229 125 -229 70 -212 c 0,6,7
 35 -202 35 -202 10 -161 c 0,8,9
 -13 -124 -13 -124 -15 -88 c 0,10,11
 -17 -47 -17 -47 -8 14 c 0,12,13
 4 97 4 97 5 111 c 0,14,15
 12 198 12 198 5 337 c 0,16,17
 5 347 5 347 2 374 c 128,-1,18
 -1 401 -1 401 -2 416 c 0,19,20
 -5 468 -5 468 13 499 c 0,21,22
 30 528 30 528 56 534 c 1,23,24
 80 538 80 538 104 523 c 0,25,26
 137 501 137 501 149 459 c 1,27,28
 185 506 185 506 249 513 c 0,29,30
 289 518 289 518 329 505 c 128,-1,31
 369 492 369 492 399 464 c 0,32,33
 471 396 471 396 482 281.5 c 128,-1,34
 493 167 493 167 433 88 c 0,35,36
 431 85 431 85 427 80 c 0,37,38
 412 59 412 59 403 48.5 c 128,-1,39
 394 38 394 38 377.5 23 c 128,-1,40
 361 8 361 8 342.5 0 c 128,-1,41
 324 -8 324 -8 301 -10 c 0,42,43
 262 -13 262 -13 220.5 -2 c 128,-1,44
 179 9 179 9 147 32 c 0,45,46
 143 34 143 34 139 38 c 1,0,1
174 156 m 1,47,48
 196 137 196 137 234 129 c 0,49,50
 290 118 290 118 317 139 c 0,51,52
 361 173 361 173 364.5 242 c 128,-1,53
 368 311 368 311 329 351 c 0,54,55
 320 360 320 360 301 365.5 c 128,-1,56
 282 371 282 371 265 371 c 0,57,58
 227 371 227 371 200 346 c 128,-1,59
 173 321 173 321 161 281 c 0,60,61
 159 274 159 274 157 268 c 1,62,-1
 157 263 l 2,63,64
 157 256 157 256 155.5 239 c 128,-1,65
 154 222 154 222 154 214 c 0,66,67
 158 180 158 180 174 156 c 1,47,48
EndSplineSet
Validated: 33
EndChar

StartChar: q
Encoding: 113 113 84
Width: 569
GlyphClass: 2
Flags: W
LayerCount: 2
Fore
SplineSet
352 34 m 1,0,1
 348 30 348 30 343 27 c 0,2,3
 291 -5 291 -5 246 -14 c 0,4,5
 202 -22 202 -22 162 -8.5 c 128,-1,6
 122 5 122 5 92.5 33.5 c 128,-1,7
 63 62 63 62 42.5 98 c 128,-1,8
 22 134 22 134 12 172 c 1,9,10
 -12 274 -12 274 23.5 359.5 c 128,-1,11
 59 445 59 445 129 489 c 1,12,13
 198 534 198 534 263 518 c 0,14,15
 313 506 313 506 343 461 c 1,16,17
 355 508 355 508 395 527 c 1,18,19
 417 539 417 539 443 533.5 c 128,-1,20
 469 528 469 528 482 503 c 0,21,22
 500 467 500 467 496 406 c 0,23,24
 496 401 496 401 491 359 c 0,25,26
 488 331 488 331 488 316 c 128,-1,27
 488 301 488 301 487.5 284 c 128,-1,28
 487 267 487 267 486.5 245.5 c 128,-1,29
 486 224 486 224 486 213 c 0,30,31
 484 151 484 151 488 111 c 0,32,33
 489 99 489 99 501 30 c 0,34,35
 510 -27 510 -27 511 -63 c 0,36,37
 512 -181 512 -181 424 -217 c 0,38,39
 413 -222 413 -222 392 -219 c 1,40,41
 370 -217 370 -217 360 -209 c 0,42,43
 313 -170 313 -170 326 -79 c 0,44,45
 330 -53 330 -53 341 -10 c 0,46,47
 351 27 351 27 352 34 c 1,0,1
156 157 m 1,48,49
 178 138 178 138 216 130 c 0,50,51
 272 119 272 119 299 140 c 0,52,53
 343 174 343 174 346.5 243 c 128,-1,54
 350 312 350 312 311 352 c 0,55,56
 302 361 302 361 283 366.5 c 128,-1,57
 264 372 264 372 247 372 c 0,58,59
 209 372 209 372 182 347 c 128,-1,60
 155 322 155 322 143 282 c 0,61,62
 141 275 141 275 139 269 c 1,63,-1
 139 264 l 2,64,65
 139 257 139 257 137.5 240 c 128,-1,66
 136 223 136 223 136 215 c 0,67,68
 140 181 140 181 156 157 c 1,48,49
EndSplineSet
Validated: 33
EndChar

StartChar: r
Encoding: 114 114 85
Width: 358
GlyphClass: 2
Flags: W
LayerCount: 2
Fore
SplineSet
146 172 m 1,0,1
 148 148 148 148 149 127 c 0,2,3
 153 51 153 51 135 14 c 0,4,5
 123 -11 123 -11 101 -21 c 0,6,7
 78 -32 78 -32 45 -25 c 0,8,9
 26 -21 26 -21 12.5 -8 c 128,-1,10
 -1 5 -1 5 -5 24 c 0,11,12
 -13 69 -13 69 -2 146 c 0,13,14
 12 244 12 244 13 262 c 0,15,16
 14 292 14 292 12.5 348 c 128,-1,17
 11 404 11 404 11 422 c 0,18,19
 11 427 11 427 10.5 440 c 128,-1,20
 10 453 10 453 10 459 c 0,21,22
 9 487 9 487 15 502 c 0,23,24
 25 525 25 525 45 534.5 c 128,-1,25
 65 544 65 544 87 539 c 1,26,27
 121 533 121 533 140 505 c 1,28,29
 148 518 148 518 158 527 c 0,30,31
 187 550 187 550 214.5 548 c 128,-1,32
 242 546 242 546 265 525 c 0,33,34
 286 506 286 506 295 477 c 128,-1,35
 304 448 304 448 295 420 c 0,36,37
 280 376 280 376 248 373 c 0,38,39
 235 372 235 372 198 386 c 0,40,41
 175 394 175 394 164 390 c 1,42,43
 147 382 147 382 134 339 c 1,44,-1
 134 336 l 1,45,46
 146 238 146 238 146 172 c 1,0,1
EndSplineSet
Validated: 33
EndChar

StartChar: s
Encoding: 115 115 86
Width: 508
GlyphClass: 2
Flags: W
LayerCount: 2
Fore
SplineSet
138 389 m 1,0,1
 139 377 139 377 146 364 c 0,2,3
 162 330 162 330 207 315 c 0,4,5
 227 309 227 309 304 298 c 0,6,7
 370 289 370 289 399 270 c 0,8,9
 446 241 446 241 449 178 c 0,10,11
 452 127 452 127 434 85 c 0,12,13
 407 22 407 22 334 -6.5 c 128,-1,14
 261 -35 261 -35 181 -27 c 0,15,16
 100 -19 100 -19 53 21 c 0,17,18
 -2 68 -2 68 17 139 c 0,19,20
 29 185 29 185 61 193 c 1,21,22
 92 202 92 202 115 184 c 0,23,24
 130 171 130 171 142 143 c 0,25,26
 146 135 146 135 152 118 c 2,27,-1
 158 99 l 1,28,29
 166 77 166 77 172 71 c 0,30,31
 188 56 188 56 207 53.5 c 128,-1,32
 226 51 226 51 249 58 c 1,33,34
 289 67 289 67 308 94 c 0,35,36
 322 115 322 115 314 143 c 1,37,38
 306 178 306 178 262 193 c 0,39,40
 249 198 249 198 233 201 c 2,41,-1
 195 208 l 2,42,43
 173 212 173 212 161 214 c 0,44,45
 92 228 92 228 61 259 c 0,46,47
 18 303 18 303 28 390 c 0,48,49
 36 458 36 458 87.5 501 c 128,-1,50
 139 544 139 544 209 556 c 0,51,52
 276 567 276 567 337 548 c 128,-1,53
 398 529 398 529 423 481 c 0,54,55
 434 458 434 458 431.5 433 c 128,-1,56
 429 408 429 408 416 386 c 0,57,58
 403 363 403 363 379.5 352.5 c 128,-1,59
 356 342 356 342 329 352 c 128,-1,60
 302 362 302 362 293 395 c 0,61,62
 292 398 292 398 290 401 c 0,63,64
 287 407 287 407 281.5 419 c 128,-1,65
 276 431 276 431 275 433 c 0,66,67
 271 442 271 442 267 447 c 1,68,69
 227 464 227 464 183 437 c 1,70,71
 154 418 154 418 138 389 c 1,0,1
EndSplineSet
Validated: 33
EndChar

StartChar: t
Encoding: 116 116 87
Width: 358
GlyphClass: 2
Flags: W
LayerCount: 2
Fore
SplineSet
43 367 m 1,0,1
 43 384 43 384 44 402 c 1,2,-1
 39 402 l 2,3,4
 2 402 2 402 -4 403 c 0,5,6
 -35 406 -35 406 -48 424 c 0,7,8
 -64 447 -64 447 -51 489 c 0,9,10
 -42 520 -42 520 -24 532 c 0,11,12
 -9 542 -9 542 12 537 c 0,13,14
 18 536 18 536 27 533 c 0,15,16
 37 530 37 530 38 529 c 1,17,18
 31 610 31 610 60 662 c 1,19,20
 71 684 71 684 93 688 c 0,21,22
 111 692 111 692 131 683 c 1,23,24
 149 676 149 676 163 660.5 c 128,-1,25
 177 645 177 645 182 628 c 1,26,27
 187 604 187 604 177 565 c 0,28,29
 177 564 177 564 169 537 c 1,30,-1
 167 529 l 1,31,32
 174 530 174 530 200 536 c 0,33,34
 235 543 235 543 253 540 c 0,35,36
 286 535 286 535 296 501 c 0,37,38
 308 464 308 464 282 440 c 0,39,40
 265 423 265 423 228 414 c 0,41,42
 213 411 213 411 171 405 c 0,43,44
 158 403 158 403 152 402 c 0,45,46
 149 401 149 401 148 400 c 0,47,48
 143 394 143 394 139 377 c 0,49,50
 135 362 135 362 133 345 c 0,51,52
 128 309 128 309 137 216 c 0,53,54
 141 169 141 169 147 140 c 0,55,56
 151 125 151 125 154 116 c 0,57,58
 156 113 156 113 158 111 c 0,59,60
 160 110 160 110 165 114 c 2,61,-1
 175 121 l 1,62,-1
 187 130 l 2,63,64
 205 144 205 144 220 146 c 0,65,66
 243 150 243 150 263 134 c 0,67,68
 289 113 289 113 289 84 c 0,69,70
 289 60 289 60 271 36 c 0,71,72
 256 16 256 16 232 1 c 128,-1,73
 208 -14 208 -14 186 -15 c 0,74,75
 136 -18 136 -18 104 6 c 0,76,77
 77 27 77 27 64 67 c 0,78,79
 55 97 55 97 52 144 c 1,80,81
 44 192 44 192 41 255 c 0,82,83
 39 313 39 313 43 367 c 1,0,1
EndSplineSet
Validated: 33
EndChar

StartChar: u
Encoding: 117 117 88
Width: 536
GlyphClass: 2
Flags: W
LayerCount: 2
Fore
SplineSet
132 511 m 1,0,-1
 132 510 l 1,1,2
 144 478 144 478 144 425 c 0,3,4
 144 400 144 400 141.5 342 c 128,-1,5
 139 284 139 284 139 254 c 0,6,7
 139 146 139 146 157 93 c 0,8,9
 166 69 166 69 198 65 c 0,10,11
 254 58 254 58 285 95 c 0,12,13
 312 127 312 127 322 193 c 0,14,15
 328 230 328 230 328.5 273.5 c 128,-1,16
 329 317 329 317 326.5 365 c 128,-1,17
 324 413 324 413 324 427 c 0,18,19
 324 483 324 483 341 518 c 1,20,21
 353 545 353 545 375 552 c 0,22,23
 400 561 400 561 431 539 c 1,24,25
 462 519 462 519 462 474 c 0,26,27
 462 468 462 468 454 409 c 0,28,29
 437 286 437 286 447 201 c 0,30,31
 448 194 448 194 467 119 c 0,32,33
 482 61 482 61 475 29 c 0,34,35
 468 -1 468 -1 444.5 -16 c 128,-1,36
 421 -31 421 -31 395 -26 c 1,37,38
 368 -19 368 -19 356 7 c 0,39,40
 351 19 351 19 350 33 c 1,41,-1
 346 29 l 2,42,43
 320 4 320 4 314 1 c 0,44,45
 269 -30 269 -30 208 -35 c 128,-1,46
 147 -40 147 -40 98 -11 c 1,47,48
 71 7 71 7 50.5 40.5 c 128,-1,49
 30 74 30 74 22 107 c 0,50,51
 16 134 16 134 9.5 201 c 128,-1,52
 3 268 3 268 2 334 c 0,53,54
 1 414 1 414 10 466 c 0,55,56
 15 496 15 496 23 515 c 0,57,58
 33 539 33 539 50 547 c 0,59,60
 65 553 65 553 78 554 c 0,61,62
 84 555 84 555 90 555 c 0,63,64
 112 554 112 554 124 535 c 0,65,66
 129 526 129 526 132 511 c 1,0,-1
EndSplineSet
Validated: 33
EndChar

StartChar: v
Encoding: 118 118 89
Width: 528
GlyphClass: 2
Flags: W
LayerCount: 2
Fore
SplineSet
173 271 m 1,0,1
 189 217 189 217 221 147 c 1,2,3
 259 185 259 185 289 312 c 1,4,-1
 304 384 l 1,5,-1
 322 462 l 2,6,7
 329 495 329 495 337 516 c 0,8,9
 348 545 348 545 389 555 c 0,10,11
 411 561 411 561 430 556 c 1,12,13
 434 556 434 556 437 554 c 0,14,15
 448 550 448 550 456 543 c 0,16,17
 471 528 471 528 470 502 c 0,18,19
 469 484 469 484 460 459 c 0,20,21
 455 444 455 444 444 419 c 1,22,23
 433 397 433 397 431 391 c 0,24,25
 377 237 377 237 346 164 c 0,26,27
 311 83 311 83 282 37 c 0,28,29
 265 10 265 10 249 -5 c 0,30,31
 229 -24 229 -24 210 -25 c 0,32,33
 174 -26 174 -26 147 23 c 0,34,35
 140 36 140 36 120 89 c 0,36,37
 106 125 106 125 82 202 c 1,38,39
 60 276 60 276 45 314 c 0,40,41
 39 329 39 329 26 354 c 0,42,43
 8 390 8 390 5 398 c 0,44,45
 -21 454 -21 454 -21 494 c 0,46,47
 -21 522 -21 522 -3 537 c 1,48,49
 13 549 13 549 37 548 c 0,50,51
 57 547 57 547 77.5 536.5 c 128,-1,52
 98 526 98 526 108 510 c 1,53,54
 120 493 120 493 126 465 c 0,55,56
 126 464 126 464 130 443 c 0,57,58
 132 430 132 430 134 423 c 0,59,60
 143 393 143 393 156 338 c 1,61,62
 163 314 163 314 173 271 c 1,0,1
EndSplineSet
Validated: 33
EndChar

StartChar: w
Encoding: 119 119 90
Width: 727
GlyphClass: 2
Flags: W
LayerCount: 2
Fore
SplineSet
316 285 m 1,0,-1
 304 240 l 1,1,2
 287 172 287 172 274 128 c 0,3,4
 254 62 254 62 235 26 c 0,5,6
 224 4 224 4 212 -8 c 0,7,8
 196 -24 196 -24 178 -21 c 0,9,10
 150 -15 150 -15 125 32 c 0,11,12
 115 50 115 50 98 95 c 0,13,14
 92 112 92 112 60 183 c 0,15,16
 31 249 31 249 10 300 c 0,17,18
 -21 378 -21 378 -35 420 c 1,19,20
 -53 481 -53 481 -46 506 c 0,21,22
 -37 542 -37 542 8 548 c 1,23,24
 48 552 48 552 72 529 c 0,25,26
 79 522 79 522 84.5 513.5 c 128,-1,27
 90 505 90 505 93.5 498 c 128,-1,28
 97 491 97 491 100 479 c 128,-1,29
 103 467 103 467 104 462 c 2,30,-1
 108 444 l 1,31,-1
 111 430 l 1,32,33
 123 369 123 369 140 309 c 0,34,35
 145 294 145 294 169 228 c 0,36,37
 177 204 177 204 182 187 c 1,38,39
 187 190 187 190 192 198 c 0,40,41
 209 222 209 222 230 292 c 0,42,43
 234 304 234 304 246 348 c 1,44,-1
 265 411 l 1,45,46
 276 441 276 441 284 458 c 1,47,48
 297 482 297 482 310 489 c 1,49,50
 331 498 331 498 350 486 c 0,51,52
 364 477 364 477 376 455 c 0,53,54
 395 421 395 421 411 354 c 0,55,56
 422 312 422 312 434 244 c 0,57,58
 445 183 445 183 446 180 c 2,59,-1
 449 175 l 1,60,61
 480 234 480 234 496.5 293 c 128,-1,62
 513 352 513 352 530 443 c 0,63,64
 536 472 536 472 543 492 c 0,65,66
 550 511 550 511 558 523 c 0,67,68
 565 533 565 533 574 538 c 1,69,70
 595 554 595 554 625 544 c 0,71,72
 671 530 671 530 668 468 c 0,73,74
 667 447 667 447 652 387 c 0,75,76
 622 273 622 273 570 152 c 0,77,78
 536 73 536 73 504 28 c 0,79,80
 463 -31 463 -31 424 -33 c 0,81,82
 406 -34 406 -34 391 -17 c 0,83,84
 380 -4 380 -4 371 20 c 0,85,86
 356 57 356 57 342 124 c 0,87,88
 333 169 333 169 323 237 c 2,89,-1
 316 285 l 1,0,-1
418 0 m 1,90,-1
 416 0 l 1,91,92
 420 -3 420 -3 422 -3 c 2,93,-1
 424 -3 l 1,94,95
 421 -2 421 -2 418 0 c 1,90,-1
EndSplineSet
Validated: 33
EndChar

StartChar: x
Encoding: 120 120 91
Width: 509
GlyphClass: 2
Flags: W
LayerCount: 2
Fore
SplineSet
218 197 m 1,0,1
 216 194 216 194 213 189 c 0,2,3
 206 178 206 178 198 157 c 0,4,5
 161 70 161 70 160 68 c 0,6,7
 134 13 134 13 105 -6 c 0,8,9
 64 -34 64 -34 18 3 c 0,10,11
 -14 30 -14 30 3 74 c 0,12,13
 14 103 14 103 51 145 c 2,14,-1
 112 212 l 2,15,16
 141 244 141 244 144 258 c 0,17,18
 149 279 149 279 121 318 c 0,19,20
 107 338 107 338 54 397 c 0,21,22
 8 448 8 448 -4 473 c 0,23,24
 -14 495 -14 495 -10 511 c 0,25,26
 -6 531 -6 531 16 542 c 0,27,28
 54 561 54 561 93 533 c 0,29,30
 121 513 121 513 152 467 c 0,31,32
 171 438 171 438 198 386 c 1,33,-1
 214 357 l 1,34,35
 220 352 220 352 225 352 c 0,36,37
 231 352 231 352 241 361 c 1,38,-1
 245 366 l 2,39,40
 251 375 251 375 259 384 c 1,41,42
 266 395 266 395 291 440 c 0,43,44
 327 505 327 505 350 525 c 0,45,46
 370 543 370 543 392 544 c 1,47,48
 416 544 416 544 438 522 c 0,49,50
 462 499 462 499 439 458 c 0,51,52
 426 435 426 435 388 391 c 0,53,54
 338 333 338 333 331 324 c 0,55,56
 306 290 306 290 307 272 c 0,57,58
 308 249 308 249 326 222.5 c 128,-1,59
 344 196 344 196 379 157 c 0,60,61
 417 115 417 115 428 98 c 0,62,63
 452 63 452 63 447 37 c 0,64,65
 441 8 441 8 419 -4.5 c 128,-1,66
 397 -17 397 -17 370 -15 c 0,67,68
 346 -14 346 -14 322.5 -3.5 c 128,-1,69
 299 7 299 7 286 24 c 0,70,71
 278 35 278 35 266 70 c 2,72,-1
 246 133 l 2,73,74
 234 171 234 171 225 187 c 0,75,76
 221 194 221 194 218 197 c 1,0,1
EndSplineSet
Validated: 33
EndChar

StartChar: y
Encoding: 121 121 92
Width: 512
GlyphClass: 2
Flags: W
LayerCount: 2
Fore
SplineSet
-6 443 m 0,0,1
 -8 449 -8 449 -9 455 c 0,2,3
 -16 497 -16 497 11 517 c 0,4,5
 31 532 31 532 62 528 c 0,6,7
 91 524 91 524 109 507 c 0,8,9
 114 501 114 501 124 481 c 1,10,-1
 142 437 l 1,11,12
 161 387 161 387 187 312 c 1,13,-1
 233 173 l 1,14,-1
 235 169 l 1,15,16
 246 152 246 152 254 145 c 2,17,-1
 255 144 l 1,18,19
 257 146 257 146 258 149 c 0,20,21
 263 158 263 158 269 175 c 0,22,23
 280 205 280 205 294 256 c 0,24,25
 304 291 304 291 313 330 c 1,26,-1
 316 346 l 2,27,28
 316 348 316 348 319 421 c 0,29,30
 320 449 320 449 322 466 c 0,31,32
 326 495 326 495 336 507 c 128,-1,33
 346 519 346 519 357 525 c 1,34,35
 373 539 373 539 400 533 c 0,36,37
 426 528 426 528 439 512 c 0,38,39
 455 494 455 494 454 460 c 0,40,41
 453 436 453 436 443 401 c 0,42,43
 436 377 436 377 423 343 c 0,44,45
 409 305 409 305 407 300 c 0,46,47
 397 270 397 270 376 214 c 2,48,-1
 346 133 l 2,49,50
 345 130 345 130 328 76 c 128,-1,51
 311 22 311 22 294 -22 c 0,52,53
 278 -65 278 -65 258 -104 c 0,54,55
 220 -177 220 -177 176 -206 c 1,56,57
 120 -245 120 -245 57 -213 c 0,58,59
 45 -207 45 -207 34.5 -191.5 c 128,-1,60
 24 -176 24 -176 19 -159 c 1,61,62
 12 -144 12 -144 17 -123.5 c 128,-1,63
 22 -103 22 -103 43 -95 c 0,64,65
 61 -88 61 -88 97 -100 c 0,66,67
 119 -108 119 -108 127 -104 c 0,68,69
 135 -99 135 -99 147 -76.5 c 128,-1,70
 159 -54 159 -54 170 -20 c 0,71,72
 178 6 178 6 184 31 c 1,73,-1
 151 102 l 1,74,-1
 83 241 l 1,75,-1
 21 374 l 2,76,77
 7 404 7 404 1 421 c 0,78,79
 -3 431 -3 431 -5 437 c 0,80,81
 -6 440 -6 440 -6 443 c 0,0,1
EndSplineSet
Validated: 33
EndChar

StartChar: z
Encoding: 122 122 93
Width: 500
GlyphClass: 2
Flags: W
LayerCount: 2
Fore
SplineSet
291 422 m 1,0,-1
 286 421 l 1,1,-1
 221 408 l 2,2,3
 178 400 178 400 148 395 c 0,4,5
 109 389 109 389 95 390 c 1,6,-1
 91 390 l 1,7,8
 65 389 65 389 47 393 c 0,9,10
 24 399 24 399 13 417 c 128,-1,11
 2 435 2 435 3 456 c 0,12,13
 4 476 4 476 15.5 494 c 128,-1,14
 27 512 27 512 46 519 c 0,15,16
 83 534 83 534 171 524 c 0,17,18
 191 522 191 522 234 516 c 128,-1,19
 277 510 277 510 294 509 c 0,20,21
 295 509 295 509 326 510 c 128,-1,22
 357 511 357 511 376 509 c 0,23,24
 408 506 408 506 423 495 c 0,25,26
 434 487 434 487 437 474 c 128,-1,27
 440 461 440 461 434 446 c 0,28,29
 425 425 425 425 374 365 c 1,30,-1
 271 249 l 1,31,-1
 174 139 l 1,32,33
 154 114 154 114 144 100 c 0,34,35
 139 93 139 93 137 88 c 1,36,-1
 137 87 l 1,37,38
 138 86 138 86 140 85 c 2,39,-1
 141 84 l 1,40,-1
 149 84 l 1,41,42
 160 83 160 83 290 90 c 0,43,44
 344 93 344 93 370 94 c 0,45,46
 388 95 388 95 398 94 c 0,47,48
 413 93 413 93 419 90 c 0,49,50
 438 80 438 80 441 50 c 0,51,52
 444 14 444 14 418 -4 c 0,53,54
 397 -19 397 -19 335 -26 c 1,55,56
 282 -33 282 -33 212 -34 c 0,57,58
 142 -34 142 -34 88 -28 c 0,59,60
 27 -21 27 -21 7 -7 c 0,61,62
 -21 11 -21 11 -21 50 c 0,63,64
 -21 62 -21 62 -8 79 c 2,65,-1
 -3 86 l 1,66,67
 2 96 2 96 11.5 108 c 128,-1,68
 21 120 21 120 28 127 c 2,69,-1
 48 146 l 1,70,-1
 62 160 l 1,71,-1
 122 220 l 1,72,-1
 190 288 l 2,73,74
 214 313 214 313 244 351 c 128,-1,75
 274 389 274 389 291 422 c 1,0,-1
EndSplineSet
Validated: 33
EndChar

StartChar: braceleft
Encoding: 123 123 94
Width: 395
GlyphClass: 2
Flags: W
LayerCount: 2
Fore
SplineSet
89 242 m 1,0,-1
 91 241 l 2,1,2
 92 241 92 241 99 238.5 c 128,-1,3
 106 236 106 236 110 234 c 0,4,5
 141 220 141 220 154 191 c 0,6,7
 161 174 161 174 162 146 c 0,8,9
 163 142 163 142 163 134 c 2,10,-1
 163 125 l 2,11,12
 163 114 163 114 164 107 c 0,13,14
 166 93 166 93 169.5 42.5 c 128,-1,15
 173 -8 173 -8 179.5 -38 c 128,-1,16
 186 -68 186 -68 200 -94 c 0,17,18
 209 -109 209 -109 222 -111 c 0,19,20
 233 -113 233 -113 254 -108 c 0,21,22
 283 -102 283 -102 292 -102 c 0,23,24
 317 -102 317 -102 329 -123 c 0,25,26
 348 -155 348 -155 319 -186 c 1,27,28
 296 -213 296 -213 264 -214 c 0,29,30
 180 -217 180 -217 137 -178 c 0,31,32
 102 -146 102 -146 91 -81 c 0,33,34
 89 -68 89 -68 81 32 c 0,35,36
 76 98 76 98 61 129.5 c 128,-1,37
 46 161 46 161 41 166 c 0,38,39
 34 173 34 173 17 179 c 1,40,-1
 3 185 l 2,41,42
 -7 189 -7 189 -13 192 c 0,43,44
 -31 202 -31 202 -38 217 c 0,45,46
 -46 235 -46 235 -37 261 c 1,47,48
 -30 285 -30 285 10 299 c 0,49,50
 46 312 46 312 52 320 c 0,51,52
 82 354 82 354 94 403 c 0,53,54
 99 424 99 424 101 447 c 128,-1,55
 103 470 103 470 103 500 c 256,56,57
 103 530 103 530 104 547 c 0,58,59
 109 639 109 639 162 687 c 0,60,61
 193 714 193 714 234 723 c 1,62,63
 246 730 246 730 256 733 c 0,64,65
 295 746 295 746 311 717 c 0,66,67
 326 691 326 691 309 664 c 0,68,69
 297 646 297 646 267 625 c 0,70,71
 258 618 258 618 240 606 c 2,72,-1
 219 592 l 2,73,74
 195 576 195 576 190 568 c 0,75,76
 167 532 167 532 164 457 c 0,77,78
 164 452 164 452 163 428 c 128,-1,79
 162 404 162 404 161.5 393 c 128,-1,80
 161 382 161 382 158.5 363.5 c 128,-1,81
 156 345 156 345 153 332 c 0,82,83
 143 298 143 298 122 277 c 0,84,85
 119 273 119 273 112 266 c 2,86,-1
 100 254 l 2,87,88
 94 249 94 249 89 242 c 1,0,-1
256 -160 m 1,89,-1
 250 -160 l 1,90,91
 254 -161 254 -161 256 -160 c 1,89,-1
EndSplineSet
Validated: 33
EndChar

StartChar: bar
Encoding: 124 124 95
Width: 222
GlyphClass: 2
Flags: W
LayerCount: 2
Fore
SplineSet
62 706 m 1,0,1
 61 713 61 713 66 717 c 0,2,3
 91 742 91 742 114 741 c 1,4,5
 135 739 135 739 148 716 c 0,6,7
 169 680 169 680 163 630 c 0,8,9
 162 625 162 625 156.5 579.5 c 128,-1,10
 151 534 151 534 150 524.5 c 128,-1,11
 149 515 149 515 145 474.5 c 128,-1,12
 141 434 141 434 140 419 c 2,13,-1
 136 369 l 2,14,15
 134 334 134 334 134.5 313.5 c 128,-1,16
 135 293 135 293 135.5 263.5 c 128,-1,17
 136 234 136 234 138 209 c 128,-1,18
 140 184 140 184 144 159 c 0,19,20
 144 156 144 156 146 144 c 128,-1,21
 148 132 148 132 150 123 c 0,22,23
 154 93 154 93 155 71 c 0,24,25
 157 39 157 39 151 20 c 0,26,27
 141 -9 141 -9 115 -8 c 0,28,29
 81 -7 81 -7 63 16 c 0,30,31
 49 34 49 34 47 66 c 0,32,33
 45 87 45 87 48 120 c 0,34,35
 52 160 52 160 52 163 c 0,36,37
 52 164 52 164 62 305 c 0,38,39
 68 390 68 390 65 445 c 0,40,41
 64 466 64 466 55 524 c 0,42,43
 47 575 47 575 46 605 c 0,44,45
 44 664 44 664 55 692 c 0,46,47
 58 700 58 700 62 706 c 1,0,1
EndSplineSet
Validated: 33
EndChar

StartChar: braceright
Encoding: 125 125 96
Width: 378
GlyphClass: 2
Flags: W
LayerCount: 2
Fore
SplineSet
35 721 m 0,0,1
 52 716 52 716 68 708 c 1,2,3
 97 697 97 697 119 678 c 0,4,5
 171 632 171 632 175 547 c 0,6,7
 175 539 175 539 175.5 489 c 128,-1,8
 176 439 176 439 181 413 c 0,9,10
 192 356 192 356 227 310 c 0,11,12
 234 301 234 301 268 290 c 0,13,14
 307 277 307 277 315 252 c 0,15,16
 325 223 325 223 313 204 c 0,17,18
 304 190 304 190 281 177 c 0,19,20
 279 176 279 176 272 172 c 2,21,-1
 262 166 l 1,22,-1
 254 162 l 2,23,24
 248 158 248 158 245.5 155.5 c 128,-1,25
 243 153 243 153 238 148.5 c 128,-1,26
 233 144 233 144 230 140.5 c 128,-1,27
 227 137 227 137 223.5 131.5 c 128,-1,28
 220 126 220 126 218 121 c 0,29,30
 203 88 203 88 199 21 c 0,31,32
 192 -73 192 -73 189 -92 c 0,33,34
 178 -156 178 -156 143 -187 c 0,35,36
 100 -226 100 -226 18 -223 c 0,37,38
 -13 -222 -13 -222 -37 -195 c 0,39,40
 -64 -164 -64 -164 -46 -132 c 0,41,42
 -35 -111 -35 -111 -10 -111 c 0,43,44
 0 -111 0 -111 28 -117 c 0,45,46
 49 -121 49 -121 60 -119 c 0,47,48
 73 -117 73 -117 81 -103 c 0,49,50
 95 -77 95 -77 101.5 -47 c 128,-1,51
 108 -17 108 -17 111.5 33.5 c 128,-1,52
 115 84 115 84 117 98 c 0,53,54
 118 105 118 105 118 116 c 2,55,-1
 118 126 l 1,56,-1
 118 137 l 1,57,58
 119 165 119 165 126 182 c 0,59,60
 138 211 138 211 169 225 c 0,61,62
 173 226 173 226 180 228.5 c 128,-1,63
 187 231 187 231 188 232 c 0,64,65
 190 233 190 233 191 233 c 1,66,67
 188 238 188 238 185 241 c 0,68,69
 176 248 176 248 170 256 c 1,70,-1
 169 257 l 2,71,72
 162 263 162 263 159 266 c 0,73,74
 137 287 137 287 127 323 c 0,75,76
 124 337 124 337 121.5 355 c 128,-1,77
 119 373 119 373 118.5 383.5 c 128,-1,78
 118 394 118 394 117.5 418.5 c 128,-1,79
 117 443 117 443 117 448 c 0,80,81
 114 523 114 523 91 559 c 0,82,83
 86 567 86 567 62 583 c 0,84,85
 60 585 60 585 42 597 c 128,-1,86
 24 609 24 609 15 616 c 0,87,88
 -14 637 -14 637 -26 655 c 0,89,90
 -43 683 -43 683 -28 708 c 1,91,92
 -12 737 -12 737 27 724 c 0,93,94
 30 722 30 722 35 721 c 0,0,1
EndSplineSet
Validated: 33
EndChar

StartChar: asciitilde
Encoding: 126 126 97
Width: 634
GlyphClass: 2
Flags: W
LayerCount: 2
Fore
SplineSet
97 327 m 5,0,1
 120 336 120 336 144 334 c 4,2,3
 180 332 180 332 230 308 c 4,4,5
 240 303 240 303 269 287 c 132,-1,6
 298 271 298 271 311 265 c 132,-1,7
 324 259 324 259 346.5 253.5 c 132,-1,8
 369 248 369 248 388 249 c 132,-1,9
 407 250 407 250 422 264 c 4,10,11
 430 272 430 272 441 292 c 6,12,-1
 462 330 l 5,13,14
 494 382 494 382 536 374 c 4,15,16
 551 371 551 371 558 366 c 4,17,18
 568 359 568 359 572 344 c 4,19,20
 582 305 582 305 564.5 270 c 132,-1,21
 547 235 547 235 511 209 c 4,22,23
 479 186 479 186 440 173.5 c 132,-1,24
 401 161 401 161 369 164 c 4,25,26
 359 165 359 165 348 168.5 c 132,-1,27
 337 172 337 172 329 175 c 132,-1,28
 321 178 321 178 307 186 c 132,-1,29
 293 194 293 194 288 196.5 c 132,-1,30
 283 199 283 199 266 209.5 c 132,-1,31
 249 220 249 220 247 221 c 4,32,33
 176 265 176 265 145 256 c 4,34,35
 136 254 136 254 123 231 c 4,36,37
 118 222 118 222 108 204 c 5,38,-1
 95 177 l 5,39,40
 75 142 75 142 56 128 c 4,41,42
 28 108 28 108 -6 123 c 4,43,44
 -38 138 -38 138 -31 185 c 4,45,46
 -26 224 -26 224 4 263 c 4,47,48
 44 316 44 316 97 327 c 5,0,1
EndSplineSet
Validated: 33
EndChar

StartChar: registered
Encoding: 174 174 98
Width: 798
GlyphClass: 2
Flags: W
LayerCount: 2
Fore
SplineSet
587 430 m 1,0,-1
 587 429 l 1,1,-1
 587 430 l 1,0,-1
434 325 m 1,2,3
 422 322 422 322 412 328 c 0,4,5
 378 350 378 350 377 377 c 0,6,7
 377 395 377 395 389 404.5 c 128,-1,8
 401 414 401 414 415 416 c 0,9,10
 441 420 441 420 466 403 c 128,-1,11
 491 386 491 386 501 351 c 0,12,13
 505 337 505 337 495 327 c 1,14,15
 501 312 501 312 490 301 c 0,16,17
 483 294 483 294 473 294 c 128,-1,18
 463 294 463 294 456 301 c 0,19,20
 442 315 442 315 434 325 c 1,2,3
289 270 m 1,21,-1
 288 270 l 2,22,23
 283 270 283 270 277 268 c 1,24,25
 274 262 274 262 276 258 c 1,26,-1
 277 257 l 1,27,28
 279 258 279 258 283 262 c 0,29,30
 287 267 287 267 289 270 c 1,21,-1
278 289 m 1,31,32
 283 290 283 290 288 290 c 0,33,34
 298 290 298 290 304 285 c 0,35,36
 312 277 312 277 309 266 c 0,37,38
 306 258 306 258 297 248 c 0,39,40
 287 237 287 237 276 237 c 128,-1,41
 265 237 265 237 259 248 c 0,42,43
 248 269 248 269 266 287 c 0,44,45
 271 292 271 292 278 289 c 1,31,32
406 278 m 1,46,47
 405 274 405 274 407 271 c 0,48,49
 410 266 410 266 419 270 c 1,50,-1
 422 273 l 2,51,52
 422 274 422 274 420 277 c 0,53,54
 413 283 413 283 406 278 c 1,46,47
405 299 m 1,55,56
 421 303 421 303 433 291 c 1,57,58
 443 283 443 283 442 271 c 0,59,60
 441 258 441 258 427 252 c 0,61,62
 402 242 402 242 390 260 c 0,63,64
 385 269 385 269 386 280 c 1,65,66
 385 285 385 285 388 289 c 1,67,-1
 389 289 l 1,68,69
 391 293 391 293 393 296 c 0,70,71
 398 302 398 302 405 299 c 1,55,56
358 121 m 1,72,73
 329 120 329 120 301 122 c 1,74,75
 295 99 295 99 300 62 c 1,76,77
 306 59 306 59 313 57 c 0,78,79
 346 45 346 45 379 49 c 1,80,81
 378 92 378 92 372 121 c 1,82,-1
 358 121 l 1,72,73
242 123 m 1,83,84
 251 90 251 90 287 69 c 1,85,86
 283 101 283 101 289 123 c 1,87,-1
 264 125 l 1,88,-1
 252 125 l 2,89,90
 247 125 247 125 242 123 c 1,83,84
468 122 m 1,91,92
 465 124 465 124 462 125 c 1,93,94
 428 120 428 120 385 121 c 1,95,96
 390 92 390 92 391 51 c 1,97,98
 406 55 406 55 419 62 c 0,99,100
 445 78 445 78 468 122 c 1,91,92
223 84 m 2,101,102
 223 83 223 83 224 83 c 2,103,-1
 223 84 l 2,101,102
505 13 m 1,104,-1
 505 12 l 1,105,-1
 505 13 l 1,104,-1
419 189 m 1,106,107
 474 183 474 183 517 154 c 1,108,-1
 545 141 l 1,109,110
 539 167 539 167 537 183 c 1,111,112
 534 194 534 194 537 205 c 0,113,114
 539 215 539 215 547 226 c 0,115,116
 553 235 553 235 554 235 c 0,117,118
 559 261 559 261 557 298 c 0,119,120
 553 356 553 356 512.5 408.5 c 128,-1,121
 472 461 472 461 415 482 c 1,122,123
 415 471 415 471 407 464 c 0,124,125
 374 433 374 433 337 433 c 1,126,127
 303 434 303 434 269 462 c 0,128,129
 263 467 263 467 260 474 c 1,130,131
 243 467 243 467 227 458 c 0,132,133
 181 434 181 434 152 398 c 1,134,135
 122 363 122 363 117 324 c 0,136,137
 113 295 113 295 123 268 c 128,-1,138
 133 241 133 241 158 198 c 0,139,140
 161 193 161 193 162 189 c 1,141,142
 167 187 167 187 166 182 c 0,143,144
 164 176 164 176 163 165 c 1,145,146
 172 162 172 162 171 153 c 1,147,-1
 171 151 l 1,148,149
 214 177 214 177 271 180 c 1,150,151
 296 218 296 218 345 216 c 1,152,153
 385 216 385 216 419 189 c 1,106,107
182 339 m 0,154,155
 182 340 182 340 183 343 c 2,156,-1
 184 348 l 1,157,158
 181 355 181 355 183 363 c 0,159,160
 184 366 184 366 186 370 c 0,161,162
 192 383 192 383 206 391.5 c 128,-1,163
 220 400 220 400 235 400 c 0,164,165
 239 400 239 400 242 399 c 0,166,167
 253 397 253 397 259 387 c 0,168,169
 268 373 268 373 258 359 c 1,170,-1
 256 355 l 1,171,172
 257 346 257 346 252 339 c 2,173,-1
 227 301 l 2,174,175
 227 300 227 300 226 300 c 1,176,-1
 226 299 l 1,177,-1
 225 298 l 1,178,-1
 225 296 l 1,179,-1
 225 294 l 1,180,181
 224 284 224 284 216 278 c 128,-1,182
 208 272 208 272 198 273 c 128,-1,183
 188 274 188 274 182 282 c 128,-1,184
 176 290 176 290 177 300 c 1,185,-1
 177 301 l 2,186,187
 177 302 177 302 177.5 304 c 128,-1,188
 178 306 178 306 178 309 c 0,189,190
 179 320 179 320 181 328 c 1,191,-1
 181 329 l 2,192,193
 181 334 181 334 182 339 c 0,154,155
672 583 m 128,-1,195
 672 569 672 569 662 558 c 0,196,197
 659 556 659 556 656 554 c 1,198,199
 663 557 663 557 670 557 c 0,200,201
 684 557 684 557 694.5 546.5 c 128,-1,202
 705 536 705 536 705 522 c 0,203,204
 705 514 705 514 701 507 c 1,205,206
 703 507 703 507 704 507 c 0,207,208
 718 507 718 507 728.5 496.5 c 128,-1,209
 739 486 739 486 739 472 c 128,-1,210
 739 458 739 458 728 448 c 1,211,212
 724 443 724 443 718 440 c 1,213,214
 721 438 721 438 724 434 c 0,215,216
 735 424 735 424 735 410 c 128,-1,217
 735 396 735 396 724.5 385.5 c 128,-1,218
 714 375 714 375 700 375 c 1,219,220
 700 371 700 371 699 367 c 1,221,222
 711 365 711 365 720 356 c 0,223,224
 730 346 730 346 730 332 c 128,-1,225
 730 318 730 318 720 308 c 0,226,227
 717 305 717 305 714 303 c 1,228,229
 722 294 722 294 722 282 c 0,230,231
 722 268 722 268 711.5 257.5 c 128,-1,232
 701 247 701 247 687 247 c 0,233,234
 680 247 680 247 673 250 c 1,235,236
 678 247 678 247 682 244 c 0,237,238
 692 233 692 233 692 219 c 128,-1,239
 692 205 692 205 682 194 c 1,240,241
 675 188 675 188 668 186 c 1,242,243
 674 184 674 184 678 180 c 0,244,245
 686 172 686 172 686 161 c 128,-1,246
 686 150 686 150 678 142 c 0,247,248
 674 138 674 138 669 136 c 0,249,250
 668 135 668 135 666 134 c 0,251,252
 659 126 659 126 648 126 c 0,253,254
 644 126 644 126 640 127 c 1,255,256
 640 116 640 116 632.5 108.5 c 128,-1,257
 625 101 625 101 614 101 c 0,258,259
 605 101 605 101 599 105 c 1,260,261
 598 103 598 103 596 101 c 1,262,-1
 596 95 l 1,263,264
 607 95 607 95 614 88 c 0,265,266
 618 84 618 84 619 81 c 1,267,-1
 622 80 l 2,268,269
 627 78 627 78 626 72 c 0,270,271
 625 69 625 69 622 68 c 1,272,273
 622 58 622 58 614 50 c 0,274,275
 607 43 607 43 596 43 c 1,276,-1
 596 42 l 1,277,278
 604 41 604 41 610 34 c 1,279,280
 618 27 618 27 618 16 c 0,281,282
 618 9 618 9 615 4 c 1,283,284
 616 2 616 2 617 0 c 0,285,286
 620 -6 620 -6 614.5 -8.5 c 128,-1,287
 609 -11 609 -11 607 -6 c 1,288,289
 602 -9 602 -9 596 -10 c 1,290,291
 601 -17 601 -17 601 -26 c 0,292,293
 601 -37 601 -37 593.5 -44.5 c 128,-1,294
 586 -52 586 -52 575 -52 c 0,295,296
 568 -52 568 -52 562 -49 c 1,297,-1
 560 -51 l 1,298,299
 563 -57 563 -57 563 -64 c 0,300,301
 563 -75 563 -75 555.5 -82.5 c 128,-1,302
 548 -90 548 -90 537 -90 c 0,303,304
 531 -90 531 -90 526 -88 c 1,305,306
 527 -92 527 -92 527 -96 c 0,307,308
 527 -107 527 -107 519.5 -114.5 c 128,-1,309
 512 -122 512 -122 501 -122 c 128,-1,310
 490 -122 490 -122 482 -114 c 0,311,312
 481 -113 481 -113 481 -112 c 2,313,-1
 477 -114 l 1,314,315
 477 -116 477 -116 477 -117 c 0,316,317
 477 -128 477 -128 469.5 -135.5 c 128,-1,318
 462 -143 462 -143 451 -143 c 128,-1,319
 440 -143 440 -143 432 -136 c 0,320,321
 431 -134 431 -134 429 -132 c 1,322,-1
 427 -132 l 1,323,324
 425 -136 425 -136 422 -138 c 0,325,326
 415 -146 415 -146 404 -146 c 128,-1,327
 393 -146 393 -146 386 -138 c 0,328,329
 385 -138 385 -138 384 -137 c 1,330,331
 383 -138 383 -138 382 -138 c 0,332,333
 375 -146 375 -146 364 -146 c 128,-1,334
 353 -146 353 -146 346 -138 c 0,335,336
 344 -137 344 -137 342 -135 c 1,337,338
 341 -137 341 -137 340 -138 c 0,339,340
 332 -146 332 -146 321 -146 c 128,-1,341
 310 -146 310 -146 302 -138 c 0,342,343
 299 -135 299 -135 297 -131 c 1,344,345
 296 -133 296 -133 294 -136 c 0,346,347
 286 -143 286 -143 275 -143 c 128,-1,348
 264 -143 264 -143 256 -136 c 1,349,350
 250 -129 250 -129 249 -121 c 1,351,352
 242 -127 242 -127 232 -127 c 0,353,354
 221 -127 221 -127 213.5 -119.5 c 128,-1,355
 206 -112 206 -112 206 -101 c 0,356,357
 206 -99 206 -99 206 -97 c 1,358,359
 205 -99 205 -99 204 -100 c 0,360,361
 196 -108 196 -108 185 -108 c 128,-1,362
 174 -108 174 -108 166.5 -100.5 c 128,-1,363
 159 -93 159 -93 159 -82 c 0,364,365
 159 -79 159 -79 160 -75 c 1,366,367
 157 -76 157 -76 154 -76 c 0,368,369
 143 -76 143 -76 135.5 -68.5 c 128,-1,370
 128 -61 128 -61 128 -50 c 0,371,372
 128 -42 128 -42 132 -36 c 1,373,374
 124 -34 124 -34 118 -28 c 0,375,376
 111 -21 111 -21 111 -10 c 128,-1,377
 111 1 111 1 118 8 c 0,378,379
 122 12 122 12 127 14 c 1,380,381
 126 14 126 14 125 14 c 0,382,383
 114 14 114 14 106.5 21.5 c 128,-1,384
 99 29 99 29 99 40 c 128,-1,385
 99 51 99 51 106 58 c 256,386,387
 113 65 113 65 121 66 c 1,388,389
 121 66 121 66 121 67 c 0,390,391
 119 69 119 69 117 72 c 1,392,393
 110 73 110 73 104 78 c 1,394,395
 97 86 97 86 97 97 c 128,-1,396
 97 108 97 108 104 116 c 0,397,398
 107 118 107 118 110 120 c 1,399,400
 110 123 110 123 110 126 c 1,401,402
 101 119 101 119 90 119 c 0,403,404
 76 119 76 119 65.5 129.5 c 128,-1,405
 55 140 55 140 55 154 c 0,406,407
 55 165 55 165 61 173 c 1,408,-1
 57 178 l 1,409,410
 55 174 55 174 52 172 c 0,411,412
 42 161 42 161 28 161 c 128,-1,413
 14 161 14 161 3.5 171.5 c 128,-1,414
 -7 182 -7 182 -7 196 c 128,-1,415
 -7 210 -7 210 4 220 c 1,416,417
 12 229 12 229 22 231 c 1,418,419
 17 237 17 237 12 245 c 2,420,-1
 11 247 l 1,421,422
 2 240 2 240 -9 240 c 0,423,424
 -23 240 -23 240 -33.5 250.5 c 128,-1,425
 -44 261 -44 261 -44 275 c 128,-1,426
 -44 289 -44 289 -34 300 c 1,427,428
 -25 308 -25 308 -14 310 c 1,429,430
 -15 314 -15 314 -16 319 c 1,431,432
 -25 312 -25 312 -37 312 c 0,433,434
 -51 312 -51 312 -61.5 322.5 c 128,-1,435
 -72 333 -72 333 -72 347 c 128,-1,436
 -72 361 -72 361 -62 372 c 1,437,438
 -55 378 -55 378 -48 380 c 1,439,440
 -53 383 -53 383 -56 386 c 0,441,442
 -67 397 -67 397 -67 411 c 128,-1,443
 -67 425 -67 425 -56 436 c 0,444,445
 -49 443 -49 443 -39 445 c 1,446,447
 -39 447 -39 447 -39 448 c 0,448,449
 -48 450 -48 450 -56 458 c 0,450,451
 -66 468 -66 468 -66 482 c 128,-1,452
 -66 496 -66 496 -55.5 506.5 c 128,-1,453
 -45 517 -45 517 -31 517 c 0,454,455
 -30 517 -30 517 -28 517 c 1,456,457
 -31 523 -31 523 -31 530 c 0,458,459
 -31 544 -31 544 -20.5 554.5 c 128,-1,460
 -10 565 -10 565 4 565 c 1,461,462
 -3 574 -3 574 -3 586 c 0,463,464
 -3 600 -3 600 7.5 610.5 c 128,-1,465
 18 621 18 621 32 621 c 256,466,467
 46 621 46 621 56 611 c 1,468,-1
 57 612 l 1,469,470
 47 622 47 622 47 636 c 256,471,472
 47 650 47 650 57.5 660.5 c 128,-1,473
 68 671 68 671 82 671 c 0,474,475
 89 671 89 671 95 669 c 1,476,477
 94 672 94 672 94 675 c 0,478,479
 94 689 94 689 104.5 699.5 c 128,-1,480
 115 710 115 710 129 710 c 128,-1,481
 143 710 143 710 154 700 c 1,482,483
 160 693 160 693 162 686 c 1,484,-1
 163 687 l 1,485,486
 158 695 158 695 158 705 c 0,487,488
 158 719 158 719 168.5 729.5 c 128,-1,489
 179 740 179 740 193 740 c 128,-1,490
 207 740 207 740 218 730 c 0,491,492
 219 728 219 728 220 727 c 1,493,494
 221 737 221 737 230 746 c 0,495,496
 240 756 240 756 254 756 c 128,-1,497
 268 756 268 756 278 746 c 0,498,499
 282 742 282 742 284 738 c 1,500,501
 287 738 287 738 290 738 c 1,502,503
 290 752 290 752 300.5 762.5 c 128,-1,504
 311 773 311 773 325 773 c 128,-1,505
 339 773 339 773 349.5 762.5 c 128,-1,506
 360 752 360 752 360 738 c 0,507,508
 360 737 360 737 360 737 c 1,509,510
 363 737 363 737 366 736 c 1,511,512
 367 746 367 746 376 754 c 1,513,514
 386 765 386 765 400 765 c 128,-1,515
 414 765 414 765 424.5 754.5 c 128,-1,516
 435 744 435 744 435 730 c 0,517,518
 435 727 435 727 434 723 c 1,519,520
 440 722 440 722 445 720 c 1,521,522
 448 725 448 725 452 728 c 0,523,524
 462 739 462 739 476 739 c 128,-1,525
 490 739 490 739 500.5 728.5 c 128,-1,526
 511 718 511 718 511 704 c 0,527,528
 511 697 511 697 509 691 c 1,529,-1
 510 690 l 1,530,531
 521 701 521 701 535 701 c 128,-1,532
 549 701 549 701 559.5 690.5 c 128,-1,533
 570 680 570 680 570 666 c 0,534,535
 570 657 570 657 565 649 c 1,536,-1
 566 648 l 1,537,538
 568 654 568 654 574 660 c 0,539,540
 584 670 584 670 598 670 c 128,-1,541
 612 670 612 670 622.5 659.5 c 128,-1,542
 633 649 633 649 633 635 c 0,543,544
 633 625 633 625 628 617 c 1,545,546
 632 618 632 618 637 618 c 0,547,548
 651 618 651 618 661.5 607.5 c 128,-1,194
 672 597 672 597 672 583 c 128,-1,195
650 551 m 1,549,-1
 651 551 l 1,550,-1
 650 551 l 1,549,-1
EndSplineSet
Validated: 33
EndChar

StartChar: egrave
Encoding: 232 232 99
Width: 558
GlyphClass: 2
Flags: W
LayerCount: 2
Fore
SplineSet
147 215 m 0,0,1
 144 215 144 215 142 214 c 0,2,3
 122 212 122 212 118 209 c 1,4,5
 117 207 117 207 116 200 c 0,6,7
 115 195 115 195 116 184 c 0,8,9
 118 136 118 136 144 110 c 128,-1,10
 170 84 170 84 220 78 c 0,11,12
 305 67 305 67 346 137 c 0,13,14
 348 139 348 139 352 147 c 2,15,-1
 358 159 l 1,16,17
 369 177 369 177 378 184 c 1,18,19
 408 202 408 202 436.5 197.5 c 128,-1,20
 465 193 465 193 484 168 c 128,-1,21
 503 143 503 143 499 113 c 0,22,23
 496 92 496 92 489 76 c 128,-1,24
 482 60 482 60 468 45.5 c 128,-1,25
 454 31 454 31 445 24 c 128,-1,26
 436 17 436 17 416 3 c 0,27,28
 359 -38 359 -38 280.5 -39 c 128,-1,29
 202 -40 202 -40 131.5 -5.5 c 128,-1,30
 61 29 61 29 22 88 c 1,31,32
 -16 148 -16 148 -19 229 c 128,-1,33
 -22 310 -22 310 10 384 c 0,34,35
 43 459 43 459 101 500 c 0,36,37
 164 545 164 545 288 536 c 0,38,39
 393 528 393 528 436 482 c 0,40,41
 474 442 474 442 472 374 c 0,42,43
 470 316 470 316 429 278 c 1,44,45
 389 239 389 239 326 221 c 0,46,47
 232 193 232 193 147 215 c 0,0,1
154 312 m 1,48,49
 280 297 280 297 335 335 c 0,50,51
 356 349 356 349 357 364 c 0,52,53
 357 376 357 376 345 390 c 0,54,55
 332 405 332 405 310.5 415.5 c 128,-1,56
 289 426 289 426 270 428 c 0,57,58
 220 434 220 434 175.5 414 c 128,-1,59
 131 394 131 394 116 366 c 0,60,61
 104 343 104 343 121 328 c 0,62,63
 132 318 132 318 154 312 c 1,48,49
126 645 m 5,64,-1
 122 647 l 5,65,66
 68 672 68 672 68 719 c 4,67,68
 68 737 68 737 71 745 c 4,69,70
 78 762 78 762 98 768 c 4,71,72
 119 775 119 775 163 761 c 4,73,74
 199 749 199 749 241 727 c 4,75,76
 283 704 283 704 313 681 c 4,77,78
 349 653 349 653 354 631 c 4,79,80
 359 605 359 605 347 589 c 4,81,82
 336 574 336 574 312 573 c 4,83,84
 283 571 283 571 230 592 c 5,85,86
 190 609 190 609 145 634 c 6,87,-1
 126 645 l 5,64,-1
EndSplineSet
Validated: 33
EndChar

StartChar: eacute
Encoding: 233 233 100
Width: 558
GlyphClass: 2
Flags: W
LayerCount: 2
Fore
SplineSet
147 215 m 0,0,1
 144 215 144 215 142 214 c 0,2,3
 122 212 122 212 118 209 c 1,4,5
 117 207 117 207 116 200 c 0,6,7
 115 195 115 195 116 184 c 0,8,9
 118 136 118 136 144 110 c 128,-1,10
 170 84 170 84 220 78 c 0,11,12
 305 67 305 67 346 137 c 0,13,14
 348 139 348 139 352 147 c 2,15,-1
 358 159 l 1,16,17
 369 177 369 177 378 184 c 1,18,19
 408 202 408 202 436.5 197.5 c 128,-1,20
 465 193 465 193 484 168 c 128,-1,21
 503 143 503 143 499 113 c 0,22,23
 496 92 496 92 489 76 c 128,-1,24
 482 60 482 60 468 45.5 c 128,-1,25
 454 31 454 31 445 24 c 128,-1,26
 436 17 436 17 416 3 c 0,27,28
 359 -38 359 -38 280.5 -39 c 128,-1,29
 202 -40 202 -40 131.5 -5.5 c 128,-1,30
 61 29 61 29 22 88 c 1,31,32
 -16 148 -16 148 -19 229 c 128,-1,33
 -22 310 -22 310 10 384 c 0,34,35
 43 459 43 459 101 500 c 0,36,37
 164 545 164 545 288 536 c 0,38,39
 393 528 393 528 436 482 c 0,40,41
 474 442 474 442 472 374 c 0,42,43
 470 316 470 316 429 278 c 1,44,45
 389 239 389 239 326 221 c 0,46,47
 232 193 232 193 147 215 c 0,0,1
154 312 m 1,48,49
 280 297 280 297 335 335 c 0,50,51
 356 349 356 349 357 364 c 0,52,53
 357 376 357 376 345 390 c 0,54,55
 332 405 332 405 310.5 415.5 c 128,-1,56
 289 426 289 426 270 428 c 0,57,58
 220 434 220 434 175.5 414 c 128,-1,59
 131 394 131 394 116 366 c 0,60,61
 104 343 104 343 121 328 c 0,62,63
 132 318 132 318 154 312 c 1,48,49
187 676 m 5,64,-1
 195 683 l 5,65,66
 238 718 238 718 280 743 c 4,67,68
 333 774 333 774 364 772 c 4,69,70
 389 771 389 771 400 750 c 4,71,72
 409 733 409 733 403 703 c 4,73,74
 395 668 395 668 345 632 c 4,75,76
 304 603 304 603 251 584 c 4,77,78
 196 565 196 565 165 569 c 4,79,80
 140 572 140 572 133 591 c 4,81,82
 126 608 126 608 141 632 c 4,83,84
 154 654 154 654 187 676 c 5,64,-1
EndSplineSet
Validated: 33
EndChar

StartChar: quoteleft
Encoding: 8216 8216 101
Width: 220
GlyphClass: 2
Flags: W
LayerCount: 2
Fore
SplineSet
91 579 m 1,0,1
 119 591 119 591 139 580 c 0,2,3
 163 567 163 567 162 534 c 0,4,5
 161 503 161 503 136.5 478 c 128,-1,6
 112 453 112 453 70 452 c 0,7,8
 23 451 23 451 3 479 c 0,9,10
 -36 534 -36 534 2 605 c 0,11,12
 32 662 32 662 89 697 c 0,13,14
 91 698 91 698 92 699 c 0,15,16
 97 702 97 702 101 704 c 0,17,18
 107 708 107 708 112 709 c 0,19,20
 116 710 116 710 120 710 c 0,21,22
 128 709 128 709 132 702 c 0,23,24
 135 696 135 696 132 689 c 0,25,26
 131 686 131 686 129 682 c 0,27,28
 125 676 125 676 119 668 c 0,29,30
 115 662 115 662 109.5 655 c 128,-1,31
 104 648 104 648 104 647 c 0,32,33
 92 632 92 632 91 588 c 1,34,-1
 91 579 l 1,0,1
EndSplineSet
Validated: 33
EndChar

StartChar: quoteright
Encoding: 8217 8217 102
Width: 225
GlyphClass: 2
Flags: W
LayerCount: 2
Fore
SplineSet
79 574 m 1,0,1
 62 572 62 572 47 578 c 1,2,3
 20 591 20 591 14 625 c 0,4,5
 9 656 9 656 30 684 c 128,-1,6
 51 712 51 712 92 715 c 1,7,8
 102 718 102 718 117.5 715 c 128,-1,9
 133 712 133 712 144 699 c 0,10,11
 174 663 174 663 165 604 c 0,12,13
 157 554 157 554 128 517 c 0,14,15
 108 490 108 490 78 471 c 0,16,17
 67 464 67 464 58 461 c 0,18,19
 53 459 53 459 49 458 c 0,20,21
 45 458 45 458 41 459 c 0,22,23
 33 463 33 463 33 472 c 0,24,25
 33 476 33 476 35 481 c 0,26,27
 36 484 36 484 39 488 c 0,28,29
 42 493 42 493 48 502 c 0,30,31
 63 523 63 523 64 524 c 0,32,33
 72 539 72 539 78 567 c 1,34,-1
 79 574 l 1,0,1
EndSplineSet
Validated: 33
EndChar

StartChar: quotedblleft
Encoding: 8220 8220 103
Width: 381
GlyphClass: 2
Flags: W
LayerCount: 2
Fore
SplineSet
44 677 m 1,0,1
 58 690 58 690 71 694 c 0,2,3
 89 699 89 699 101 689 c 1,4,5
 110 680 110 680 105 666 c 0,6,7
 103 659 103 659 97 650 c 0,8,9
 93 644 93 644 87 636 c 1,10,-1
 84 631 l 1,11,-1
 82 629 l 1,12,13
 62 598 62 598 70 560 c 1,14,15
 101 569 101 569 116 550 c 1,16,17
 134 530 134 530 121 491 c 0,18,19
 110 455 110 455 83 437 c 0,20,21
 49 415 49 415 13 442 c 0,22,23
 -14 462 -14 462 -22.5 493.5 c 128,-1,24
 -31 525 -31 525 -25.5 553.5 c 128,-1,25
 -20 582 -20 582 -5 611 c 0,26,27
 12 646 12 646 36 670 c 0,28,29
 39 674 39 674 44 677 c 1,0,1
245 705 m 1,30,31
 260 707 260 707 271 695 c 0,32,33
 278 687 278 687 276 675 c 0,34,35
 275 669 275 669 271 659 c 0,36,37
 269 654 269 654 263 642 c 2,38,-1
 254 624 l 2,39,40
 244 604 244 604 244 592 c 0,41,42
 244 585 244 585 247 581 c 1,43,44
 273 590 273 590 293 579 c 0,45,46
 317 566 317 566 322 536 c 0,47,48
 326 506 326 506 308 479 c 128,-1,49
 290 452 290 452 251 444 c 0,50,51
 250 444 250 444 246.5 443 c 128,-1,52
 243 442 243 442 240 441.5 c 128,-1,53
 237 441 237 441 235 441 c 0,54,55
 226 440 226 440 214 447 c 0,56,57
 182 463 182 463 168.5 494 c 128,-1,58
 155 525 155 525 157 555 c 128,-1,59
 159 585 159 585 170 616 c 0,60,61
 186 661 186 661 213 687 c 2,62,-1
 216 690 l 1,63,64
 225 708 225 708 245 705 c 1,30,31
EndSplineSet
Validated: 33
EndChar

StartChar: quotedblright
Encoding: 8221 8221 104
Width: 416
GlyphClass: 2
Flags: W
LayerCount: 2
Fore
SplineSet
78 591 m 1,0,1
 78 595 78 595 77 602 c 1,2,3
 37 579 37 579 13 606 c 1,4,5
 -6 629 -6 629 0 669 c 0,6,7
 7 709 7 709 35 730 c 0,8,9
 69 755 69 755 115 734 c 0,10,11
 152 717 152 717 159 670 c 1,12,13
 166 631 166 631 152 584 c 0,14,15
 138 539 138 539 113 508 c 1,16,17
 83 473 83 473 51 477 c 0,18,19
 39 479 39 479 35 489 c 0,20,21
 32 496 32 496 35 506 c 128,-1,22
 38 516 38 516 49 533 c 1,23,-1
 62 551 l 1,24,-1
 78 591 l 1,0,1
64 504 m 1,25,26
 63 504 63 504 62 505 c 1,27,-1
 62 503 l 1,28,29
 63 503 63 503 64 504 c 1,25,26
187 639 m 1,30,-1
 185 647 l 2,31,32
 176 685 176 685 197 715 c 1,33,34
 220 751 220 751 271 751 c 1,35,-1
 281 752 l 2,36,37
 291 752 291 752 292 751 c 0,38,39
 304 750 304 750 315 740 c 0,40,41
 359 703 359 703 357 655 c 0,42,43
 356 618 356 618 327 578 c 0,44,45
 305 549 305 549 274 524 c 0,46,47
 262 515 262 515 253 509 c 1,48,49
 248 507 248 507 245 505 c 0,50,51
 243 504 243 504 241.5 503.5 c 128,-1,52
 240 503 240 503 238 503 c 0,53,54
 233 503 233 503 229 506 c 0,55,56
 221 512 221 512 223 524 c 0,57,58
 223 529 223 529 227 537 c 0,59,60
 230 544 230 544 243 567 c 0,61,62
 253 584 253 584 258 595 c 1,63,64
 240 589 240 589 224 596 c 1,65,66
 209 601 209 601 198 616 c 1,67,68
 189 624 189 624 187 639 c 1,30,-1
294 723 m 1,69,-1
 295 723 l 1,70,71
 294 724 294 724 293 724 c 2,72,-1
 294 723 l 1,69,-1
EndSplineSet
Validated: 33
EndChar

StartChar: agrave
Encoding: 224 224 106
Width: 585
Flags: W
LayerCount: 2
Fore
SplineSet
173 587 m 5,0,1
 168 584 168 584 162 583 c 4,2,3
 150 581 150 581 135 586 c 4,4,5
 110 595 110 595 77 621 c 4,6,7
 48 645 48 645 27 671 c 4,8,9
 16 684 16 684 10 695 c 4,10,11
 3 708 3 708 4 718 c 4,12,13
 6 735 6 735 22 741 c 4,14,15
 32 745 32 745 47 744 c 4,16,17
 64 743 64 743 88 735 c 4,18,19
 125 724 125 724 152 684.5 c 132,-1,20
 179 645 179 645 191 602 c 4,21,22
 195 589 195 589 183 586 c 4,23,24
 177 584 177 584 173 587 c 5,0,1
292 239 m 0,25,26
 291 240 291 240 290 240 c 0,27,28
 278 235 278 235 258 228 c 2,29,-1
 215 211 l 2,30,31
 196 203 196 203 183 196 c 1,32,-1
 149 165 l 1,33,34
 129 134 129 134 152 111 c 0,35,36
 162 100 162 100 178.5 97 c 128,-1,37
 195 94 195 94 214 101 c 1,38,39
 230 108 230 108 253.5 133 c 128,-1,40
 277 158 277 158 291 185 c 1,41,-1
 291 186 l 1,42,43
 299 213 299 213 292 239 c 0,25,26
58 257 m 0,44,45
 85 271 85 271 141 285 c 0,46,47
 206 302 206 302 225 308 c 0,48,49
 267 323 267 323 289.5 343 c 128,-1,50
 312 363 312 363 316 394 c 0,51,52
 319 410 319 410 317 421 c 1,53,-1
 313 427 l 2,54,55
 301 444 301 444 280.5 452.5 c 128,-1,56
 260 461 260 461 239 457 c 0,57,58
 226 455 226 455 215 447.5 c 128,-1,59
 204 440 204 440 198 432 c 2,60,-1
 180 410 l 2,61,62
 168 394 168 394 159.5 385.5 c 128,-1,63
 151 377 151 377 134.5 367 c 128,-1,64
 118 357 118 357 98 355 c 0,65,66
 60 351 60 351 37 377 c 128,-1,67
 14 403 14 403 22 441 c 0,68,69
 33 490 33 490 78 523 c 128,-1,70
 123 556 123 556 183 567 c 1,71,72
 237 580 237 580 296 567.5 c 128,-1,73
 355 555 355 555 387 519 c 0,74,75
 414 490 414 490 424 453 c 128,-1,76
 434 416 434 416 431.5 386.5 c 128,-1,77
 429 357 429 357 419 318 c 0,78,79
 416 305 416 305 408.5 279 c 128,-1,80
 401 253 401 253 397.5 238 c 128,-1,81
 394 223 394 223 390.5 203 c 128,-1,82
 387 183 387 183 387.5 166 c 128,-1,83
 388 149 388 149 392 133 c 0,84,85
 393 129 393 129 396 124 c 1,86,-1
 400 121 l 1,87,88
 402 121 402 121 404 122 c 2,89,-1
 408 124 l 2,90,91
 413 127 413 127 426 140 c 0,92,93
 455 167 455 167 479 165 c 0,94,95
 500 164 500 164 513 146 c 1,96,97
 528 136 528 136 526 117 c 1,98,-1
 525 114 l 1,99,100
 529 91 529 91 523 72 c 0,101,102
 511 30 511 30 469 5 c 128,-1,103
 427 -20 427 -20 384 -5 c 0,104,105
 374 -2 374 -2 364 9 c 2,106,-1
 352 24 l 2,107,108
 348 30 348 30 345 32 c 1,109,110
 340 28 340 28 329 17 c 1,111,112
 316 2 316 2 302 -3 c 0,113,114
 270 -15 270 -15 234.5 -22.5 c 128,-1,115
 199 -30 199 -30 158 -30.5 c 128,-1,116
 117 -31 117 -31 87 -19 c 0,117,118
 52 -6 52 -6 23 28 c 128,-1,119
 -6 62 -6 62 -12 99 c 0,120,121
 -24 179 -24 179 13 221 c 0,122,123
 27 236 27 236 47 247 c 1,124,125
 51 253 51 253 58 257 c 0,44,45
EndSplineSet
Validated: 33
EndChar

StartChar: aacute
Encoding: 225 225 107
Width: 585
Flags: W
LayerCount: 2
Fore
SplineSet
187 696 m 5,0,-1
 195 703 l 5,1,2
 238 738 238 738 280 763 c 4,3,4
 333 794 333 794 364 792 c 4,5,6
 389 791 389 791 400 770 c 4,7,8
 409 753 409 753 403 723 c 4,9,10
 395 688 395 688 345 652 c 4,11,12
 304 623 304 623 251 604 c 4,13,14
 196 585 196 585 165 589 c 4,15,16
 140 592 140 592 133 611 c 4,17,18
 126 628 126 628 141 652 c 4,19,20
 154 674 154 674 187 696 c 5,0,-1
292 239 m 0,21,22
 291 240 291 240 290 240 c 0,23,24
 278 235 278 235 258 228 c 2,25,-1
 215 211 l 2,26,27
 196 203 196 203 183 196 c 1,28,-1
 149 165 l 1,29,30
 129 134 129 134 152 111 c 0,31,32
 162 100 162 100 178.5 97 c 128,-1,33
 195 94 195 94 214 101 c 1,34,35
 230 108 230 108 253.5 133 c 128,-1,36
 277 158 277 158 291 185 c 1,37,-1
 291 186 l 1,38,39
 299 213 299 213 292 239 c 0,21,22
58 257 m 0,40,41
 85 271 85 271 141 285 c 0,42,43
 206 302 206 302 225 308 c 0,44,45
 267 323 267 323 289.5 343 c 128,-1,46
 312 363 312 363 316 394 c 0,47,48
 319 410 319 410 317 421 c 1,49,-1
 313 427 l 2,50,51
 301 444 301 444 280.5 452.5 c 128,-1,52
 260 461 260 461 239 457 c 0,53,54
 226 455 226 455 215 447.5 c 128,-1,55
 204 440 204 440 198 432 c 2,56,-1
 180 410 l 2,57,58
 168 394 168 394 159.5 385.5 c 128,-1,59
 151 377 151 377 134.5 367 c 128,-1,60
 118 357 118 357 98 355 c 0,61,62
 60 351 60 351 37 377 c 128,-1,63
 14 403 14 403 22 441 c 0,64,65
 33 490 33 490 78 523 c 128,-1,66
 123 556 123 556 183 567 c 1,67,68
 237 580 237 580 296 567.5 c 128,-1,69
 355 555 355 555 387 519 c 0,70,71
 414 490 414 490 424 453 c 128,-1,72
 434 416 434 416 431.5 386.5 c 128,-1,73
 429 357 429 357 419 318 c 0,74,75
 416 305 416 305 408.5 279 c 128,-1,76
 401 253 401 253 397.5 238 c 128,-1,77
 394 223 394 223 390.5 203 c 128,-1,78
 387 183 387 183 387.5 166 c 128,-1,79
 388 149 388 149 392 133 c 0,80,81
 393 129 393 129 396 124 c 1,82,-1
 400 121 l 1,83,84
 402 121 402 121 404 122 c 2,85,-1
 408 124 l 2,86,87
 413 127 413 127 426 140 c 0,88,89
 455 167 455 167 479 165 c 0,90,91
 500 164 500 164 513 146 c 1,92,93
 528 136 528 136 526 117 c 1,94,-1
 525 114 l 1,95,96
 529 91 529 91 523 72 c 0,97,98
 511 30 511 30 469 5 c 128,-1,99
 427 -20 427 -20 384 -5 c 0,100,101
 374 -2 374 -2 364 9 c 2,102,-1
 352 24 l 2,103,104
 348 30 348 30 345 32 c 1,105,106
 340 28 340 28 329 17 c 1,107,108
 316 2 316 2 302 -3 c 0,109,110
 270 -15 270 -15 234.5 -22.5 c 128,-1,111
 199 -30 199 -30 158 -30.5 c 128,-1,112
 117 -31 117 -31 87 -19 c 0,113,114
 52 -6 52 -6 23 28 c 128,-1,115
 -6 62 -6 62 -12 99 c 0,116,117
 -24 179 -24 179 13 221 c 0,118,119
 27 236 27 236 47 247 c 1,120,121
 51 253 51 253 58 257 c 0,40,41
EndSplineSet
Validated: 33
EndChar

StartChar: ccedilla
Encoding: 231 231 108
Width: 548
Flags: W
LayerCount: 2
Fore
SplineSet
292.95 -223.235 m 6,0,-1
 292.95 -240.235 l 6,1,2
 292.95 -247.235 292.95 -247.235 287.95 -250.235 c 5,3,4
 285.95 -266.235 285.95 -266.235 280.95 -275.235 c 4,5,6
 272.95 -288.235 272.95 -288.235 258.95 -288.235 c 4,7,8
 246.95 -288.235 246.95 -288.235 233.95 -277.235 c 4,9,10
 229.95 -274.235 229.95 -274.235 226.95 -268.235 c 4,11,12
 224.95 -263.235 224.95 -263.235 222.95 -257.235 c 4,13,14
 218.95 -245.235 218.95 -245.235 213.95 -226.235 c 4,15,16
 205.95 -190.235 205.95 -190.235 197.95 -139.235 c 4,17,18
 190.95 -90.2354 190.95 -90.2354 186.95 -51.2354 c 5,19,20
 185.95 -30.2354 185.95 -30.2354 185.95 -17.2354 c 4,21,22
 184.95 -1.23535 184.95 -1.23535 187.95 5.76465 c 4,23,24
 192.95 22.7646 192.95 22.7646 203.95 29.7646 c 5,25,26
 212.95 36.7646 212.95 36.7646 230.95 36.7646 c 4,27,28
 261.95 36.7646 261.95 36.7646 278.95 14.7646 c 5,29,30
 292.95 -1.23535 292.95 -1.23535 296.95 -31.2354 c 5,31,32
 298.95 -54.2354 298.95 -54.2354 298.95 -65.2354 c 132,-1,33
 298.95 -76.2354 298.95 -76.2354 297.45 -98.2354 c 132,-1,34
 295.95 -120.235 295.95 -120.235 295.95 -123.235 c 4,35,36
 295.95 -133.235 295.95 -133.235 294.95 -162.735 c 132,-1,37
 293.95 -192.235 293.95 -192.235 292.95 -209.235 c 5,38,39
 293.95 -215.235 293.95 -215.235 293.95 -220.235 c 5,40,41
 292.95 -222.235 292.95 -222.235 292.95 -223.235 c 6,0,-1
101 208 m 1,42,43
 111 162 111 162 146.5 130.5 c 128,-1,44
 182 99 182 99 228 91 c 1,45,46
 243 93 243 93 259 98 c 0,47,48
 306 112 306 112 326 134 c 0,49,50
 335 144 335 144 343 162 c 2,51,-1
 350 178 l 2,52,53
 355 189 355 189 359 195 c 0,54,55
 370 215 370 215 385 224 c 0,56,57
 405 235 405 235 433 231 c 0,58,59
 460 227 460 227 473 207 c 0,60,61
 512 146 512 146 461 76 c 0,62,63
 422 22 422 22 360 -4 c 0,64,65
 283 -36 283 -36 182.5 -9 c 128,-1,66
 82 18 82 18 31 85 c 0,67,68
 -8 136 -8 136 -18 196 c 128,-1,69
 -28 256 -28 256 -13 310.5 c 128,-1,70
 2 365 2 365 37 413 c 0,71,72
 90 486 90 486 174.5 522 c 128,-1,73
 259 558 259 558 349 537 c 1,74,75
 423 518 423 518 455 465 c 1,76,77
 468 440 468 440 467 414 c 128,-1,78
 466 388 466 388 452 367 c 0,79,80
 437 345 437 345 414 336 c 128,-1,81
 391 327 391 327 360 336 c 1,82,83
 347 341 347 341 335.5 352.5 c 128,-1,84
 324 364 324 364 320 372 c 2,85,-1
 307 395 l 1,86,87
 293 424 293 424 283 430 c 1,88,89
 252 431 252 431 215 418 c 0,90,91
 153 395 153 395 120 327 c 1,92,93
 97 268 97 268 102 214 c 0,94,95
 102 211 102 211 101 208 c 1,42,43
EndSplineSet
EndChar

StartChar: atilde
Encoding: 227 227 109
Width: 585
Flags: W
LayerCount: 2
Fore
SplineSet
97 742 m 5,0,1
 120 751 120 751 144 749 c 4,2,3
 180 747 180 747 230 723 c 4,4,5
 240 718 240 718 269 702 c 132,-1,6
 298 686 298 686 311 680 c 132,-1,7
 324 674 324 674 346.5 668.5 c 132,-1,8
 369 663 369 663 388 664 c 132,-1,9
 407 665 407 665 422 679 c 4,10,11
 430 687 430 687 441 707 c 6,12,-1
 462 745 l 5,13,14
 494 797 494 797 536 789 c 4,15,16
 551 786 551 786 558 781 c 4,17,18
 568 774 568 774 572 759 c 4,19,20
 582 720 582 720 564.5 685 c 132,-1,21
 547 650 547 650 511 624 c 4,22,23
 479 601 479 601 440 588.5 c 132,-1,24
 401 576 401 576 369 579 c 4,25,26
 359 580 359 580 348 583.5 c 132,-1,27
 337 587 337 587 329 590 c 132,-1,28
 321 593 321 593 307 601 c 132,-1,29
 293 609 293 609 288 611.5 c 132,-1,30
 283 614 283 614 266 624.5 c 132,-1,31
 249 635 249 635 247 636 c 4,32,33
 176 680 176 680 145 671 c 4,34,35
 136 669 136 669 123 646 c 4,36,37
 118 637 118 637 108 619 c 5,38,-1
 95 592 l 5,39,40
 75 557 75 557 56 543 c 4,41,42
 28 523 28 523 -6 538 c 4,43,44
 -38 553 -38 553 -31 600 c 4,45,46
 -26 639 -26 639 4 678 c 4,47,48
 44 731 44 731 97 742 c 5,0,1
292 239 m 0,49,50
 291 240 291 240 290 240 c 0,51,52
 278 235 278 235 258 228 c 2,53,-1
 215 211 l 2,54,55
 196 203 196 203 183 196 c 1,56,-1
 149 165 l 1,57,58
 129 134 129 134 152 111 c 0,59,60
 162 100 162 100 178.5 97 c 128,-1,61
 195 94 195 94 214 101 c 1,62,63
 230 108 230 108 253.5 133 c 128,-1,64
 277 158 277 158 291 185 c 1,65,-1
 291 186 l 1,66,67
 299 213 299 213 292 239 c 0,49,50
58 257 m 0,68,69
 85 271 85 271 141 285 c 0,70,71
 206 302 206 302 225 308 c 0,72,73
 267 323 267 323 289.5 343 c 128,-1,74
 312 363 312 363 316 394 c 0,75,76
 319 410 319 410 317 421 c 1,77,-1
 313 427 l 2,78,79
 301 444 301 444 280.5 452.5 c 128,-1,80
 260 461 260 461 239 457 c 0,81,82
 226 455 226 455 215 447.5 c 128,-1,83
 204 440 204 440 198 432 c 2,84,-1
 180 410 l 2,85,86
 168 394 168 394 159.5 385.5 c 128,-1,87
 151 377 151 377 134.5 367 c 128,-1,88
 118 357 118 357 98 355 c 0,89,90
 60 351 60 351 37 377 c 128,-1,91
 14 403 14 403 22 441 c 0,92,93
 33 490 33 490 78 523 c 128,-1,94
 123 556 123 556 183 567 c 1,95,96
 237 580 237 580 296 567.5 c 128,-1,97
 355 555 355 555 387 519 c 0,98,99
 414 490 414 490 424 453 c 128,-1,100
 434 416 434 416 431.5 386.5 c 128,-1,101
 429 357 429 357 419 318 c 0,102,103
 416 305 416 305 408.5 279 c 128,-1,104
 401 253 401 253 397.5 238 c 128,-1,105
 394 223 394 223 390.5 203 c 128,-1,106
 387 183 387 183 387.5 166 c 128,-1,107
 388 149 388 149 392 133 c 0,108,109
 393 129 393 129 396 124 c 1,110,-1
 400 121 l 1,111,112
 402 121 402 121 404 122 c 2,113,-1
 408 124 l 2,114,115
 413 127 413 127 426 140 c 0,116,117
 455 167 455 167 479 165 c 0,118,119
 500 164 500 164 513 146 c 1,120,121
 528 136 528 136 526 117 c 1,122,-1
 525 114 l 1,123,124
 529 91 529 91 523 72 c 0,125,126
 511 30 511 30 469 5 c 128,-1,127
 427 -20 427 -20 384 -5 c 0,128,129
 374 -2 374 -2 364 9 c 2,130,-1
 352 24 l 2,131,132
 348 30 348 30 345 32 c 1,133,134
 340 28 340 28 329 17 c 1,135,136
 316 2 316 2 302 -3 c 0,137,138
 270 -15 270 -15 234.5 -22.5 c 128,-1,139
 199 -30 199 -30 158 -30.5 c 128,-1,140
 117 -31 117 -31 87 -19 c 0,141,142
 52 -6 52 -6 23 28 c 128,-1,143
 -6 62 -6 62 -12 99 c 0,144,145
 -24 179 -24 179 13 221 c 0,146,147
 27 236 27 236 47 247 c 1,148,149
 51 253 51 253 58 257 c 0,68,69
EndSplineSet
Validated: 33
EndChar

StartChar: ecircumflex
Encoding: 234 234 110
Width: 558
Flags: W
LayerCount: 2
Fore
SplineSet
247.22 794 m 5,0,-1
 245.22 790 l 5,1,-1
 242.22 785 l 6,2,3
 241.22 782 241.22 782 240.22 780 c 5,4,-1
 240.22 778 l 5,5,6
 237.22 771 237.22 771 229.22 750 c 6,7,-1
 208.22 699 l 5,8,-1
 187.22 644 l 6,9,10
 167.22 594 167.22 594 153.22 565 c 4,11,12
 144.22 548 144.22 548 138.22 538 c 4,13,14
 129.22 524 129.22 524 122.22 520 c 4,15,16
 106.22 513 106.22 513 83.2197 518 c 4,17,18
 58.2197 524 58.2197 524 50.2197 540 c 4,19,20
 43.2197 553 43.2197 553 47.2197 576 c 4,21,22
 50.2197 595 50.2197 595 60.2197 622 c 4,23,24
 76.2197 667 76.2197 667 112.22 739 c 5,25,-1
 174.22 856 l 5,26,-1
 200.22 905 l 5,27,28
 209.22 925 209.22 925 215.22 937 c 4,29,30
 221.22 947 221.22 947 225.22 953 c 4,31,32
 233.22 963 233.22 963 243.22 962 c 4,33,34
 255.22 961 255.22 961 267.22 948 c 4,35,36
 275.22 939 275.22 939 284.22 925 c 4,37,38
 289.22 916 289.22 916 297.22 900 c 4,39,40
 304.22 887 304.22 887 306.22 884 c 4,41,42
 341.22 828 341.22 828 387.22 742 c 4,43,44
 394.22 731 394.22 731 433.22 680 c 4,45,46
 467.22 637 467.22 637 474.22 608 c 4,47,48
 475.22 601 475.22 601 474.22 589 c 4,49,50
 473.22 578 473.22 578 470.22 572 c 4,51,52
 456.22 541 456.22 541 426.22 539 c 4,53,54
 390.22 537 390.22 537 358.22 570 c 4,55,56
 335.22 595 335.22 595 312.22 643 c 4,57,58
 300.22 669 300.22 669 279.22 725 c 4,59,60
 261.22 771 261.22 771 253.22 784 c 4,61,62
 248.22 793 248.22 793 247.22 794 c 5,0,-1
245.22 796 m 5,63,-1
 244.22 795 l 5,64,-1
 245.22 796 l 5,63,-1
147 215 m 0,65,66
 144 215 144 215 142 214 c 0,67,68
 122 212 122 212 118 209 c 1,69,70
 117 207 117 207 116 200 c 0,71,72
 115 195 115 195 116 184 c 0,73,74
 118 136 118 136 144 110 c 128,-1,75
 170 84 170 84 220 78 c 0,76,77
 305 67 305 67 346 137 c 0,78,79
 348 139 348 139 352 147 c 2,80,-1
 358 159 l 1,81,82
 369 177 369 177 378 184 c 1,83,84
 408 202 408 202 436.5 197.5 c 128,-1,85
 465 193 465 193 484 168 c 128,-1,86
 503 143 503 143 499 113 c 0,87,88
 496 92 496 92 489 76 c 128,-1,89
 482 60 482 60 468 45.5 c 128,-1,90
 454 31 454 31 445 24 c 128,-1,91
 436 17 436 17 416 3 c 0,92,93
 359 -38 359 -38 280.5 -39 c 128,-1,94
 202 -40 202 -40 131.5 -5.5 c 128,-1,95
 61 29 61 29 22 88 c 1,96,97
 -16 148 -16 148 -19 229 c 128,-1,98
 -22 310 -22 310 10 384 c 0,99,100
 43 459 43 459 101 500 c 0,101,102
 164 545 164 545 288 536 c 0,103,104
 393 528 393 528 436 482 c 0,105,106
 474 442 474 442 472 374 c 0,107,108
 470 316 470 316 429 278 c 1,109,110
 389 239 389 239 326 221 c 0,111,112
 232 193 232 193 147 215 c 0,65,66
154 312 m 1,113,114
 280 297 280 297 335 335 c 0,115,116
 356 349 356 349 357 364 c 0,117,118
 357 376 357 376 345 390 c 0,119,120
 332 405 332 405 310.5 415.5 c 128,-1,121
 289 426 289 426 270 428 c 0,122,123
 220 434 220 434 175.5 414 c 128,-1,124
 131 394 131 394 116 366 c 0,125,126
 104 343 104 343 121 328 c 0,127,128
 132 318 132 318 154 312 c 1,113,114
EndSplineSet
EndChar

StartChar: acircumflex
Encoding: 226 226 111
Width: 585
Flags: W
LayerCount: 2
Fore
SplineSet
224 836 m 1,0,-1
 222 832 l 1,1,-1
 219 827 l 2,2,3
 218 824 218 824 217 822 c 1,4,-1
 217 820 l 1,5,6
 214 813 214 813 206 792 c 2,7,-1
 185 741 l 1,8,-1
 164 686 l 2,9,10
 144 636 144 636 130 607 c 0,11,12
 121 590 121 590 115 580 c 0,13,14
 106 566 106 566 99 562 c 0,15,16
 83 555 83 555 60 560 c 0,17,18
 35 566 35 566 27 582 c 0,19,20
 20 595 20 595 24 618 c 0,21,22
 27 637 27 637 37 664 c 0,23,24
 53 709 53 709 89 781 c 1,25,-1
 151 898 l 1,26,-1
 177 947 l 1,27,28
 186 967 186 967 192 979 c 0,29,30
 198 989 198 989 202 995 c 0,31,32
 210 1005 210 1005 220 1004 c 0,33,34
 232 1003 232 1003 244 990 c 0,35,36
 252 981 252 981 261 967 c 0,37,38
 266 958 266 958 274 942 c 0,39,40
 281 929 281 929 283 926 c 0,41,42
 318 870 318 870 364 784 c 0,43,44
 371 773 371 773 410 722 c 0,45,46
 444 679 444 679 451 650 c 0,47,48
 452 643 452 643 451 631 c 0,49,50
 450 620 450 620 447 614 c 0,51,52
 433 583 433 583 403 581 c 0,53,54
 367 579 367 579 335 612 c 0,55,56
 312 637 312 637 289 685 c 0,57,58
 277 711 277 711 256 767 c 0,59,60
 238 813 238 813 230 826 c 0,61,62
 225 835 225 835 224 836 c 1,0,-1
222 838 m 1,63,-1
 221 837 l 1,64,-1
 222 838 l 1,63,-1
292 239 m 0,65,66
 291 240 291 240 290 240 c 0,67,68
 278 235 278 235 258 228 c 2,69,-1
 215 211 l 2,70,71
 196 203 196 203 183 196 c 1,72,-1
 149 165 l 1,73,74
 129 134 129 134 152 111 c 0,75,76
 162 100 162 100 178.5 97 c 128,-1,77
 195 94 195 94 214 101 c 1,78,79
 230 108 230 108 253.5 133 c 128,-1,80
 277 158 277 158 291 185 c 1,81,-1
 291 186 l 1,82,83
 299 213 299 213 292 239 c 0,65,66
58 257 m 0,84,85
 85 271 85 271 141 285 c 0,86,87
 206 302 206 302 225 308 c 0,88,89
 267 323 267 323 289.5 343 c 128,-1,90
 312 363 312 363 316 394 c 0,91,92
 319 410 319 410 317 421 c 1,93,-1
 313 427 l 2,94,95
 301 444 301 444 280.5 452.5 c 128,-1,96
 260 461 260 461 239 457 c 0,97,98
 226 455 226 455 215 447.5 c 128,-1,99
 204 440 204 440 198 432 c 2,100,-1
 180 410 l 2,101,102
 168 394 168 394 159.5 385.5 c 128,-1,103
 151 377 151 377 134.5 367 c 128,-1,104
 118 357 118 357 98 355 c 0,105,106
 60 351 60 351 37 377 c 128,-1,107
 14 403 14 403 22 441 c 0,108,109
 33 490 33 490 78 523 c 128,-1,110
 123 556 123 556 183 567 c 1,111,112
 237 580 237 580 296 567.5 c 128,-1,113
 355 555 355 555 387 519 c 0,114,115
 414 490 414 490 424 453 c 128,-1,116
 434 416 434 416 431.5 386.5 c 128,-1,117
 429 357 429 357 419 318 c 0,118,119
 416 305 416 305 408.5 279 c 128,-1,120
 401 253 401 253 397.5 238 c 128,-1,121
 394 223 394 223 390.5 203 c 128,-1,122
 387 183 387 183 387.5 166 c 128,-1,123
 388 149 388 149 392 133 c 0,124,125
 393 129 393 129 396 124 c 1,126,-1
 400 121 l 1,127,128
 402 121 402 121 404 122 c 2,129,-1
 408 124 l 2,130,131
 413 127 413 127 426 140 c 0,132,133
 455 167 455 167 479 165 c 0,134,135
 500 164 500 164 513 146 c 1,136,137
 528 136 528 136 526 117 c 1,138,-1
 525 114 l 1,139,140
 529 91 529 91 523 72 c 0,141,142
 511 30 511 30 469 5 c 128,-1,143
 427 -20 427 -20 384 -5 c 0,144,145
 374 -2 374 -2 364 9 c 2,146,-1
 352 24 l 2,147,148
 348 30 348 30 345 32 c 1,149,150
 340 28 340 28 329 17 c 1,151,152
 316 2 316 2 302 -3 c 0,153,154
 270 -15 270 -15 234.5 -22.5 c 128,-1,155
 199 -30 199 -30 158 -30.5 c 128,-1,156
 117 -31 117 -31 87 -19 c 0,157,158
 52 -6 52 -6 23 28 c 128,-1,159
 -6 62 -6 62 -12 99 c 0,160,161
 -24 179 -24 179 13 221 c 0,162,163
 27 236 27 236 47 247 c 1,164,165
 51 253 51 253 58 257 c 0,84,85
EndSplineSet
EndChar

StartChar: ograve
Encoding: 242 242 112
Width: 535
Flags: W
LayerCount: 2
Fore
SplineSet
173 556 m 5,0,1
 168 553 168 553 162 552 c 4,2,3
 150 550 150 550 135 555 c 4,4,5
 110 564 110 564 77 590 c 4,6,7
 48 614 48 614 27 640 c 4,8,9
 16 653 16 653 10 664 c 4,10,11
 3 677 3 677 4 687 c 4,12,13
 6 704 6 704 22 710 c 4,14,15
 32 714 32 714 47 713 c 4,16,17
 64 712 64 712 88 704 c 4,18,19
 125 693 125 693 152 653.5 c 132,-1,20
 179 614 179 614 191 571 c 4,21,22
 195 558 195 558 183 555 c 4,23,24
 177 553 177 553 173 556 c 5,0,1
196 536 m 1,25,-1
 205 539 l 2,26,27
 300 571 300 571 373 517 c 0,28,29
 437 469 437 469 463 374 c 0,30,31
 475 330 475 330 475.5 282.5 c 128,-1,32
 476 235 476 235 465.5 189.5 c 128,-1,33
 455 144 455 144 429 103 c 128,-1,34
 403 62 403 62 365 35 c 0,35,36
 299 -12 299 -12 248 -18 c 0,37,38
 204 -23 204 -23 162 -5.5 c 128,-1,39
 120 12 120 12 87 44 c 1,40,41
 14 118 14 118 -1 194 c 1,42,43
 -12 256 -12 256 5 322 c 0,44,45
 22 389 22 389 62 442 c 0,46,47
 118 517 118 517 196 536 c 1,25,-1
115 196 m 1,48,49
 138 158 138 158 184.5 140.5 c 128,-1,50
 231 123 231 123 269 138 c 0,51,52
 290 146 290 146 338 186 c 1,53,54
 350 209 350 209 354 237 c 0,55,56
 366 304 366 304 335 353 c 0,57,58
 301 407 301 407 231 407 c 0,59,60
 179 407 179 407 142 370 c 1,61,62
 119 343 119 343 108 305 c 1,63,64
 99 251 99 251 115 197 c 1,65,-1
 115 196 l 1,48,49
EndSplineSet
EndChar

StartChar: oacute
Encoding: 243 243 113
Width: 535
Flags: W
LayerCount: 2
Fore
SplineSet
277 669 m 5,0,-1
 285 676 l 5,1,2
 328 711 328 711 370 736 c 4,3,4
 423 767 423 767 454 765 c 4,5,6
 479 764 479 764 490 743 c 4,7,8
 499 726 499 726 493 696 c 4,9,10
 485 661 485 661 435 625 c 4,11,12
 394 596 394 596 341 577 c 4,13,14
 286 558 286 558 255 562 c 4,15,16
 230 565 230 565 223 584 c 4,17,18
 216 601 216 601 231 625 c 4,19,20
 244 647 244 647 277 669 c 5,0,-1
196 536 m 1,21,-1
 205 539 l 2,22,23
 300 571 300 571 373 517 c 0,24,25
 437 469 437 469 463 374 c 0,26,27
 475 330 475 330 475.5 282.5 c 128,-1,28
 476 235 476 235 465.5 189.5 c 128,-1,29
 455 144 455 144 429 103 c 128,-1,30
 403 62 403 62 365 35 c 0,31,32
 299 -12 299 -12 248 -18 c 0,33,34
 204 -23 204 -23 162 -5.5 c 128,-1,35
 120 12 120 12 87 44 c 1,36,37
 14 118 14 118 -1 194 c 1,38,39
 -12 256 -12 256 5 322 c 0,40,41
 22 389 22 389 62 442 c 0,42,43
 118 517 118 517 196 536 c 1,21,-1
115 196 m 1,44,45
 138 158 138 158 184.5 140.5 c 128,-1,46
 231 123 231 123 269 138 c 0,47,48
 290 146 290 146 338 186 c 1,49,50
 350 209 350 209 354 237 c 0,51,52
 366 304 366 304 335 353 c 0,53,54
 301 407 301 407 231 407 c 0,55,56
 179 407 179 407 142 370 c 1,57,58
 119 343 119 343 108 305 c 1,59,60
 99 251 99 251 115 197 c 1,61,-1
 115 196 l 1,44,45
EndSplineSet
EndChar

StartChar: ocircumflex
Encoding: 244 244 114
Width: 535
Flags: W
LayerCount: 2
Fore
SplineSet
244 801 m 5,0,-1
 242 797 l 5,1,-1
 239 792 l 6,2,3
 238 789 238 789 237 787 c 5,4,-1
 237 785 l 5,5,6
 234 778 234 778 226 757 c 6,7,-1
 205 706 l 5,8,-1
 184 651 l 6,9,10
 164 601 164 601 150 572 c 4,11,12
 141 555 141 555 135 545 c 4,13,14
 126 531 126 531 119 527 c 4,15,16
 103 520 103 520 80 525 c 4,17,18
 55 531 55 531 47 547 c 4,19,20
 40 560 40 560 44 583 c 4,21,22
 47 602 47 602 57 629 c 4,23,24
 73 674 73 674 109 746 c 5,25,-1
 171 863 l 5,26,-1
 197 912 l 5,27,28
 206 932 206 932 212 944 c 4,29,30
 218 954 218 954 222 960 c 4,31,32
 230 970 230 970 240 969 c 4,33,34
 252 968 252 968 264 955 c 4,35,36
 272 946 272 946 281 932 c 4,37,38
 286 923 286 923 294 907 c 4,39,40
 301 894 301 894 303 891 c 4,41,42
 338 835 338 835 384 749 c 4,43,44
 391 738 391 738 430 687 c 4,45,46
 464 644 464 644 471 615 c 4,47,48
 472 608 472 608 471 596 c 4,49,50
 470 585 470 585 467 579 c 4,51,52
 453 548 453 548 423 546 c 4,53,54
 387 544 387 544 355 577 c 4,55,56
 332 602 332 602 309 650 c 4,57,58
 297 676 297 676 276 732 c 4,59,60
 258 778 258 778 250 791 c 4,61,62
 245 800 245 800 244 801 c 5,0,-1
242 803 m 5,63,-1
 241 802 l 5,64,-1
 242 803 l 5,63,-1
196 536 m 1,65,-1
 205 539 l 2,66,67
 300 571 300 571 373 517 c 0,68,69
 437 469 437 469 463 374 c 0,70,71
 475 330 475 330 475.5 282.5 c 128,-1,72
 476 235 476 235 465.5 189.5 c 128,-1,73
 455 144 455 144 429 103 c 128,-1,74
 403 62 403 62 365 35 c 0,75,76
 299 -12 299 -12 248 -18 c 0,77,78
 204 -23 204 -23 162 -5.5 c 128,-1,79
 120 12 120 12 87 44 c 1,80,81
 14 118 14 118 -1 194 c 1,82,83
 -12 256 -12 256 5 322 c 0,84,85
 22 389 22 389 62 442 c 0,86,87
 118 517 118 517 196 536 c 1,65,-1
115 196 m 1,88,89
 138 158 138 158 184.5 140.5 c 128,-1,90
 231 123 231 123 269 138 c 0,91,92
 290 146 290 146 338 186 c 1,93,94
 350 209 350 209 354 237 c 0,95,96
 366 304 366 304 335 353 c 0,97,98
 301 407 301 407 231 407 c 0,99,100
 179 407 179 407 142 370 c 1,101,102
 119 343 119 343 108 305 c 1,103,104
 99 251 99 251 115 197 c 1,105,-1
 115 196 l 1,88,89
EndSplineSet
EndChar

StartChar: otilde
Encoding: 245 245 115
Width: 535
Flags: W
LayerCount: 2
Fore
SplineSet
117 701 m 5,0,1
 140 710 140 710 164 708 c 4,2,3
 200 706 200 706 250 682 c 4,4,5
 260 677 260 677 289 661 c 132,-1,6
 318 645 318 645 331 639 c 132,-1,7
 344 633 344 633 366.5 627.5 c 132,-1,8
 389 622 389 622 408 623 c 132,-1,9
 427 624 427 624 442 638 c 4,10,11
 450 646 450 646 461 666 c 6,12,-1
 482 704 l 5,13,14
 514 756 514 756 556 748 c 4,15,16
 571 745 571 745 578 740 c 4,17,18
 588 733 588 733 592 718 c 4,19,20
 602 679 602 679 584.5 644 c 132,-1,21
 567 609 567 609 531 583 c 4,22,23
 499 560 499 560 460 547.5 c 132,-1,24
 421 535 421 535 389 538 c 4,25,26
 379 539 379 539 368 542.5 c 132,-1,27
 357 546 357 546 349 549 c 132,-1,28
 341 552 341 552 327 560 c 132,-1,29
 313 568 313 568 308 570.5 c 132,-1,30
 303 573 303 573 286 583.5 c 132,-1,31
 269 594 269 594 267 595 c 4,32,33
 196 639 196 639 165 630 c 4,34,35
 156 628 156 628 143 605 c 4,36,37
 138 596 138 596 128 578 c 5,38,-1
 115 551 l 5,39,40
 95 516 95 516 76 502 c 4,41,42
 48 482 48 482 14 497 c 4,43,44
 -18 512 -18 512 -11 559 c 4,45,46
 -6 598 -6 598 24 637 c 4,47,48
 64 690 64 690 117 701 c 5,0,1
196 536 m 1,49,-1
 205 539 l 2,50,51
 300 571 300 571 373 517 c 0,52,53
 437 469 437 469 463 374 c 0,54,55
 475 330 475 330 475.5 282.5 c 128,-1,56
 476 235 476 235 465.5 189.5 c 128,-1,57
 455 144 455 144 429 103 c 128,-1,58
 403 62 403 62 365 35 c 0,59,60
 299 -12 299 -12 248 -18 c 0,61,62
 204 -23 204 -23 162 -5.5 c 128,-1,63
 120 12 120 12 87 44 c 1,64,65
 14 118 14 118 -1 194 c 1,66,67
 -12 256 -12 256 5 322 c 0,68,69
 22 389 22 389 62 442 c 0,70,71
 118 517 118 517 196 536 c 1,49,-1
115 196 m 1,72,73
 138 158 138 158 184.5 140.5 c 128,-1,74
 231 123 231 123 269 138 c 0,75,76
 290 146 290 146 338 186 c 1,77,78
 350 209 350 209 354 237 c 0,79,80
 366 304 366 304 335 353 c 0,81,82
 301 407 301 407 231 407 c 0,83,84
 179 407 179 407 142 370 c 1,85,86
 119 343 119 343 108 305 c 1,87,88
 99 251 99 251 115 197 c 1,89,-1
 115 196 l 1,72,73
EndSplineSet
EndChar

StartChar: igrave
Encoding: 236 236 116
Width: 234
Flags: W
LayerCount: 2
Fore
SplineSet
147 563 m 5,0,1
 142 560 142 560 136 559 c 4,2,3
 124 557 124 557 109 562 c 4,4,5
 84 571 84 571 51 597 c 4,6,7
 22 621 22 621 1 647 c 4,8,9
 -10 660 -10 660 -16 671 c 4,10,11
 -23 684 -23 684 -22 694 c 4,12,13
 -20 711 -20 711 -4 717 c 0,14,15
 6 721 6 721 21 720 c 0,16,17
 38 719 38 719 62 711 c 0,18,19
 99 700 99 700 126 660.5 c 132,-1,20
 153 621 153 621 165 578 c 4,21,22
 169 565 169 565 157 562 c 4,23,24
 151 560 151 560 147 563 c 5,0,1
147 124 m 4,25,26
 148 120 148 120 151 112.5 c 132,-1,27
 154 105 154 105 155 102 c 4,28,29
 167 68 167 68 165 45 c 4,30,31
 162 16 162 16 137.5 0.5 c 132,-1,32
 113 -15 113 -15 85 -6 c 4,33,34
 62 1 62 1 46.5 21 c 132,-1,35
 31 41 31 41 28 64 c 4,36,37
 24 99 24 99 33 157 c 4,38,39
 44 222 44 222 44 244 c 4,40,41
 44 251 44 251 35 319 c 132,-1,42
 26 387 26 387 26 428 c 4,43,44
 26 488 26 488 46 514 c 5,45,46
 47 517 47 517 50 520 c 4,47,48
 65 540 65 540 94 542 c 4,49,50
 108 543 108 543 123 540 c 4,51,52
 144 536 144 536 153 525 c 4,53,54
 162 515 162 515 161 492 c 4,55,56
 161 477 161 477 157 455 c 4,57,58
 154 440 154 440 149 417 c 132,-1,59
 144 394 144 394 144 393 c 4,60,61
 124 293 124 293 140 159 c 5,62,63
 145 138 145 138 147 124 c 4,25,26
EndSplineSet
EndChar

StartChar: iacute
Encoding: 237 237 117
Width: 234
Flags: W
LayerCount: 2
Fore
SplineSet
75 665 m 5,0,-1
 83 672 l 5,1,2
 126 707 126 707 168 732 c 4,3,4
 221 763 221 763 252 761 c 4,5,6
 277 760 277 760 288 739 c 4,7,8
 297 722 297 722 291 692 c 4,9,10
 283 657 283 657 233 621 c 4,11,12
 192 592 192 592 139 573 c 4,13,14
 84 554 84 554 53 558 c 4,15,16
 28 561 28 561 21 580 c 4,17,18
 14 597 14 597 29 621 c 4,19,20
 42 643 42 643 75 665 c 5,0,-1
147 124 m 0,21,22
 148 120 148 120 151 112.5 c 128,-1,23
 154 105 154 105 155 102 c 0,24,25
 167 68 167 68 165 45 c 0,26,27
 162 16 162 16 137.5 0.5 c 128,-1,28
 113 -15 113 -15 85 -6 c 0,29,30
 62 1 62 1 46.5 21 c 128,-1,31
 31 41 31 41 28 64 c 0,32,33
 24 99 24 99 33 157 c 0,34,35
 44 222 44 222 44 244 c 0,36,37
 44 251 44 251 35 319 c 128,-1,38
 26 387 26 387 26 428 c 0,39,40
 26 488 26 488 46 514 c 1,41,42
 47 517 47 517 50 520 c 0,43,44
 65 540 65 540 94 542 c 0,45,46
 108 543 108 543 123 540 c 0,47,48
 144 536 144 536 153 525 c 0,49,50
 162 515 162 515 161 492 c 0,51,52
 161 477 161 477 157 455 c 0,53,54
 154 440 154 440 149 417 c 128,-1,55
 144 394 144 394 144 393 c 0,56,57
 124 293 124 293 140 159 c 1,58,59
 145 138 145 138 147 124 c 0,21,22
EndSplineSet
EndChar

